{"glyphs":{"0":{"ha":858,"x_min":107,"x_max":751,"o":"m 429 993 q 586 951 524 993 q 685 836 649 908 q 736 673 721 764 q 751 485 751 582 q 736 297 751 388 q 685 133 721 206 q 586 17 649 60 q 429 -25 524 -25 q 272 17 335 -25 q 174 133 210 60 q 122 297 138 206 q 107 485 107 388 q 122 673 107 582 q 174 836 138 764 q 272 951 210 908 q 429 993 335 993 m 429 888 q 272 778 322 888 q 221 485 221 668 q 233 323 221 396 q 268 199 244 250 l 542 842 q 429 888 496 888 m 638 485 q 628 632 638 565 q 599 750 618 699 l 331 114 q 429 81 372 81 q 547 131 501 81 q 615 272 593 181 q 638 485 638 363 z "},"1":{"ha":858,"x_min":161,"x_max":543,"o":"m 421 0 l 421 704 l 161 704 l 161 796 q 298 807 247 800 q 376 832 349 814 q 420 885 404 850 q 451 982 436 921 l 543 982 l 543 0 l 421 0 z "},"2":{"ha":858,"x_min":99,"x_max":761,"o":"m 754 107 l 754 0 l 99 0 q 133 190 107 114 q 217 322 160 265 q 375 433 275 379 l 504 504 q 603 588 569 540 q 636 700 636 636 q 592 834 636 782 q 454 886 547 886 q 299 819 347 886 q 243 646 250 753 l 121 646 q 210 903 126 813 q 458 993 294 993 q 626 953 558 993 q 727 848 693 914 q 761 700 761 782 q 554 404 761 514 l 415 331 q 285 230 328 283 q 236 107 243 176 l 754 107 z "},"3":{"ha":858,"x_min":96,"x_max":758,"o":"m 431 460 l 363 460 l 363 564 q 488 571 433 561 q 574 616 543 581 q 606 721 606 651 q 556 844 606 803 q 431 886 507 886 q 290 837 338 886 q 239 678 242 788 l 117 678 q 201 913 119 833 q 431 993 283 993 q 646 926 563 993 q 729 725 729 860 q 695 599 729 654 q 590 518 661 544 q 718 429 678 489 q 758 278 758 369 q 716 115 758 183 q 599 11 674 47 q 426 -25 525 -25 q 96 289 113 -25 l 219 289 q 275 135 225 188 q 431 82 325 82 q 586 140 538 82 q 635 276 635 197 q 431 460 635 460 z "},"4":{"ha":858,"x_min":88,"x_max":771,"o":"m 507 0 l 507 247 l 88 247 l 88 372 l 518 979 l 625 979 l 625 353 l 771 353 l 771 247 l 625 247 l 625 0 l 507 0 m 189 353 l 507 353 l 507 803 l 189 353 z "},"5":{"ha":858,"x_min":89,"x_max":753,"o":"m 193 971 l 701 971 l 701 864 l 293 864 l 253 581 q 342 631 293 617 q 440 644 390 644 q 599 605 528 644 q 711 492 669 565 q 753 318 753 419 q 712 142 753 219 q 596 19 671 64 q 415 -25 521 -25 q 322 -14 374 -25 q 222 26 271 -3 q 136 106 172 54 q 89 238 100 157 l 213 238 q 415 82 254 82 q 574 147 521 82 q 628 313 628 211 q 577 478 628 414 q 419 542 526 542 q 316 519 361 542 q 232 444 271 496 l 121 444 l 193 971 z "},"6":{"ha":858,"x_min":114,"x_max":767,"o":"m 747 743 l 626 743 q 576 849 613 807 q 464 890 539 890 q 294 784 354 890 q 233 492 233 678 q 330 585 265 549 q 476 621 394 621 q 634 577 569 621 q 733 463 699 533 q 767 310 767 392 q 731 146 767 222 q 624 22 694 69 q 450 -25 553 -25 q 290 15 354 -25 q 186 123 225 54 q 131 279 147 192 q 114 464 114 367 q 207 854 114 715 q 472 993 300 993 q 656 928 585 993 q 747 743 728 863 m 449 518 q 344 489 390 518 q 272 410 299 460 q 246 299 246 361 q 272 186 246 236 q 344 107 299 136 q 449 78 390 78 q 592 142 540 78 q 643 299 643 206 q 592 455 643 392 q 449 518 540 518 z "},"7":{"ha":858,"x_min":100,"x_max":758,"o":"m 100 971 l 758 971 l 758 868 q 571 581 650 717 q 440 306 492 446 q 358 0 388 167 l 228 0 q 287 216 257 122 q 351 388 317 310 q 426 538 385 465 q 520 690 468 611 q 639 864 572 768 l 100 864 l 100 971 z "},"8":{"ha":858,"x_min":99,"x_max":760,"o":"m 592 524 q 760 281 760 440 q 719 122 760 190 q 603 14 678 53 q 429 -25 529 -25 q 258 14 332 -25 q 141 122 183 53 q 99 281 99 190 q 268 524 99 440 q 167 609 201 564 q 133 731 133 654 q 172 867 133 808 q 277 960 210 926 q 429 993 344 993 q 584 960 518 993 q 688 867 650 926 q 725 729 725 807 q 697 616 725 660 q 592 524 668 572 m 429 890 q 297 843 343 890 q 251 729 251 796 q 296 619 251 665 q 429 572 340 572 q 557 615 507 572 q 607 726 607 657 q 559 846 607 801 q 429 890 511 890 m 429 469 q 324 447 372 469 q 246 381 275 424 q 217 275 217 338 q 244 171 217 215 q 320 102 272 126 q 426 78 368 78 q 582 133 522 78 q 642 276 642 188 q 613 383 642 340 q 535 447 583 425 q 429 469 486 469 z "},"9":{"ha":858,"x_min":92,"x_max":744,"o":"m 111 225 l 232 225 q 283 119 246 161 q 394 78 319 78 q 565 184 506 78 q 625 476 625 290 q 528 383 593 419 q 382 347 464 347 q 224 391 289 347 q 126 506 160 435 q 92 658 92 578 q 128 822 92 746 q 235 946 164 899 q 408 993 306 993 q 569 953 504 993 q 672 845 633 914 q 728 689 711 776 q 744 504 744 601 q 652 114 744 253 q 386 -25 560 -25 q 202 41 274 -25 q 111 225 131 107 m 410 450 q 514 479 468 450 q 586 558 560 508 q 613 669 613 608 q 586 782 613 732 q 514 861 560 832 q 410 890 468 890 q 267 827 318 890 q 215 669 215 764 q 267 513 215 576 q 410 450 318 450 z "},"A":{"ha":858,"x_min":42,"x_max":817,"o":"m 682 0 l 596 290 l 261 290 l 175 0 l 42 0 l 349 971 l 511 971 l 817 0 l 682 0 m 293 399 l 564 399 l 428 854 l 293 399 z "},"Á":{"ha":858,"x_min":42,"x_max":817,"o":"m 682 0 l 596 290 l 261 290 l 175 0 l 42 0 l 349 971 l 511 971 l 817 0 l 682 0 m 293 399 l 564 399 l 428 854 l 293 399 m 360 1065 l 493 1271 l 650 1271 l 443 1065 l 360 1065 z "},"Ă":{"ha":858,"x_min":42,"x_max":817,"o":"m 682 0 l 596 290 l 261 290 l 175 0 l 42 0 l 349 971 l 511 971 l 817 0 l 682 0 m 293 399 l 564 399 l 428 854 l 293 399 m 219 1260 l 301 1260 q 428 1168 313 1168 q 554 1260 543 1168 l 636 1260 q 574 1117 631 1163 q 428 1072 518 1072 q 283 1117 339 1072 q 219 1260 226 1163 z "},"Ǎ":{"ha":858,"x_min":42,"x_max":817,"o":"m 682 0 l 596 290 l 261 290 l 175 0 l 42 0 l 349 971 l 511 971 l 817 0 l 682 0 m 293 399 l 564 399 l 428 854 l 293 399 m 626 1272 l 493 1064 l 363 1064 l 228 1272 l 315 1272 l 428 1139 l 538 1272 l 626 1272 z "},"Â":{"ha":858,"x_min":42,"x_max":817,"o":"m 682 0 l 596 290 l 261 290 l 175 0 l 42 0 l 349 971 l 511 971 l 817 0 l 682 0 m 293 399 l 564 399 l 428 854 l 293 399 m 228 1064 l 361 1272 l 492 1272 l 626 1064 l 539 1064 l 426 1197 l 317 1064 l 228 1064 z "},"Ä":{"ha":858,"x_min":42,"x_max":817,"o":"m 682 0 l 596 290 l 261 290 l 175 0 l 42 0 l 349 971 l 511 971 l 817 0 l 682 0 m 293 399 l 564 399 l 428 854 l 293 399 m 243 1236 l 388 1236 l 388 1093 l 243 1093 l 243 1236 m 468 1236 l 613 1236 l 613 1093 l 468 1093 l 468 1236 z "},"À":{"ha":858,"x_min":42,"x_max":817,"o":"m 682 0 l 596 290 l 261 290 l 175 0 l 42 0 l 349 971 l 511 971 l 817 0 l 682 0 m 293 399 l 564 399 l 428 854 l 293 399 m 496 1065 l 413 1065 l 206 1271 l 363 1271 l 496 1065 z "},"Ā":{"ha":858,"x_min":42,"x_max":817,"o":"m 682 0 l 596 290 l 261 290 l 175 0 l 42 0 l 349 971 l 511 971 l 817 0 l 682 0 m 293 399 l 564 399 l 428 854 l 293 399 m 238 1217 l 618 1217 l 618 1119 l 238 1119 l 238 1217 z "},"Ą":{"ha":858,"x_min":42,"x_max":817,"o":"m 682 0 l 596 290 l 261 290 l 175 0 l 42 0 l 349 971 l 511 971 l 817 0 l 682 0 m 293 399 l 564 399 l 428 854 l 293 399 m 764 28 l 817 0 q 706 -58 736 -28 q 675 -128 675 -87 q 699 -181 675 -161 q 758 -200 724 -200 q 817 -192 792 -200 l 817 -272 q 776 -282 797 -279 q 736 -285 756 -285 q 625 -248 668 -285 q 582 -156 582 -211 q 622 -51 582 -103 q 764 28 661 0 z "},"Å":{"ha":858,"x_min":42,"x_max":817,"o":"m 682 0 l 596 290 l 261 290 l 175 0 l 42 0 l 349 971 l 511 971 l 817 0 l 682 0 m 293 399 l 564 399 l 428 854 l 293 399 m 428 1290 q 515 1255 479 1290 q 550 1168 550 1219 q 515 1081 550 1117 q 428 1046 479 1046 q 341 1081 376 1046 q 306 1168 306 1117 q 341 1255 306 1219 q 428 1290 376 1290 m 428 1231 q 384 1213 400 1231 q 368 1168 368 1194 q 384 1124 368 1142 q 428 1106 400 1106 q 472 1124 456 1106 q 488 1168 488 1142 q 472 1213 488 1194 q 428 1231 456 1231 z "},"Ã":{"ha":858,"x_min":42,"x_max":817,"o":"m 682 0 l 596 290 l 261 290 l 175 0 l 42 0 l 349 971 l 511 971 l 817 0 l 682 0 m 293 399 l 564 399 l 428 854 l 293 399 m 565 1239 l 646 1239 q 521 1094 625 1094 q 462 1109 497 1094 q 392 1138 426 1124 q 336 1151 358 1151 q 290 1096 304 1151 l 210 1096 q 329 1239 233 1239 q 390 1226 356 1239 q 457 1199 424 1213 q 514 1185 490 1185 q 565 1239 551 1185 z "},"Æ":{"ha":858,"x_min":-1,"x_max":840,"o":"m 425 0 l 425 286 l 224 286 l 125 0 l -1 0 l 340 971 l 815 971 l 815 860 l 544 860 l 544 553 l 794 553 l 794 442 l 544 442 l 544 111 l 840 111 l 840 0 l 425 0 m 425 860 l 419 860 l 260 394 l 425 394 l 425 860 z "},"B":{"ha":858,"x_min":128,"x_max":799,"o":"m 506 0 l 128 0 l 128 971 l 474 971 q 685 905 604 971 q 767 724 767 839 q 734 592 767 654 q 638 507 701 529 q 756 423 713 482 q 799 276 799 364 q 765 141 799 204 q 667 39 732 78 q 506 0 601 0 m 254 861 l 254 554 l 454 554 q 583 585 532 554 q 635 706 635 617 q 583 828 635 796 q 454 861 532 861 l 254 861 m 254 444 l 254 110 l 490 110 q 624 157 582 110 q 667 278 667 204 q 624 398 667 351 q 490 444 582 444 l 254 444 z "},"C":{"ha":858,"x_min":75,"x_max":808,"o":"m 799 700 l 667 700 q 601 829 646 779 q 464 879 557 879 q 316 829 372 879 q 235 690 260 779 q 210 483 210 600 q 275 188 210 286 q 464 89 340 89 q 608 150 561 89 q 676 329 656 211 l 808 329 q 697 64 789 153 q 463 -25 606 -25 q 250 37 336 -25 q 119 213 164 99 q 75 482 75 326 q 97 679 75 586 q 164 842 118 772 q 285 953 210 913 q 468 993 360 993 q 633 954 565 993 q 743 849 701 915 q 799 700 785 783 z "},"Ć":{"ha":858,"x_min":75,"x_max":808,"o":"m 799 700 l 667 700 q 601 829 646 779 q 464 879 557 879 q 316 829 372 879 q 235 690 260 779 q 210 483 210 600 q 275 188 210 286 q 464 89 340 89 q 608 150 561 89 q 676 329 656 211 l 808 329 q 697 64 789 153 q 463 -25 606 -25 q 250 37 336 -25 q 119 213 164 99 q 75 482 75 326 q 97 679 75 586 q 164 842 118 772 q 285 953 210 913 q 468 993 360 993 q 633 954 565 993 q 743 849 701 915 q 799 700 785 783 m 401 1065 l 535 1271 l 692 1271 l 485 1065 l 401 1065 z "},"Č":{"ha":858,"x_min":75,"x_max":808,"o":"m 799 700 l 667 700 q 601 829 646 779 q 464 879 557 879 q 316 829 372 879 q 235 690 260 779 q 210 483 210 600 q 275 188 210 286 q 464 89 340 89 q 608 150 561 89 q 676 329 656 211 l 808 329 q 697 64 789 153 q 463 -25 606 -25 q 250 37 336 -25 q 119 213 164 99 q 75 482 75 326 q 97 679 75 586 q 164 842 118 772 q 285 953 210 913 q 468 993 360 993 q 633 954 565 993 q 743 849 701 915 q 799 700 785 783 m 668 1272 l 535 1064 l 404 1064 l 269 1272 l 357 1272 l 469 1139 l 579 1272 l 668 1272 z "},"Ç":{"ha":858,"x_min":75,"x_max":808,"o":"m 799 700 l 667 700 q 601 829 646 779 q 464 879 557 879 q 316 829 372 879 q 235 690 260 779 q 210 483 210 600 q 275 188 210 286 q 464 89 340 89 q 608 150 561 89 q 676 329 656 211 l 808 329 q 697 64 789 153 q 463 -25 606 -25 q 250 37 336 -25 q 119 213 164 99 q 75 482 75 326 q 97 679 75 586 q 164 842 118 772 q 285 953 210 913 q 468 993 360 993 q 633 954 565 993 q 743 849 701 915 q 799 700 785 783 m 401 -117 l 467 17 l 525 17 l 474 -87 q 511 -83 492 -83 q 582 -106 551 -83 q 613 -178 613 -129 q 570 -265 613 -233 q 457 -297 528 -297 q 395 -288 426 -297 q 340 -265 364 -279 l 365 -204 q 412 -221 386 -214 q 463 -228 438 -228 q 508 -217 488 -228 q 529 -179 529 -207 q 515 -150 529 -160 q 479 -140 500 -140 q 429 -156 453 -140 l 401 -117 z "},"Ċ":{"ha":858,"x_min":75,"x_max":808,"o":"m 799 700 l 667 700 q 601 829 646 779 q 464 879 557 879 q 316 829 372 879 q 235 690 260 779 q 210 483 210 600 q 275 188 210 286 q 464 89 340 89 q 608 150 561 89 q 676 329 656 211 l 808 329 q 697 64 789 153 q 463 -25 606 -25 q 250 37 336 -25 q 119 213 164 99 q 75 482 75 326 q 97 679 75 586 q 164 842 118 772 q 285 953 210 913 q 468 993 360 993 q 633 954 565 993 q 743 849 701 915 q 799 700 785 783 m 397 1238 l 542 1238 l 542 1093 l 397 1093 l 397 1238 z "},"D":{"ha":858,"x_min":106,"x_max":789,"o":"m 419 0 l 106 0 l 106 971 l 419 971 q 625 908 543 971 q 748 737 707 846 q 789 486 789 628 q 748 235 789 344 q 625 63 707 125 q 419 0 543 0 m 235 857 l 235 114 l 397 114 q 594 213 533 114 q 654 485 654 313 q 594 758 654 658 q 397 857 533 857 l 235 857 z "},"Ð":{"ha":858,"x_min":15,"x_max":806,"o":"m 436 0 l 122 0 l 122 440 l 15 440 l 15 554 l 122 554 l 122 971 l 436 971 q 642 908 560 971 q 765 737 724 846 q 806 486 806 628 q 765 235 806 344 q 642 63 724 125 q 436 0 560 0 m 251 857 l 251 554 l 433 554 l 433 440 l 251 440 l 251 114 l 414 114 q 610 213 550 114 q 671 485 671 313 q 610 758 671 658 q 414 857 550 857 l 251 857 z "},"Ď":{"ha":858,"x_min":106,"x_max":789,"o":"m 419 0 l 106 0 l 106 971 l 419 971 q 625 908 543 971 q 748 737 707 846 q 789 486 789 628 q 748 235 789 344 q 625 63 707 125 q 419 0 543 0 m 235 857 l 235 114 l 397 114 q 594 213 533 114 q 654 485 654 313 q 594 758 654 658 q 397 857 533 857 l 235 857 m 600 1272 l 467 1064 l 336 1064 l 201 1272 l 289 1272 l 401 1139 l 511 1272 l 600 1272 z "},"Đ":{"ha":858,"x_min":15,"x_max":806,"o":"m 436 0 l 122 0 l 122 440 l 15 440 l 15 554 l 122 554 l 122 971 l 436 971 q 642 908 560 971 q 765 737 724 846 q 806 486 806 628 q 765 235 806 344 q 642 63 724 125 q 436 0 560 0 m 251 857 l 251 554 l 433 554 l 433 440 l 251 440 l 251 114 l 414 114 q 610 213 550 114 q 671 485 671 313 q 610 758 671 658 q 414 857 550 857 l 251 857 z "},"E":{"ha":858,"x_min":157,"x_max":749,"o":"m 703 440 l 286 440 l 286 114 l 749 114 l 749 0 l 157 0 l 157 971 l 724 971 l 724 857 l 286 857 l 286 554 l 703 554 l 703 440 z "},"É":{"ha":858,"x_min":157,"x_max":749,"o":"m 703 440 l 286 440 l 286 114 l 749 114 l 749 0 l 157 0 l 157 971 l 724 971 l 724 857 l 286 857 l 286 554 l 703 554 l 703 440 m 372 1065 l 506 1271 l 663 1271 l 456 1065 l 372 1065 z "},"Ě":{"ha":858,"x_min":157,"x_max":749,"o":"m 703 440 l 286 440 l 286 114 l 749 114 l 749 0 l 157 0 l 157 971 l 724 971 l 724 857 l 286 857 l 286 554 l 703 554 l 703 440 m 639 1272 l 506 1064 l 375 1064 l 240 1272 l 328 1272 l 440 1139 l 550 1272 l 639 1272 z "},"Ê":{"ha":858,"x_min":157,"x_max":749,"o":"m 703 440 l 286 440 l 286 114 l 749 114 l 749 0 l 157 0 l 157 971 l 724 971 l 724 857 l 286 857 l 286 554 l 703 554 l 703 440 m 240 1064 l 374 1272 l 504 1272 l 639 1064 l 551 1064 l 439 1197 l 329 1064 l 240 1064 z "},"Ë":{"ha":858,"x_min":157,"x_max":749,"o":"m 703 440 l 286 440 l 286 114 l 749 114 l 749 0 l 157 0 l 157 971 l 724 971 l 724 857 l 286 857 l 286 554 l 703 554 l 703 440 m 256 1236 l 400 1236 l 400 1093 l 256 1093 l 256 1236 m 481 1236 l 625 1236 l 625 1093 l 481 1093 l 481 1236 z "},"Ė":{"ha":858,"x_min":157,"x_max":749,"o":"m 703 440 l 286 440 l 286 114 l 749 114 l 749 0 l 157 0 l 157 971 l 724 971 l 724 857 l 286 857 l 286 554 l 703 554 l 703 440 m 368 1238 l 513 1238 l 513 1093 l 368 1093 l 368 1238 z "},"È":{"ha":858,"x_min":157,"x_max":749,"o":"m 703 440 l 286 440 l 286 114 l 749 114 l 749 0 l 157 0 l 157 971 l 724 971 l 724 857 l 286 857 l 286 554 l 703 554 l 703 440 m 508 1065 l 425 1065 l 218 1271 l 375 1271 l 508 1065 z "},"Ē":{"ha":858,"x_min":157,"x_max":749,"o":"m 703 440 l 286 440 l 286 114 l 749 114 l 749 0 l 157 0 l 157 971 l 724 971 l 724 857 l 286 857 l 286 554 l 703 554 l 703 440 m 250 1217 l 631 1217 l 631 1119 l 250 1119 l 250 1217 z "},"Ę":{"ha":858,"x_min":157,"x_max":749,"o":"m 703 440 l 286 440 l 286 114 l 749 114 l 749 0 l 157 0 l 157 971 l 724 971 l 724 857 l 286 857 l 286 554 l 703 554 l 703 440 m 696 28 l 749 0 q 638 -58 668 -28 q 607 -128 607 -87 q 631 -181 607 -161 q 690 -200 656 -200 q 749 -192 724 -200 l 749 -272 q 708 -282 729 -279 q 668 -285 688 -285 q 557 -248 600 -285 q 514 -156 514 -211 q 553 -51 514 -103 q 696 28 593 0 z "},"F":{"ha":858,"x_min":168,"x_max":767,"o":"m 700 440 l 297 440 l 297 0 l 168 0 l 168 971 l 767 971 l 767 857 l 297 857 l 297 554 l 700 554 l 700 440 z "},"G":{"ha":858,"x_min":58,"x_max":789,"o":"m 451 514 l 786 514 l 786 0 l 692 0 l 681 133 q 583 13 646 51 q 438 -25 519 -25 q 236 35 321 -25 q 105 207 151 94 q 58 479 58 319 q 108 759 58 644 q 245 933 157 874 q 451 993 333 993 q 669 925 579 993 q 789 703 758 857 l 657 703 q 583 841 638 803 q 451 879 528 879 q 258 773 324 879 q 193 486 193 667 q 261 186 193 283 q 440 89 329 89 q 572 126 521 89 q 648 228 624 164 q 672 372 672 293 l 672 400 l 451 400 l 451 514 z "},"Ğ":{"ha":858,"x_min":58,"x_max":789,"o":"m 451 514 l 786 514 l 786 0 l 692 0 l 681 133 q 583 13 646 51 q 438 -25 519 -25 q 236 35 321 -25 q 105 207 151 94 q 58 479 58 319 q 108 759 58 644 q 245 933 157 874 q 451 993 333 993 q 669 925 579 993 q 789 703 758 857 l 657 703 q 583 841 638 803 q 451 879 528 879 q 258 773 324 879 q 193 486 193 667 q 261 186 193 283 q 440 89 329 89 q 572 126 521 89 q 648 228 624 164 q 672 372 672 293 l 672 400 l 451 400 l 451 514 m 243 1260 l 325 1260 q 451 1168 336 1168 q 578 1260 567 1168 l 660 1260 q 598 1117 654 1163 q 451 1072 542 1072 q 306 1117 363 1072 q 243 1260 250 1163 z "},"Ģ":{"ha":858,"x_min":58,"x_max":789,"o":"m 451 514 l 786 514 l 786 0 l 692 0 l 681 133 q 583 13 646 51 q 438 -25 519 -25 q 236 35 321 -25 q 105 207 151 94 q 58 479 58 319 q 108 759 58 644 q 245 933 157 874 q 451 993 333 993 q 669 925 579 993 q 789 703 758 857 l 657 703 q 583 841 638 803 q 451 879 528 879 q 258 773 324 879 q 193 486 193 667 q 261 186 193 283 q 440 89 329 89 q 572 126 521 89 q 648 228 624 164 q 672 372 672 293 l 672 400 l 451 400 l 451 514 m 368 -237 l 368 -104 l 506 -104 l 506 -250 q 469 -336 506 -304 q 381 -368 433 -368 l 368 -368 l 368 -314 l 383 -314 q 432 -297 414 -314 q 450 -253 450 -281 l 450 -237 l 368 -237 z "},"Ġ":{"ha":858,"x_min":58,"x_max":789,"o":"m 451 514 l 786 514 l 786 0 l 692 0 l 681 133 q 583 13 646 51 q 438 -25 519 -25 q 236 35 321 -25 q 105 207 151 94 q 58 479 58 319 q 108 759 58 644 q 245 933 157 874 q 451 993 333 993 q 669 925 579 993 q 789 703 758 857 l 657 703 q 583 841 638 803 q 451 879 528 879 q 258 773 324 879 q 193 486 193 667 q 261 186 193 283 q 440 89 329 89 q 572 126 521 89 q 648 228 624 164 q 672 372 672 293 l 672 400 l 451 400 l 451 514 m 379 1238 l 524 1238 l 524 1093 l 379 1093 l 379 1238 z "},"H":{"ha":858,"x_min":110,"x_max":750,"o":"m 621 0 l 621 440 l 239 440 l 239 0 l 110 0 l 110 971 l 239 971 l 239 554 l 621 554 l 621 971 l 750 971 l 750 0 l 621 0 z "},"Ħ":{"ha":858,"x_min":13,"x_max":847,"o":"m 621 0 l 621 440 l 239 440 l 239 0 l 110 0 l 110 718 l 13 718 l 13 818 l 110 818 l 110 971 l 239 971 l 239 818 l 621 818 l 621 971 l 750 971 l 750 818 l 847 818 l 847 718 l 750 718 l 750 0 l 621 0 m 239 554 l 621 554 l 621 718 l 239 718 l 239 554 z "},"I":{"ha":858,"x_min":158,"x_max":701,"o":"m 158 0 l 158 108 l 364 108 l 364 863 l 158 863 l 158 971 l 701 971 l 701 863 l 494 863 l 494 108 l 701 108 l 701 0 l 158 0 z "},"Ĳ":{"ha":858,"x_min":117,"x_max":740,"o":"m 611 300 l 611 971 l 740 971 l 740 254 q 654 48 740 121 q 426 -25 568 -25 q 202 43 288 -25 q 117 238 117 111 l 117 314 l 249 314 l 249 261 q 292 133 249 182 q 428 83 335 83 q 541 111 501 83 q 596 188 581 139 q 611 300 611 236 m 117 468 l 117 971 l 249 971 l 249 468 l 117 468 z "},"Í":{"ha":858,"x_min":158,"x_max":701,"o":"m 158 0 l 158 108 l 364 108 l 364 863 l 158 863 l 158 971 l 701 971 l 701 863 l 494 863 l 494 108 l 701 108 l 701 0 l 158 0 m 361 1065 l 494 1271 l 651 1271 l 444 1065 l 361 1065 z "},"Î":{"ha":858,"x_min":158,"x_max":701,"o":"m 158 0 l 158 108 l 364 108 l 364 863 l 158 863 l 158 971 l 701 971 l 701 863 l 494 863 l 494 108 l 701 108 l 701 0 l 158 0 m 229 1064 l 363 1272 l 493 1272 l 628 1064 l 540 1064 l 428 1197 l 318 1064 l 229 1064 z "},"Ï":{"ha":858,"x_min":158,"x_max":701,"o":"m 158 0 l 158 108 l 364 108 l 364 863 l 158 863 l 158 971 l 701 971 l 701 863 l 494 863 l 494 108 l 701 108 l 701 0 l 158 0 m 244 1236 l 389 1236 l 389 1093 l 244 1093 l 244 1236 m 469 1236 l 614 1236 l 614 1093 l 469 1093 l 469 1236 z "},"İ":{"ha":858,"x_min":158,"x_max":701,"o":"m 158 0 l 158 108 l 364 108 l 364 863 l 158 863 l 158 971 l 701 971 l 701 863 l 494 863 l 494 108 l 701 108 l 701 0 l 158 0 m 357 1238 l 501 1238 l 501 1093 l 357 1093 l 357 1238 z "},"Ì":{"ha":858,"x_min":158,"x_max":701,"o":"m 158 0 l 158 108 l 364 108 l 364 863 l 158 863 l 158 971 l 701 971 l 701 863 l 494 863 l 494 108 l 701 108 l 701 0 l 158 0 m 497 1065 l 414 1065 l 207 1271 l 364 1271 l 497 1065 z "},"Ī":{"ha":858,"x_min":158,"x_max":701,"o":"m 158 0 l 158 108 l 364 108 l 364 863 l 158 863 l 158 971 l 701 971 l 701 863 l 494 863 l 494 108 l 701 108 l 701 0 l 158 0 m 239 1217 l 619 1217 l 619 1119 l 239 1119 l 239 1217 z "},"Į":{"ha":858,"x_min":158,"x_max":701,"o":"m 158 0 l 158 108 l 364 108 l 364 863 l 158 863 l 158 971 l 701 971 l 701 863 l 494 863 l 494 108 l 701 108 l 701 0 l 158 0 m 479 28 l 532 0 q 421 -58 451 -28 q 390 -128 390 -87 q 415 -181 390 -161 q 474 -200 439 -200 q 532 -192 507 -200 l 532 -272 q 492 -282 513 -279 q 451 -285 471 -285 q 340 -248 383 -285 q 297 -156 297 -211 q 337 -51 297 -103 q 479 28 376 0 z "},"J":{"ha":858,"x_min":110,"x_max":733,"o":"m 604 300 l 604 971 l 733 971 l 733 254 q 647 48 733 121 q 419 -25 561 -25 q 195 43 281 -25 q 110 238 110 111 l 110 342 l 242 342 l 242 261 q 285 133 242 182 q 421 83 328 83 q 534 111 494 83 q 589 188 574 139 q 604 300 604 236 z "},"K":{"ha":858,"x_min":138,"x_max":844,"o":"m 267 0 l 138 0 l 138 971 l 267 971 l 267 529 l 657 971 l 817 971 l 464 575 l 844 0 l 690 0 l 376 481 l 267 360 l 267 0 z "},"Ķ":{"ha":858,"x_min":138,"x_max":844,"o":"m 267 0 l 138 0 l 138 971 l 267 971 l 267 529 l 657 971 l 817 971 l 464 575 l 844 0 l 690 0 l 376 481 l 267 360 l 267 0 m 404 -237 l 404 -104 l 542 -104 l 542 -250 q 506 -336 542 -304 q 417 -368 469 -368 l 404 -368 l 404 -314 l 419 -314 q 468 -297 450 -314 q 486 -253 486 -281 l 486 -237 l 404 -237 z "},"L":{"ha":858,"x_min":172,"x_max":764,"o":"m 172 971 l 301 971 l 301 114 l 764 114 l 764 0 l 172 0 l 172 971 z "},"Ĺ":{"ha":858,"x_min":169,"x_max":764,"o":"m 172 971 l 301 971 l 301 114 l 764 114 l 764 0 l 172 0 l 172 971 m 169 1065 l 303 1271 l 460 1271 l 253 1065 l 169 1065 z "},"Ľ":{"ha":858,"x_min":172,"x_max":764,"o":"m 172 971 l 301 971 l 301 114 l 764 114 l 764 0 l 172 0 l 172 971 m 594 844 l 594 971 l 732 971 l 732 832 q 696 751 732 782 q 607 719 660 719 l 594 719 l 594 774 l 610 774 q 658 790 640 774 q 676 829 676 806 l 676 844 l 594 844 z "},"Ļ":{"ha":858,"x_min":172,"x_max":764,"o":"m 172 971 l 301 971 l 301 114 l 764 114 l 764 0 l 172 0 l 172 971 m 413 -237 l 413 -104 l 550 -104 l 550 -250 q 514 -336 550 -304 q 425 -368 478 -368 l 413 -368 l 413 -314 l 428 -314 q 476 -297 458 -314 q 494 -253 494 -281 l 494 -237 l 413 -237 z "},"Ł":{"ha":858,"x_min":74,"x_max":776,"o":"m 74 282 l 74 389 l 185 463 l 185 971 l 314 971 l 314 547 l 551 704 l 551 599 l 314 442 l 314 114 l 776 114 l 776 0 l 185 0 l 185 356 l 74 282 z "},"M":{"ha":858,"x_min":89,"x_max":769,"o":"m 376 278 l 199 768 l 199 0 l 89 0 l 89 971 l 233 971 l 431 413 l 628 971 l 769 971 l 769 0 l 660 0 l 660 769 l 485 278 l 376 278 z "},"N":{"ha":858,"x_min":106,"x_max":753,"o":"m 633 971 l 753 971 l 753 0 l 608 0 l 226 776 l 225 776 l 225 0 l 106 0 l 106 971 l 246 971 l 632 188 l 633 188 l 633 971 z "},"Ń":{"ha":858,"x_min":106,"x_max":753,"o":"m 633 971 l 753 971 l 753 0 l 608 0 l 226 776 l 225 776 l 225 0 l 106 0 l 106 971 l 246 971 l 632 188 l 633 188 l 633 971 m 361 1065 l 494 1271 l 651 1271 l 444 1065 l 361 1065 z "},"Ň":{"ha":858,"x_min":106,"x_max":753,"o":"m 633 971 l 753 971 l 753 0 l 608 0 l 226 776 l 225 776 l 225 0 l 106 0 l 106 971 l 246 971 l 632 188 l 633 188 l 633 971 m 628 1272 l 494 1064 l 364 1064 l 229 1272 l 317 1272 l 429 1139 l 539 1272 l 628 1272 z "},"Ņ":{"ha":858,"x_min":106,"x_max":753,"o":"m 633 971 l 753 971 l 753 0 l 608 0 l 226 776 l 225 776 l 225 0 l 106 0 l 106 971 l 246 971 l 632 188 l 633 188 l 633 971 m 360 -237 l 360 -104 l 497 -104 l 497 -250 q 461 -336 497 -304 q 372 -368 425 -368 l 360 -368 l 360 -314 l 375 -314 q 424 -297 406 -314 q 442 -253 442 -281 l 442 -237 l 360 -237 z "},"Ñ":{"ha":858,"x_min":106,"x_max":753,"o":"m 633 971 l 753 971 l 753 0 l 608 0 l 226 776 l 225 776 l 225 0 l 106 0 l 106 971 l 246 971 l 632 188 l 633 188 l 633 971 m 567 1239 l 647 1239 q 522 1094 626 1094 q 463 1109 499 1094 q 394 1138 428 1124 q 338 1151 360 1151 q 292 1096 306 1151 l 211 1096 q 331 1239 235 1239 q 391 1226 357 1239 q 458 1199 425 1213 q 515 1185 492 1185 q 567 1239 553 1185 z "},"Ŋ":{"ha":858,"x_min":106,"x_max":753,"o":"m 465 -303 l 465 -200 l 499 -200 q 608 -164 576 -200 q 639 -49 639 -128 l 639 4 l 219 792 l 219 0 l 106 0 l 106 971 l 244 971 l 639 231 l 639 971 l 753 971 l 753 -82 q 689 -247 753 -190 q 503 -303 625 -303 l 465 -303 z "},"O":{"ha":858,"x_min":51,"x_max":807,"o":"m 429 993 q 708 859 608 993 q 807 483 807 725 q 708 108 807 242 q 429 -25 608 -25 q 151 108 250 -25 q 51 483 51 242 q 151 859 51 725 q 429 993 250 993 m 429 879 q 251 774 315 879 q 186 483 186 669 q 251 194 186 299 q 429 89 315 89 q 608 194 544 89 q 672 483 672 299 q 608 774 672 669 q 429 879 544 879 z "},"Ó":{"ha":858,"x_min":51,"x_max":807,"o":"m 429 993 q 708 859 608 993 q 807 483 807 725 q 708 108 807 242 q 429 -25 608 -25 q 151 108 250 -25 q 51 483 51 242 q 151 859 51 725 q 429 993 250 993 m 429 879 q 251 774 315 879 q 186 483 186 669 q 251 194 186 299 q 429 89 315 89 q 608 194 544 89 q 672 483 672 299 q 608 774 672 669 q 429 879 544 879 m 361 1065 l 494 1271 l 651 1271 l 444 1065 l 361 1065 z "},"Ô":{"ha":858,"x_min":51,"x_max":807,"o":"m 429 993 q 708 859 608 993 q 807 483 807 725 q 708 108 807 242 q 429 -25 608 -25 q 151 108 250 -25 q 51 483 51 242 q 151 859 51 725 q 429 993 250 993 m 429 879 q 251 774 315 879 q 186 483 186 669 q 251 194 186 299 q 429 89 315 89 q 608 194 544 89 q 672 483 672 299 q 608 774 672 669 q 429 879 544 879 m 229 1064 l 363 1272 l 493 1272 l 628 1064 l 540 1064 l 428 1197 l 318 1064 l 229 1064 z "},"Ö":{"ha":858,"x_min":51,"x_max":807,"o":"m 429 993 q 708 859 608 993 q 807 483 807 725 q 708 108 807 242 q 429 -25 608 -25 q 151 108 250 -25 q 51 483 51 242 q 151 859 51 725 q 429 993 250 993 m 429 879 q 251 774 315 879 q 186 483 186 669 q 251 194 186 299 q 429 89 315 89 q 608 194 544 89 q 672 483 672 299 q 608 774 672 669 q 429 879 544 879 m 244 1236 l 389 1236 l 389 1093 l 244 1093 l 244 1236 m 469 1236 l 614 1236 l 614 1093 l 469 1093 l 469 1236 z "},"Ò":{"ha":858,"x_min":51,"x_max":807,"o":"m 429 993 q 708 859 608 993 q 807 483 807 725 q 708 108 807 242 q 429 -25 608 -25 q 151 108 250 -25 q 51 483 51 242 q 151 859 51 725 q 429 993 250 993 m 429 879 q 251 774 315 879 q 186 483 186 669 q 251 194 186 299 q 429 89 315 89 q 608 194 544 89 q 672 483 672 299 q 608 774 672 669 q 429 879 544 879 m 497 1065 l 414 1065 l 207 1271 l 364 1271 l 497 1065 z "},"Ő":{"ha":858,"x_min":51,"x_max":807,"o":"m 429 993 q 708 859 608 993 q 807 483 807 725 q 708 108 807 242 q 429 -25 608 -25 q 151 108 250 -25 q 51 483 51 242 q 151 859 51 725 q 429 993 250 993 m 429 879 q 251 774 315 879 q 186 483 186 669 q 251 194 186 299 q 429 89 315 89 q 608 194 544 89 q 672 483 672 299 q 608 774 672 669 q 429 879 544 879 m 250 1068 l 383 1274 l 540 1274 l 333 1068 l 250 1068 m 490 1065 l 624 1271 l 781 1271 l 574 1065 l 490 1065 z "},"Ō":{"ha":858,"x_min":51,"x_max":807,"o":"m 429 993 q 708 859 608 993 q 807 483 807 725 q 708 108 807 242 q 429 -25 608 -25 q 151 108 250 -25 q 51 483 51 242 q 151 859 51 725 q 429 993 250 993 m 429 879 q 251 774 315 879 q 186 483 186 669 q 251 194 186 299 q 429 89 315 89 q 608 194 544 89 q 672 483 672 299 q 608 774 672 669 q 429 879 544 879 m 239 1217 l 619 1217 l 619 1119 l 239 1119 l 239 1217 z "},"Ø":{"ha":858,"x_min":47,"x_max":811,"o":"m 429 993 q 669 903 575 993 l 743 1006 l 811 958 l 724 835 q 807 483 807 703 q 708 108 807 242 q 429 -25 608 -25 q 186 68 281 -25 l 115 -33 l 47 14 l 132 136 q 51 483 51 267 q 151 859 51 725 q 429 993 250 993 m 429 879 q 251 774 315 879 q 186 483 186 669 q 219 260 186 351 l 594 794 q 429 879 532 879 m 672 483 q 638 711 672 618 l 263 176 q 429 89 325 89 q 608 193 544 89 q 672 483 672 297 z "},"Õ":{"ha":858,"x_min":51,"x_max":807,"o":"m 429 993 q 708 859 608 993 q 807 483 807 725 q 708 108 807 242 q 429 -25 608 -25 q 151 108 250 -25 q 51 483 51 242 q 151 859 51 725 q 429 993 250 993 m 429 879 q 251 774 315 879 q 186 483 186 669 q 251 194 186 299 q 429 89 315 89 q 608 194 544 89 q 672 483 672 299 q 608 774 672 669 q 429 879 544 879 m 567 1239 l 647 1239 q 522 1094 626 1094 q 463 1109 499 1094 q 394 1138 428 1124 q 338 1151 360 1151 q 292 1096 306 1151 l 211 1096 q 331 1239 235 1239 q 391 1226 357 1239 q 458 1199 425 1213 q 515 1185 492 1185 q 567 1239 553 1185 z "},"Œ":{"ha":858,"x_min":49,"x_max":840,"o":"m 400 0 q 199 66 276 0 q 85 242 121 132 q 49 486 49 353 q 69 674 49 586 q 135 829 90 763 q 253 933 181 896 q 428 971 325 971 l 815 971 l 815 860 l 544 860 l 544 553 l 794 553 l 794 442 l 544 442 l 544 111 l 840 111 l 840 0 l 400 0 m 415 108 l 425 108 l 425 863 l 415 863 q 269 814 322 863 q 195 681 217 765 q 174 488 174 597 q 195 293 174 379 q 269 158 217 207 q 415 108 322 108 z "},"P":{"ha":858,"x_min":126,"x_max":793,"o":"m 126 0 l 126 971 l 481 971 q 639 938 568 971 q 751 841 710 906 q 793 681 793 776 q 751 520 793 585 q 639 423 710 456 q 481 390 568 390 l 253 390 l 253 0 l 126 0 m 253 500 l 464 500 q 609 549 557 500 q 661 681 661 597 q 609 813 661 764 q 464 861 557 861 l 253 861 l 253 500 z "},"Þ":{"ha":858,"x_min":126,"x_max":793,"o":"m 253 971 l 253 793 l 481 793 q 639 760 568 793 q 751 663 710 728 q 793 503 793 599 q 751 343 793 407 q 639 247 710 279 q 481 214 568 214 l 253 214 l 253 0 l 126 0 l 126 971 l 253 971 m 253 324 l 464 324 q 609 372 557 324 q 661 503 661 419 q 609 635 661 586 q 464 685 557 685 l 253 685 l 253 324 z "},"Q":{"ha":858,"x_min":51,"x_max":807,"o":"m 707 -122 l 601 15 q 429 -25 526 -25 q 151 108 250 -25 q 51 483 51 242 q 151 859 51 725 q 429 993 250 993 q 708 859 608 993 q 807 483 807 725 q 776 247 807 349 q 683 79 744 144 l 790 -60 l 707 -122 m 429 879 q 251 774 315 879 q 186 483 186 669 q 251 194 186 299 q 429 89 315 89 q 528 114 483 89 l 407 272 l 489 335 l 603 186 q 672 483 672 290 q 608 774 672 669 q 429 879 544 879 z "},"R":{"ha":858,"x_min":131,"x_max":810,"o":"m 467 399 l 257 399 l 257 0 l 131 0 l 131 971 l 471 971 q 696 906 611 971 q 781 706 781 840 q 743 563 781 621 q 619 463 706 506 q 699 417 671 442 q 739 349 726 392 q 756 236 751 307 l 760 164 q 771 92 763 129 q 810 32 779 54 l 810 0 l 667 0 q 641 74 651 32 q 631 163 631 115 l 631 224 q 592 354 631 310 q 467 399 553 399 m 257 861 l 257 508 l 446 508 q 594 549 540 508 q 649 692 649 590 q 595 821 649 781 q 446 861 542 861 l 257 861 z "},"Ŕ":{"ha":858,"x_min":131,"x_max":810,"o":"m 467 399 l 257 399 l 257 0 l 131 0 l 131 971 l 471 971 q 696 906 611 971 q 781 706 781 840 q 743 563 781 621 q 619 463 706 506 q 699 417 671 442 q 739 349 726 392 q 756 236 751 307 l 760 164 q 771 92 763 129 q 810 32 779 54 l 810 0 l 667 0 q 641 74 651 32 q 631 163 631 115 l 631 224 q 592 354 631 310 q 467 399 553 399 m 257 861 l 257 508 l 446 508 q 594 549 540 508 q 649 692 649 590 q 595 821 649 781 q 446 861 542 861 l 257 861 m 371 1065 l 504 1271 l 661 1271 l 454 1065 l 371 1065 z "},"Ř":{"ha":858,"x_min":131,"x_max":810,"o":"m 467 399 l 257 399 l 257 0 l 131 0 l 131 971 l 471 971 q 696 906 611 971 q 781 706 781 840 q 743 563 781 621 q 619 463 706 506 q 699 417 671 442 q 739 349 726 392 q 756 236 751 307 l 760 164 q 771 92 763 129 q 810 32 779 54 l 810 0 l 667 0 q 641 74 651 32 q 631 163 631 115 l 631 224 q 592 354 631 310 q 467 399 553 399 m 257 861 l 257 508 l 446 508 q 594 549 540 508 q 649 692 649 590 q 595 821 649 781 q 446 861 542 861 l 257 861 m 638 1272 l 504 1064 l 374 1064 l 239 1272 l 326 1272 l 439 1139 l 549 1272 l 638 1272 z "},"Ŗ":{"ha":858,"x_min":131,"x_max":810,"o":"m 467 399 l 257 399 l 257 0 l 131 0 l 131 971 l 471 971 q 696 906 611 971 q 781 706 781 840 q 743 563 781 621 q 619 463 706 506 q 699 417 671 442 q 739 349 726 392 q 756 236 751 307 l 760 164 q 771 92 763 129 q 810 32 779 54 l 810 0 l 667 0 q 641 74 651 32 q 631 163 631 115 l 631 224 q 592 354 631 310 q 467 399 553 399 m 257 861 l 257 508 l 446 508 q 594 549 540 508 q 649 692 649 590 q 595 821 649 781 q 446 861 542 861 l 257 861 m 388 -237 l 388 -104 l 525 -104 l 525 -250 q 489 -336 525 -304 q 400 -368 453 -368 l 388 -368 l 388 -314 l 403 -314 q 451 -297 433 -314 q 469 -253 469 -281 l 469 -237 l 388 -237 z "},"S":{"ha":858,"x_min":76,"x_max":794,"o":"m 767 690 l 642 690 q 589 828 639 774 q 438 883 539 883 q 285 839 338 883 q 233 729 233 794 q 365 582 233 613 l 564 536 q 736 440 678 510 q 794 276 794 371 q 751 113 794 181 q 630 10 707 46 q 450 -25 553 -25 q 174 65 269 -25 q 76 310 79 154 l 201 310 q 267 151 203 213 q 453 90 331 90 q 613 138 563 90 q 664 258 664 185 q 628 361 664 324 q 521 415 593 399 l 319 463 q 158 552 214 488 q 103 717 103 617 q 144 860 103 799 q 262 958 186 922 q 442 993 338 993 q 616 956 543 993 q 728 853 689 918 q 767 708 767 789 l 767 690 z "},"Ś":{"ha":858,"x_min":76,"x_max":794,"o":"m 767 690 l 642 690 q 589 828 639 774 q 438 883 539 883 q 285 839 338 883 q 233 729 233 794 q 365 582 233 613 l 564 536 q 736 440 678 510 q 794 276 794 371 q 751 113 794 181 q 630 10 707 46 q 450 -25 553 -25 q 174 65 269 -25 q 76 310 79 154 l 201 310 q 267 151 203 213 q 453 90 331 90 q 613 138 563 90 q 664 258 664 185 q 628 361 664 324 q 521 415 593 399 l 319 463 q 158 552 214 488 q 103 717 103 617 q 144 860 103 799 q 262 958 186 922 q 442 993 338 993 q 616 956 543 993 q 728 853 689 918 q 767 708 767 789 l 767 690 m 374 1065 l 507 1271 l 664 1271 l 457 1065 l 374 1065 z "},"Š":{"ha":858,"x_min":76,"x_max":794,"o":"m 767 690 l 642 690 q 589 828 639 774 q 438 883 539 883 q 285 839 338 883 q 233 729 233 794 q 365 582 233 613 l 564 536 q 736 440 678 510 q 794 276 794 371 q 751 113 794 181 q 630 10 707 46 q 450 -25 553 -25 q 174 65 269 -25 q 76 310 79 154 l 201 310 q 267 151 203 213 q 453 90 331 90 q 613 138 563 90 q 664 258 664 185 q 628 361 664 324 q 521 415 593 399 l 319 463 q 158 552 214 488 q 103 717 103 617 q 144 860 103 799 q 262 958 186 922 q 442 993 338 993 q 616 956 543 993 q 728 853 689 918 q 767 708 767 789 l 767 690 m 640 1272 l 507 1064 l 376 1064 l 242 1272 l 329 1272 l 442 1139 l 551 1272 l 640 1272 z "},"Ş":{"ha":858,"x_min":76,"x_max":794,"o":"m 767 690 l 642 690 q 589 828 639 774 q 438 883 539 883 q 285 839 338 883 q 233 729 233 794 q 365 582 233 613 l 564 536 q 736 440 678 510 q 794 276 794 371 q 751 113 794 181 q 630 10 707 46 q 450 -25 553 -25 q 174 65 269 -25 q 76 310 79 154 l 201 310 q 267 151 203 213 q 453 90 331 90 q 613 138 563 90 q 664 258 664 185 q 628 361 664 324 q 521 415 593 399 l 319 463 q 158 552 214 488 q 103 717 103 617 q 144 860 103 799 q 262 958 186 922 q 442 993 338 993 q 616 956 543 993 q 728 853 689 918 q 767 708 767 789 l 767 690 m 389 -117 l 454 17 l 513 17 l 461 -87 q 499 -83 479 -83 q 569 -106 539 -83 q 600 -178 600 -129 q 558 -265 600 -233 q 444 -297 515 -297 q 383 -288 414 -297 q 328 -265 351 -279 l 353 -204 q 399 -221 374 -214 q 450 -228 425 -228 q 496 -217 475 -228 q 517 -179 517 -207 q 502 -150 517 -160 q 467 -140 488 -140 q 417 -156 440 -140 l 389 -117 z "},"Ș":{"ha":858,"x_min":76,"x_max":794,"o":"m 767 690 l 642 690 q 589 828 639 774 q 438 883 539 883 q 285 839 338 883 q 233 729 233 794 q 365 582 233 613 l 564 536 q 736 440 678 510 q 794 276 794 371 q 751 113 794 181 q 630 10 707 46 q 450 -25 553 -25 q 174 65 269 -25 q 76 310 79 154 l 201 310 q 267 151 203 213 q 453 90 331 90 q 613 138 563 90 q 664 258 664 185 q 628 361 664 324 q 521 415 593 399 l 319 463 q 158 552 214 488 q 103 717 103 617 q 144 860 103 799 q 262 958 186 922 q 442 993 338 993 q 616 956 543 993 q 728 853 689 918 q 767 708 767 789 l 767 690 m 381 -237 l 381 -104 l 518 -104 l 518 -250 q 482 -336 518 -304 q 393 -368 446 -368 l 381 -368 l 381 -314 l 396 -314 q 444 -297 426 -314 q 463 -253 463 -281 l 463 -237 l 381 -237 z "},"ẞ":{"ha":858,"x_min":113,"x_max":828,"o":"m 828 286 q 769 98 828 171 q 605 -1 710 25 q 361 -1 500 -28 l 361 100 q 620 120 538 74 q 703 290 703 167 q 676 385 703 342 q 579 449 649 428 q 383 454 510 471 l 383 556 l 619 860 l 238 860 l 238 0 l 113 0 l 113 971 l 763 971 l 763 854 l 535 560 q 750 481 672 557 q 828 286 828 404 z "},"T":{"ha":858,"x_min":74,"x_max":785,"o":"m 785 857 l 494 857 l 494 0 l 365 0 l 365 857 l 74 857 l 74 971 l 785 971 l 785 857 z "},"Ť":{"ha":858,"x_min":74,"x_max":785,"o":"m 785 857 l 494 857 l 494 0 l 365 0 l 365 857 l 74 857 l 74 971 l 785 971 l 785 857 m 628 1272 l 494 1064 l 364 1064 l 229 1272 l 317 1272 l 429 1139 l 539 1272 l 628 1272 z "},"Ț":{"ha":858,"x_min":74,"x_max":785,"o":"m 785 857 l 494 857 l 494 0 l 365 0 l 365 857 l 74 857 l 74 971 l 785 971 l 785 857 m 360 -237 l 360 -104 l 497 -104 l 497 -250 q 461 -336 497 -304 q 372 -368 425 -368 l 360 -368 l 360 -314 l 375 -314 q 424 -297 406 -314 q 442 -253 442 -281 l 442 -237 l 360 -237 z "},"U":{"ha":858,"x_min":92,"x_max":767,"o":"m 638 304 l 638 971 l 767 971 l 767 286 q 720 106 767 174 q 597 6 674 38 q 428 -25 519 -25 q 257 7 333 -25 q 136 108 181 39 q 92 286 92 176 l 92 971 l 221 971 l 221 304 q 249 173 221 219 q 325 108 278 126 q 428 89 372 89 q 532 108 485 89 q 608 174 579 128 q 638 304 638 221 z "},"Ú":{"ha":858,"x_min":92,"x_max":767,"o":"m 638 304 l 638 971 l 767 971 l 767 286 q 720 106 767 174 q 597 6 674 38 q 428 -25 519 -25 q 257 7 333 -25 q 136 108 181 39 q 92 286 92 176 l 92 971 l 221 971 l 221 304 q 249 173 221 219 q 325 108 278 126 q 428 89 372 89 q 532 108 485 89 q 608 174 579 128 q 638 304 638 221 m 361 1065 l 494 1271 l 651 1271 l 444 1065 l 361 1065 z "},"Ŭ":{"ha":858,"x_min":92,"x_max":767,"o":"m 638 304 l 638 971 l 767 971 l 767 286 q 720 106 767 174 q 597 6 674 38 q 428 -25 519 -25 q 257 7 333 -25 q 136 108 181 39 q 92 286 92 176 l 92 971 l 221 971 l 221 304 q 249 173 221 219 q 325 108 278 126 q 428 89 372 89 q 532 108 485 89 q 608 174 579 128 q 638 304 638 221 m 221 1260 l 303 1260 q 429 1168 314 1168 q 556 1260 544 1168 l 638 1260 q 576 1117 632 1163 q 429 1072 519 1072 q 284 1117 340 1072 q 221 1260 228 1163 z "},"Û":{"ha":858,"x_min":92,"x_max":767,"o":"m 638 304 l 638 971 l 767 971 l 767 286 q 720 106 767 174 q 597 6 674 38 q 428 -25 519 -25 q 257 7 333 -25 q 136 108 181 39 q 92 286 92 176 l 92 971 l 221 971 l 221 304 q 249 173 221 219 q 325 108 278 126 q 428 89 372 89 q 532 108 485 89 q 608 174 579 128 q 638 304 638 221 m 229 1064 l 363 1272 l 493 1272 l 628 1064 l 540 1064 l 428 1197 l 318 1064 l 229 1064 z "},"Ü":{"ha":858,"x_min":92,"x_max":767,"o":"m 638 304 l 638 971 l 767 971 l 767 286 q 720 106 767 174 q 597 6 674 38 q 428 -25 519 -25 q 257 7 333 -25 q 136 108 181 39 q 92 286 92 176 l 92 971 l 221 971 l 221 304 q 249 173 221 219 q 325 108 278 126 q 428 89 372 89 q 532 108 485 89 q 608 174 579 128 q 638 304 638 221 m 244 1236 l 389 1236 l 389 1093 l 244 1093 l 244 1236 m 469 1236 l 614 1236 l 614 1093 l 469 1093 l 469 1236 z "},"Ù":{"ha":858,"x_min":92,"x_max":767,"o":"m 638 304 l 638 971 l 767 971 l 767 286 q 720 106 767 174 q 597 6 674 38 q 428 -25 519 -25 q 257 7 333 -25 q 136 108 181 39 q 92 286 92 176 l 92 971 l 221 971 l 221 304 q 249 173 221 219 q 325 108 278 126 q 428 89 372 89 q 532 108 485 89 q 608 174 579 128 q 638 304 638 221 m 497 1065 l 414 1065 l 207 1271 l 364 1271 l 497 1065 z "},"Ű":{"ha":858,"x_min":92,"x_max":781,"o":"m 638 304 l 638 971 l 767 971 l 767 286 q 720 106 767 174 q 597 6 674 38 q 428 -25 519 -25 q 257 7 333 -25 q 136 108 181 39 q 92 286 92 176 l 92 971 l 221 971 l 221 304 q 249 173 221 219 q 325 108 278 126 q 428 89 372 89 q 532 108 485 89 q 608 174 579 128 q 638 304 638 221 m 250 1068 l 383 1274 l 540 1274 l 333 1068 l 250 1068 m 490 1065 l 624 1271 l 781 1271 l 574 1065 l 490 1065 z "},"Ū":{"ha":858,"x_min":92,"x_max":767,"o":"m 638 304 l 638 971 l 767 971 l 767 286 q 720 106 767 174 q 597 6 674 38 q 428 -25 519 -25 q 257 7 333 -25 q 136 108 181 39 q 92 286 92 176 l 92 971 l 221 971 l 221 304 q 249 173 221 219 q 325 108 278 126 q 428 89 372 89 q 532 108 485 89 q 608 174 579 128 q 638 304 638 221 m 239 1217 l 619 1217 l 619 1119 l 239 1119 l 239 1217 z "},"Ų":{"ha":858,"x_min":92,"x_max":767,"o":"m 638 304 l 638 971 l 767 971 l 767 286 q 720 106 767 174 q 597 6 674 38 q 428 -25 519 -25 q 257 7 333 -25 q 136 108 181 39 q 92 286 92 176 l 92 971 l 221 971 l 221 304 q 249 173 221 219 q 325 108 278 126 q 428 89 372 89 q 532 108 485 89 q 608 174 579 128 q 638 304 638 221 m 529 28 l 582 0 q 471 -58 501 -28 q 440 -128 440 -87 q 465 -181 440 -161 q 524 -200 489 -200 q 582 -192 557 -200 l 582 -272 q 542 -282 563 -279 q 501 -285 521 -285 q 390 -248 433 -285 q 347 -156 347 -211 q 387 -51 347 -103 q 529 28 426 0 z "},"Ů":{"ha":858,"x_min":92,"x_max":767,"o":"m 638 304 l 638 971 l 767 971 l 767 286 q 720 106 767 174 q 597 6 674 38 q 428 -25 519 -25 q 257 7 333 -25 q 136 108 181 39 q 92 286 92 176 l 92 971 l 221 971 l 221 304 q 249 173 221 219 q 325 108 278 126 q 428 89 372 89 q 532 108 485 89 q 608 174 579 128 q 638 304 638 221 m 429 1290 q 516 1255 481 1290 q 551 1168 551 1219 q 516 1081 551 1117 q 429 1046 481 1046 q 342 1081 378 1046 q 307 1168 307 1117 q 342 1255 307 1219 q 429 1290 378 1290 m 429 1231 q 385 1213 401 1231 q 369 1168 369 1194 q 385 1124 369 1142 q 429 1106 401 1106 q 473 1124 457 1106 q 489 1168 489 1142 q 473 1213 489 1194 q 429 1231 457 1231 z "},"V":{"ha":858,"x_min":42,"x_max":817,"o":"m 817 971 l 504 0 l 354 0 l 42 971 l 178 971 l 431 133 l 682 971 l 817 971 z "},"W":{"ha":858,"x_min":32,"x_max":826,"o":"m 826 971 l 689 0 l 549 0 l 429 861 l 428 861 l 310 0 l 169 0 l 32 971 l 151 971 l 246 197 l 247 197 l 347 971 l 513 971 l 613 185 l 614 185 l 714 971 l 826 971 z "},"Ẃ":{"ha":858,"x_min":32,"x_max":826,"o":"m 826 971 l 689 0 l 549 0 l 429 861 l 428 861 l 310 0 l 169 0 l 32 971 l 151 971 l 246 197 l 247 197 l 347 971 l 513 971 l 613 185 l 614 185 l 714 971 l 826 971 m 361 1065 l 494 1271 l 651 1271 l 444 1065 l 361 1065 z "},"Ŵ":{"ha":858,"x_min":32,"x_max":826,"o":"m 826 971 l 689 0 l 549 0 l 429 861 l 428 861 l 310 0 l 169 0 l 32 971 l 151 971 l 246 197 l 247 197 l 347 971 l 513 971 l 613 185 l 614 185 l 714 971 l 826 971 m 229 1064 l 363 1272 l 493 1272 l 628 1064 l 540 1064 l 428 1197 l 318 1064 l 229 1064 z "},"Ẅ":{"ha":858,"x_min":32,"x_max":826,"o":"m 826 971 l 689 0 l 549 0 l 429 861 l 428 861 l 310 0 l 169 0 l 32 971 l 151 971 l 246 197 l 247 197 l 347 971 l 513 971 l 613 185 l 614 185 l 714 971 l 826 971 m 244 1236 l 389 1236 l 389 1093 l 244 1093 l 244 1236 m 469 1236 l 614 1236 l 614 1093 l 469 1093 l 469 1236 z "},"Ẁ":{"ha":858,"x_min":32,"x_max":826,"o":"m 826 971 l 689 0 l 549 0 l 429 861 l 428 861 l 310 0 l 169 0 l 32 971 l 151 971 l 246 197 l 247 197 l 347 971 l 513 971 l 613 185 l 614 185 l 714 971 l 826 971 m 497 1065 l 414 1065 l 207 1271 l 364 1271 l 497 1065 z "},"X":{"ha":858,"x_min":35,"x_max":824,"o":"m 672 0 l 428 393 l 183 0 l 35 0 l 360 497 l 57 971 l 208 971 l 435 606 l 660 971 l 807 971 l 503 501 l 824 0 l 672 0 z "},"Y":{"ha":858,"x_min":29,"x_max":829,"o":"m 829 971 l 499 381 l 499 0 l 369 0 l 369 381 l 29 971 l 176 971 l 436 504 l 685 971 l 829 971 z "},"Ý":{"ha":858,"x_min":29,"x_max":829,"o":"m 829 971 l 499 381 l 499 0 l 369 0 l 369 381 l 29 971 l 176 971 l 436 504 l 685 971 l 829 971 m 361 1065 l 494 1271 l 651 1271 l 444 1065 l 361 1065 z "},"Ŷ":{"ha":858,"x_min":29,"x_max":829,"o":"m 829 971 l 499 381 l 499 0 l 369 0 l 369 381 l 29 971 l 176 971 l 436 504 l 685 971 l 829 971 m 229 1064 l 363 1272 l 493 1272 l 628 1064 l 540 1064 l 428 1197 l 318 1064 l 229 1064 z "},"Ÿ":{"ha":858,"x_min":29,"x_max":829,"o":"m 829 971 l 499 381 l 499 0 l 369 0 l 369 381 l 29 971 l 176 971 l 436 504 l 685 971 l 829 971 m 244 1236 l 389 1236 l 389 1093 l 244 1093 l 244 1236 m 469 1236 l 614 1236 l 614 1093 l 469 1093 l 469 1236 z "},"Ỳ":{"ha":858,"x_min":29,"x_max":829,"o":"m 829 971 l 499 381 l 499 0 l 369 0 l 369 381 l 29 971 l 176 971 l 436 504 l 685 971 l 829 971 m 497 1065 l 414 1065 l 207 1271 l 364 1271 l 497 1065 z "},"Z":{"ha":858,"x_min":97,"x_max":743,"o":"m 136 971 l 740 971 l 740 854 l 249 114 l 743 114 l 743 0 l 97 0 l 97 114 l 594 857 l 136 857 l 136 971 z "},"Ź":{"ha":858,"x_min":97,"x_max":743,"o":"m 136 971 l 740 971 l 740 854 l 249 114 l 743 114 l 743 0 l 97 0 l 97 114 l 594 857 l 136 857 l 136 971 m 371 1065 l 504 1271 l 661 1271 l 454 1065 l 371 1065 z "},"Ž":{"ha":858,"x_min":97,"x_max":743,"o":"m 136 971 l 740 971 l 740 854 l 249 114 l 743 114 l 743 0 l 97 0 l 97 114 l 594 857 l 136 857 l 136 971 m 638 1272 l 504 1064 l 374 1064 l 239 1272 l 326 1272 l 439 1139 l 549 1272 l 638 1272 z "},"Ż":{"ha":858,"x_min":97,"x_max":743,"o":"m 136 971 l 740 971 l 740 854 l 249 114 l 743 114 l 743 0 l 97 0 l 97 114 l 594 857 l 136 857 l 136 971 m 367 1238 l 511 1238 l 511 1093 l 367 1093 l 367 1238 z "},"a":{"ha":858,"x_min":107,"x_max":790,"o":"m 790 76 l 790 -11 q 721 -24 747 -24 q 592 86 604 -24 q 472 1 531 26 q 344 -25 414 -25 q 173 31 239 -25 q 107 189 107 88 q 139 309 107 264 q 217 377 171 354 q 306 407 264 400 q 365 416 325 410 q 467 431 406 422 q 563 457 536 440 q 590 508 590 474 l 590 533 q 424 642 590 642 q 302 610 343 642 q 254 513 261 579 l 138 513 q 220 694 140 639 q 429 749 300 749 q 633 698 564 749 q 703 550 703 647 l 703 131 q 765 74 703 74 q 790 76 776 74 m 590 253 l 590 368 q 501 342 554 351 q 401 326 447 332 q 273 289 321 317 q 225 192 225 261 q 265 107 225 138 q 374 76 304 76 q 474 99 425 76 q 557 163 524 122 q 590 253 590 203 z "},"á":{"ha":858,"x_min":107,"x_max":790,"o":"m 790 76 l 790 -11 q 721 -24 747 -24 q 592 86 604 -24 q 472 1 531 26 q 344 -25 414 -25 q 173 31 239 -25 q 107 189 107 88 q 139 309 107 264 q 217 377 171 354 q 306 407 264 400 q 365 416 325 410 q 467 431 406 422 q 563 457 536 440 q 590 508 590 474 l 590 533 q 424 642 590 642 q 302 610 343 642 q 254 513 261 579 l 138 513 q 220 694 140 639 q 429 749 300 749 q 633 698 564 749 q 703 550 703 647 l 703 131 q 765 74 703 74 q 790 76 776 74 m 590 253 l 590 368 q 501 342 554 351 q 401 326 447 332 q 273 289 321 317 q 225 192 225 261 q 265 107 225 138 q 374 76 304 76 q 474 99 425 76 q 557 163 524 122 q 590 253 590 203 m 361 822 l 494 1028 l 651 1028 l 444 822 l 361 822 z "},"ă":{"ha":858,"x_min":107,"x_max":790,"o":"m 790 76 l 790 -11 q 721 -24 747 -24 q 592 86 604 -24 q 472 1 531 26 q 344 -25 414 -25 q 173 31 239 -25 q 107 189 107 88 q 139 309 107 264 q 217 377 171 354 q 306 407 264 400 q 365 416 325 410 q 467 431 406 422 q 563 457 536 440 q 590 508 590 474 l 590 533 q 424 642 590 642 q 302 610 343 642 q 254 513 261 579 l 138 513 q 220 694 140 639 q 429 749 300 749 q 633 698 564 749 q 703 550 703 647 l 703 131 q 765 74 703 74 q 790 76 776 74 m 590 253 l 590 368 q 501 342 554 351 q 401 326 447 332 q 273 289 321 317 q 225 192 225 261 q 265 107 225 138 q 374 76 304 76 q 474 99 425 76 q 557 163 524 122 q 590 253 590 203 m 221 1017 l 303 1017 q 429 925 314 925 q 556 1017 544 925 l 638 1017 q 576 874 632 919 q 429 829 519 829 q 284 874 340 829 q 221 1017 228 919 z "},"ǎ":{"ha":858,"x_min":107,"x_max":790,"o":"m 790 76 l 790 -11 q 721 -24 747 -24 q 592 86 604 -24 q 472 1 531 26 q 344 -25 414 -25 q 173 31 239 -25 q 107 189 107 88 q 139 309 107 264 q 217 377 171 354 q 306 407 264 400 q 365 416 325 410 q 467 431 406 422 q 563 457 536 440 q 590 508 590 474 l 590 533 q 424 642 590 642 q 302 610 343 642 q 254 513 261 579 l 138 513 q 220 694 140 639 q 429 749 300 749 q 633 698 564 749 q 703 550 703 647 l 703 131 q 765 74 703 74 q 790 76 776 74 m 590 253 l 590 368 q 501 342 554 351 q 401 326 447 332 q 273 289 321 317 q 225 192 225 261 q 265 107 225 138 q 374 76 304 76 q 474 99 425 76 q 557 163 524 122 q 590 253 590 203 m 628 1029 l 494 821 l 364 821 l 229 1029 l 317 1029 l 429 896 l 539 1029 l 628 1029 z "},"â":{"ha":858,"x_min":107,"x_max":790,"o":"m 790 76 l 790 -11 q 721 -24 747 -24 q 592 86 604 -24 q 472 1 531 26 q 344 -25 414 -25 q 173 31 239 -25 q 107 189 107 88 q 139 309 107 264 q 217 377 171 354 q 306 407 264 400 q 365 416 325 410 q 467 431 406 422 q 563 457 536 440 q 590 508 590 474 l 590 533 q 424 642 590 642 q 302 610 343 642 q 254 513 261 579 l 138 513 q 220 694 140 639 q 429 749 300 749 q 633 698 564 749 q 703 550 703 647 l 703 131 q 765 74 703 74 q 790 76 776 74 m 590 253 l 590 368 q 501 342 554 351 q 401 326 447 332 q 273 289 321 317 q 225 192 225 261 q 265 107 225 138 q 374 76 304 76 q 474 99 425 76 q 557 163 524 122 q 590 253 590 203 m 229 821 l 363 1029 l 493 1029 l 628 821 l 540 821 l 428 954 l 318 821 l 229 821 z "},"ä":{"ha":858,"x_min":107,"x_max":790,"o":"m 790 76 l 790 -11 q 721 -24 747 -24 q 592 86 604 -24 q 472 1 531 26 q 344 -25 414 -25 q 173 31 239 -25 q 107 189 107 88 q 139 309 107 264 q 217 377 171 354 q 306 407 264 400 q 365 416 325 410 q 467 431 406 422 q 563 457 536 440 q 590 508 590 474 l 590 533 q 424 642 590 642 q 302 610 343 642 q 254 513 261 579 l 138 513 q 220 694 140 639 q 429 749 300 749 q 633 698 564 749 q 703 550 703 647 l 703 131 q 765 74 703 74 q 790 76 776 74 m 590 253 l 590 368 q 501 342 554 351 q 401 326 447 332 q 273 289 321 317 q 225 192 225 261 q 265 107 225 138 q 374 76 304 76 q 474 99 425 76 q 557 163 524 122 q 590 253 590 203 m 244 993 l 389 993 l 389 850 l 244 850 l 244 993 m 469 993 l 614 993 l 614 850 l 469 850 l 469 993 z "},"à":{"ha":858,"x_min":107,"x_max":790,"o":"m 790 76 l 790 -11 q 721 -24 747 -24 q 592 86 604 -24 q 472 1 531 26 q 344 -25 414 -25 q 173 31 239 -25 q 107 189 107 88 q 139 309 107 264 q 217 377 171 354 q 306 407 264 400 q 365 416 325 410 q 467 431 406 422 q 563 457 536 440 q 590 508 590 474 l 590 533 q 424 642 590 642 q 302 610 343 642 q 254 513 261 579 l 138 513 q 220 694 140 639 q 429 749 300 749 q 633 698 564 749 q 703 550 703 647 l 703 131 q 765 74 703 74 q 790 76 776 74 m 590 253 l 590 368 q 501 342 554 351 q 401 326 447 332 q 273 289 321 317 q 225 192 225 261 q 265 107 225 138 q 374 76 304 76 q 474 99 425 76 q 557 163 524 122 q 590 253 590 203 m 497 822 l 414 822 l 207 1028 l 364 1028 l 497 822 z "},"ā":{"ha":858,"x_min":107,"x_max":790,"o":"m 790 76 l 790 -11 q 721 -24 747 -24 q 592 86 604 -24 q 472 1 531 26 q 344 -25 414 -25 q 173 31 239 -25 q 107 189 107 88 q 139 309 107 264 q 217 377 171 354 q 306 407 264 400 q 365 416 325 410 q 467 431 406 422 q 563 457 536 440 q 590 508 590 474 l 590 533 q 424 642 590 642 q 302 610 343 642 q 254 513 261 579 l 138 513 q 220 694 140 639 q 429 749 300 749 q 633 698 564 749 q 703 550 703 647 l 703 131 q 765 74 703 74 q 790 76 776 74 m 590 253 l 590 368 q 501 342 554 351 q 401 326 447 332 q 273 289 321 317 q 225 192 225 261 q 265 107 225 138 q 374 76 304 76 q 474 99 425 76 q 557 163 524 122 q 590 253 590 203 m 239 974 l 619 974 l 619 876 l 239 876 l 239 974 z "},"ą":{"ha":858,"x_min":107,"x_max":790,"o":"m 790 76 l 790 -11 q 721 -24 747 -24 q 592 86 604 -24 q 472 1 531 26 q 344 -25 414 -25 q 173 31 239 -25 q 107 189 107 88 q 139 309 107 264 q 217 377 171 354 q 306 407 264 400 q 365 416 325 410 q 467 431 406 422 q 563 457 536 440 q 590 508 590 474 l 590 533 q 424 642 590 642 q 302 610 343 642 q 254 513 261 579 l 138 513 q 220 694 140 639 q 429 749 300 749 q 633 698 564 749 q 703 550 703 647 l 703 131 q 765 74 703 74 q 790 76 776 74 m 590 253 l 590 368 q 501 342 554 351 q 401 326 447 332 q 273 289 321 317 q 225 192 225 261 q 265 107 225 138 q 374 76 304 76 q 474 99 425 76 q 557 163 524 122 q 590 253 590 203 m 738 17 l 790 -11 q 679 -69 710 -39 q 649 -139 649 -99 q 673 -192 649 -172 q 732 -211 697 -211 q 790 -203 765 -211 l 790 -283 q 750 -293 771 -290 q 710 -296 729 -296 q 599 -259 642 -296 q 556 -167 556 -222 q 595 -62 556 -114 q 738 17 635 -11 z "},"å":{"ha":858,"x_min":107,"x_max":790,"o":"m 790 76 l 790 -11 q 721 -24 747 -24 q 592 86 604 -24 q 472 1 531 26 q 344 -25 414 -25 q 173 31 239 -25 q 107 189 107 88 q 139 309 107 264 q 217 377 171 354 q 306 407 264 400 q 365 416 325 410 q 467 431 406 422 q 563 457 536 440 q 590 508 590 474 l 590 533 q 424 642 590 642 q 302 610 343 642 q 254 513 261 579 l 138 513 q 220 694 140 639 q 429 749 300 749 q 633 698 564 749 q 703 550 703 647 l 703 131 q 765 74 703 74 q 790 76 776 74 m 590 253 l 590 368 q 501 342 554 351 q 401 326 447 332 q 273 289 321 317 q 225 192 225 261 q 265 107 225 138 q 374 76 304 76 q 474 99 425 76 q 557 163 524 122 q 590 253 590 203 m 429 1047 q 516 1012 481 1047 q 551 925 551 976 q 516 838 551 874 q 429 803 481 803 q 342 838 378 803 q 307 925 307 874 q 342 1012 307 976 q 429 1047 378 1047 m 429 988 q 385 969 401 988 q 369 925 369 951 q 385 881 369 899 q 429 863 401 863 q 473 881 457 863 q 489 925 489 899 q 473 969 489 951 q 429 988 457 988 z "},"ã":{"ha":858,"x_min":107,"x_max":790,"o":"m 790 76 l 790 -11 q 721 -24 747 -24 q 592 86 604 -24 q 472 1 531 26 q 344 -25 414 -25 q 173 31 239 -25 q 107 189 107 88 q 139 309 107 264 q 217 377 171 354 q 306 407 264 400 q 365 416 325 410 q 467 431 406 422 q 563 457 536 440 q 590 508 590 474 l 590 533 q 424 642 590 642 q 302 610 343 642 q 254 513 261 579 l 138 513 q 220 694 140 639 q 429 749 300 749 q 633 698 564 749 q 703 550 703 647 l 703 131 q 765 74 703 74 q 790 76 776 74 m 590 253 l 590 368 q 501 342 554 351 q 401 326 447 332 q 273 289 321 317 q 225 192 225 261 q 265 107 225 138 q 374 76 304 76 q 474 99 425 76 q 557 163 524 122 q 590 253 590 203 m 567 996 l 647 996 q 522 851 626 851 q 463 866 499 851 q 394 894 428 881 q 338 908 360 908 q 292 853 306 908 l 211 853 q 331 996 235 996 q 391 983 357 996 q 458 956 425 969 q 515 942 492 942 q 567 996 553 942 z "},"æ":{"ha":858,"x_min":25,"x_max":856,"o":"m 838 211 q 769 37 829 99 q 622 -25 708 -25 q 504 13 560 -25 q 424 111 449 51 q 353 15 401 56 q 225 -25 306 -25 q 129 -1 175 -25 q 54 71 83 22 q 25 192 25 119 q 65 330 25 272 q 188 404 104 388 l 256 418 q 349 451 324 432 q 374 508 374 469 l 374 536 q 349 620 374 590 q 264 650 325 650 q 149 538 157 650 l 40 538 q 105 691 43 633 q 264 749 167 749 q 378 722 329 749 q 446 638 428 696 q 516 718 469 686 q 622 750 563 750 q 756 699 703 750 q 833 554 810 647 q 844 335 856 461 l 482 335 q 518 141 481 208 q 625 74 556 74 q 733 211 718 74 l 838 211 m 617 650 q 522 592 557 650 q 483 426 488 533 l 746 426 q 711 594 746 538 q 617 650 676 650 m 374 219 l 374 372 q 313 344 350 354 q 231 322 275 335 q 160 285 185 310 q 135 199 135 260 q 164 106 135 139 q 247 72 193 72 q 337 110 300 72 q 374 219 374 147 z "},"b":{"ha":858,"x_min":121,"x_max":772,"o":"m 121 0 l 121 1013 l 236 1013 l 236 631 q 461 750 315 750 q 637 699 568 750 q 739 563 706 649 q 772 371 772 476 q 736 169 772 260 q 630 27 700 79 q 456 -25 560 -25 q 225 100 307 -25 l 225 0 l 121 0 m 440 642 q 322 600 367 642 q 256 494 276 558 q 236 358 236 429 q 256 227 236 290 q 322 124 276 164 q 440 83 367 83 q 560 122 514 83 q 630 224 607 161 q 653 358 653 288 q 630 499 653 435 q 560 602 607 563 q 440 642 513 642 z "},"c":{"ha":858,"x_min":117,"x_max":749,"o":"m 740 488 l 624 488 q 568 601 614 560 q 446 643 522 643 q 325 601 371 643 q 258 494 279 560 q 238 356 238 428 q 260 221 238 283 q 329 120 282 158 q 449 82 376 82 q 632 254 603 82 l 749 254 q 659 49 738 124 q 446 -25 581 -25 q 267 26 340 -25 q 155 163 193 76 q 117 356 117 249 q 154 554 117 465 q 265 697 192 643 q 447 750 339 750 q 659 676 581 750 q 740 488 738 603 z "},"ć":{"ha":858,"x_min":117,"x_max":749,"o":"m 740 488 l 624 488 q 568 601 614 560 q 446 643 522 643 q 325 601 371 643 q 258 494 279 560 q 238 356 238 428 q 260 221 238 283 q 329 120 282 158 q 449 82 376 82 q 632 254 603 82 l 749 254 q 659 49 738 124 q 446 -25 581 -25 q 267 26 340 -25 q 155 163 193 76 q 117 356 117 249 q 154 554 117 465 q 265 697 192 643 q 447 750 339 750 q 659 676 581 750 q 740 488 738 603 m 378 822 l 511 1028 l 668 1028 l 461 822 l 378 822 z "},"č":{"ha":858,"x_min":117,"x_max":749,"o":"m 740 488 l 624 488 q 568 601 614 560 q 446 643 522 643 q 325 601 371 643 q 258 494 279 560 q 238 356 238 428 q 260 221 238 283 q 329 120 282 158 q 449 82 376 82 q 632 254 603 82 l 749 254 q 659 49 738 124 q 446 -25 581 -25 q 267 26 340 -25 q 155 163 193 76 q 117 356 117 249 q 154 554 117 465 q 265 697 192 643 q 447 750 339 750 q 659 676 581 750 q 740 488 738 603 m 644 1029 l 511 821 l 381 821 l 246 1029 l 333 1029 l 446 896 l 556 1029 l 644 1029 z "},"ç":{"ha":858,"x_min":117,"x_max":749,"o":"m 740 488 l 624 488 q 568 601 614 560 q 446 643 522 643 q 325 601 371 643 q 258 494 279 560 q 238 356 238 428 q 260 221 238 283 q 329 120 282 158 q 449 82 376 82 q 632 254 603 82 l 749 254 q 659 49 738 124 q 446 -25 581 -25 q 267 26 340 -25 q 155 163 193 76 q 117 356 117 249 q 154 554 117 465 q 265 697 192 643 q 447 750 339 750 q 659 676 581 750 q 740 488 738 603 m 385 -117 l 450 17 l 508 17 l 457 -87 q 494 -83 475 -83 q 565 -106 535 -83 q 596 -178 596 -129 q 553 -265 596 -233 q 440 -297 511 -297 q 378 -288 410 -297 q 324 -265 347 -279 l 349 -204 q 395 -221 369 -214 q 446 -228 421 -228 q 492 -217 471 -228 q 513 -179 513 -207 q 498 -150 513 -160 q 463 -140 483 -140 q 413 -156 436 -140 l 385 -117 z "},"ċ":{"ha":858,"x_min":117,"x_max":749,"o":"m 740 488 l 624 488 q 568 601 614 560 q 446 643 522 643 q 325 601 371 643 q 258 494 279 560 q 238 356 238 428 q 260 221 238 283 q 329 120 282 158 q 449 82 376 82 q 632 254 603 82 l 749 254 q 659 49 738 124 q 446 -25 581 -25 q 267 26 340 -25 q 155 163 193 76 q 117 356 117 249 q 154 554 117 465 q 265 697 192 643 q 447 750 339 750 q 659 676 581 750 q 740 488 738 603 m 374 994 l 518 994 l 518 850 l 374 850 l 374 994 z "},"d":{"ha":858,"x_min":86,"x_max":738,"o":"m 622 1013 l 738 1013 l 738 0 l 635 0 l 635 103 q 403 -25 547 -25 q 225 27 296 -25 q 120 169 154 79 q 86 371 86 260 q 121 562 86 476 q 226 699 156 647 q 399 750 296 750 q 622 638 547 750 l 622 1013 m 418 642 q 303 605 350 642 q 231 505 256 568 q 207 363 207 442 q 229 225 207 289 q 298 122 251 161 q 419 83 344 83 q 538 124 493 83 q 602 228 582 165 q 622 358 622 292 q 601 497 622 432 q 536 601 581 561 q 418 642 492 642 z "},"ð":{"ha":858,"x_min":100,"x_max":758,"o":"m 236 774 l 206 843 l 331 900 q 275 935 303 919 q 219 967 247 951 l 264 1046 q 342 1009 296 1033 q 438 950 388 985 l 607 1028 l 638 958 l 506 897 q 628 763 569 840 q 722 585 686 685 q 758 360 758 485 q 722 160 758 247 q 612 24 685 74 q 429 -25 539 -25 q 247 24 321 -25 q 137 161 174 74 q 100 363 100 249 q 138 553 100 472 q 247 680 176 635 q 418 725 318 725 q 551 675 497 725 q 483 769 522 726 q 401 849 444 813 l 236 774 m 429 622 q 311 585 357 622 q 243 485 265 547 q 221 349 221 422 q 242 218 221 279 q 310 119 264 157 q 429 82 356 82 q 549 119 503 82 q 616 217 594 157 q 638 344 638 276 q 617 481 638 418 q 550 583 596 544 q 429 622 504 622 z "},"ď":{"ha":858,"x_min":17,"x_max":899,"o":"m 553 1013 l 668 1013 l 668 0 l 565 0 l 565 103 q 333 -25 478 -25 q 156 27 226 -25 q 51 169 85 79 q 17 371 17 260 q 51 562 17 476 q 156 699 86 647 q 329 750 226 750 q 553 638 478 750 l 553 1013 m 349 642 q 233 605 281 642 q 162 505 186 568 q 138 363 138 442 q 160 225 138 289 q 228 122 182 161 q 350 83 275 83 q 468 124 424 83 q 533 228 513 165 q 553 358 553 292 q 532 497 553 432 q 467 601 511 561 q 349 642 422 642 m 761 886 l 761 1013 l 899 1013 l 899 874 q 863 792 899 824 q 774 761 826 761 l 761 761 l 761 815 l 776 815 q 825 831 807 815 q 843 871 843 847 l 843 886 l 761 886 z "},"đ":{"ha":858,"x_min":86,"x_max":839,"o":"m 407 918 l 622 918 l 622 1013 l 738 1013 l 738 918 l 839 918 l 839 824 l 738 824 l 738 0 l 635 0 l 635 103 q 403 -25 547 -25 q 225 27 296 -25 q 120 169 154 79 q 86 371 86 260 q 121 562 86 476 q 226 699 156 647 q 399 750 296 750 q 622 638 547 750 l 622 824 l 407 824 l 407 918 m 418 642 q 303 605 350 642 q 231 505 256 568 q 207 363 207 442 q 229 225 207 289 q 298 122 251 161 q 419 83 344 83 q 538 124 493 83 q 602 228 582 165 q 622 358 622 292 q 601 497 622 432 q 536 601 581 561 q 418 642 492 642 z "},"e":{"ha":858,"x_min":104,"x_max":761,"o":"m 746 225 q 645 43 728 111 q 435 -25 563 -25 q 251 24 325 -25 q 141 160 178 74 q 104 357 104 246 q 146 567 104 479 q 263 702 188 654 q 438 750 338 750 q 622 697 550 750 q 727 550 693 644 q 761 329 761 456 l 225 329 q 281 152 228 222 q 439 82 333 82 q 629 225 582 82 l 746 225 m 436 643 q 288 579 339 643 q 228 424 236 515 l 636 424 q 612 534 636 485 q 543 613 588 583 q 436 643 499 643 z "},"é":{"ha":858,"x_min":104,"x_max":761,"o":"m 746 225 q 645 43 728 111 q 435 -25 563 -25 q 251 24 325 -25 q 141 160 178 74 q 104 357 104 246 q 146 567 104 479 q 263 702 188 654 q 438 750 338 750 q 622 697 550 750 q 727 550 693 644 q 761 329 761 456 l 225 329 q 281 152 228 222 q 439 82 333 82 q 629 225 582 82 l 746 225 m 436 643 q 288 579 339 643 q 228 424 236 515 l 636 424 q 612 534 636 485 q 543 613 588 583 q 436 643 499 643 m 367 822 l 500 1028 l 657 1028 l 450 822 l 367 822 z "},"ě":{"ha":858,"x_min":104,"x_max":761,"o":"m 746 225 q 645 43 728 111 q 435 -25 563 -25 q 251 24 325 -25 q 141 160 178 74 q 104 357 104 246 q 146 567 104 479 q 263 702 188 654 q 438 750 338 750 q 622 697 550 750 q 727 550 693 644 q 761 329 761 456 l 225 329 q 281 152 228 222 q 439 82 333 82 q 629 225 582 82 l 746 225 m 436 643 q 288 579 339 643 q 228 424 236 515 l 636 424 q 612 534 636 485 q 543 613 588 583 q 436 643 499 643 m 633 1029 l 500 821 l 369 821 l 235 1029 l 322 1029 l 435 896 l 544 1029 l 633 1029 z "},"ê":{"ha":858,"x_min":104,"x_max":761,"o":"m 746 225 q 645 43 728 111 q 435 -25 563 -25 q 251 24 325 -25 q 141 160 178 74 q 104 357 104 246 q 146 567 104 479 q 263 702 188 654 q 438 750 338 750 q 622 697 550 750 q 727 550 693 644 q 761 329 761 456 l 225 329 q 281 152 228 222 q 439 82 333 82 q 629 225 582 82 l 746 225 m 436 643 q 288 579 339 643 q 228 424 236 515 l 636 424 q 612 534 636 485 q 543 613 588 583 q 436 643 499 643 m 235 821 l 368 1029 l 499 1029 l 633 821 l 546 821 l 433 954 l 324 821 l 235 821 z "},"ë":{"ha":858,"x_min":104,"x_max":761,"o":"m 746 225 q 645 43 728 111 q 435 -25 563 -25 q 251 24 325 -25 q 141 160 178 74 q 104 357 104 246 q 146 567 104 479 q 263 702 188 654 q 438 750 338 750 q 622 697 550 750 q 727 550 693 644 q 761 329 761 456 l 225 329 q 281 152 228 222 q 439 82 333 82 q 629 225 582 82 l 746 225 m 436 643 q 288 579 339 643 q 228 424 236 515 l 636 424 q 612 534 636 485 q 543 613 588 583 q 436 643 499 643 m 250 993 l 394 993 l 394 850 l 250 850 l 250 993 m 475 993 l 619 993 l 619 850 l 475 850 l 475 993 z "},"ė":{"ha":858,"x_min":104,"x_max":761,"o":"m 746 225 q 645 43 728 111 q 435 -25 563 -25 q 251 24 325 -25 q 141 160 178 74 q 104 357 104 246 q 146 567 104 479 q 263 702 188 654 q 438 750 338 750 q 622 697 550 750 q 727 550 693 644 q 761 329 761 456 l 225 329 q 281 152 228 222 q 439 82 333 82 q 629 225 582 82 l 746 225 m 436 643 q 288 579 339 643 q 228 424 236 515 l 636 424 q 612 534 636 485 q 543 613 588 583 q 436 643 499 643 m 363 994 l 507 994 l 507 850 l 363 850 l 363 994 z "},"è":{"ha":858,"x_min":104,"x_max":761,"o":"m 746 225 q 645 43 728 111 q 435 -25 563 -25 q 251 24 325 -25 q 141 160 178 74 q 104 357 104 246 q 146 567 104 479 q 263 702 188 654 q 438 750 338 750 q 622 697 550 750 q 727 550 693 644 q 761 329 761 456 l 225 329 q 281 152 228 222 q 439 82 333 82 q 629 225 582 82 l 746 225 m 436 643 q 288 579 339 643 q 228 424 236 515 l 636 424 q 612 534 636 485 q 543 613 588 583 q 436 643 499 643 m 503 822 l 419 822 l 213 1028 l 369 1028 l 503 822 z "},"ē":{"ha":858,"x_min":104,"x_max":761,"o":"m 746 225 q 645 43 728 111 q 435 -25 563 -25 q 251 24 325 -25 q 141 160 178 74 q 104 357 104 246 q 146 567 104 479 q 263 702 188 654 q 438 750 338 750 q 622 697 550 750 q 727 550 693 644 q 761 329 761 456 l 225 329 q 281 152 228 222 q 439 82 333 82 q 629 225 582 82 l 746 225 m 436 643 q 288 579 339 643 q 228 424 236 515 l 636 424 q 612 534 636 485 q 543 613 588 583 q 436 643 499 643 m 244 974 l 625 974 l 625 876 l 244 876 l 244 974 z "},"ę":{"ha":858,"x_min":104,"x_max":761,"o":"m 746 225 q 645 43 728 111 q 435 -25 563 -25 q 251 24 325 -25 q 141 160 178 74 q 104 357 104 246 q 146 567 104 479 q 263 702 188 654 q 438 750 338 750 q 622 697 550 750 q 727 550 693 644 q 761 329 761 456 l 225 329 q 281 152 228 222 q 439 82 333 82 q 629 225 582 82 l 746 225 m 436 643 q 288 579 339 643 q 228 424 236 515 l 636 424 q 612 534 636 485 q 543 613 588 583 q 436 643 499 643 m 519 28 l 572 0 q 461 -58 492 -28 q 431 -128 431 -87 q 455 -181 431 -161 q 514 -200 479 -200 q 572 -192 547 -200 l 572 -272 q 532 -282 553 -279 q 492 -285 511 -285 q 381 -248 424 -285 q 338 -156 338 -211 q 377 -51 338 -103 q 519 28 417 0 z "},"f":{"ha":858,"x_min":124,"x_max":763,"o":"m 475 728 l 763 728 l 763 633 l 475 633 l 475 0 l 360 0 l 360 633 l 124 633 l 124 728 l 360 728 l 360 808 q 427 974 360 922 q 628 1026 494 1026 q 692 1025 660 1026 q 761 1018 725 1024 l 761 918 q 703 923 732 921 q 656 925 675 925 q 515 899 556 925 q 475 799 475 872 l 475 728 z "},"g":{"ha":858,"x_min":86,"x_max":738,"o":"m 411 -303 q 211 -251 293 -303 q 114 -83 129 -199 l 235 -83 q 414 -206 260 -206 q 572 -145 524 -206 q 619 61 619 -85 l 619 103 q 531 7 588 39 q 403 -25 475 -25 q 225 26 296 -25 q 120 167 154 78 q 86 367 86 256 q 121 560 86 474 q 226 699 156 647 q 399 750 296 750 q 622 638 547 750 l 622 728 l 738 728 l 738 118 q 713 -112 738 -33 q 606 -255 682 -207 q 411 -303 529 -303 m 419 83 q 538 124 493 83 q 602 228 582 165 q 622 358 622 292 q 601 497 622 432 q 536 601 581 561 q 418 642 492 642 q 303 605 350 642 q 231 505 256 568 q 207 363 207 442 q 229 225 207 289 q 298 122 251 161 q 419 83 344 83 z "},"ğ":{"ha":858,"x_min":86,"x_max":738,"o":"m 411 -303 q 211 -251 293 -303 q 114 -83 129 -199 l 235 -83 q 414 -206 260 -206 q 572 -145 524 -206 q 619 61 619 -85 l 619 103 q 531 7 588 39 q 403 -25 475 -25 q 225 26 296 -25 q 120 167 154 78 q 86 367 86 256 q 121 560 86 474 q 226 699 156 647 q 399 750 296 750 q 622 638 547 750 l 622 728 l 738 728 l 738 118 q 713 -112 738 -33 q 606 -255 682 -207 q 411 -303 529 -303 m 419 83 q 538 124 493 83 q 602 228 582 165 q 622 358 622 292 q 601 497 622 432 q 536 601 581 561 q 418 642 492 642 q 303 605 350 642 q 231 505 256 568 q 207 363 207 442 q 229 225 207 289 q 298 122 251 161 q 419 83 344 83 m 221 1017 l 303 1017 q 429 925 314 925 q 556 1017 544 925 l 638 1017 q 576 874 632 919 q 429 829 519 829 q 284 874 340 829 q 221 1017 228 919 z "},"ģ":{"ha":858,"x_min":86,"x_max":738,"o":"m 411 -303 q 211 -251 293 -303 q 114 -83 129 -199 l 235 -83 q 414 -206 260 -206 q 572 -145 524 -206 q 619 61 619 -85 l 619 103 q 531 7 588 39 q 403 -25 475 -25 q 225 26 296 -25 q 120 167 154 78 q 86 367 86 256 q 121 560 86 474 q 226 699 156 647 q 399 750 296 750 q 622 638 547 750 l 622 728 l 738 728 l 738 118 q 713 -112 738 -33 q 606 -255 682 -207 q 411 -303 529 -303 m 419 83 q 538 124 493 83 q 602 228 582 165 q 622 358 622 292 q 601 497 622 432 q 536 601 581 561 q 418 642 492 642 q 303 605 350 642 q 231 505 256 568 q 207 363 207 442 q 229 225 207 289 q 298 122 251 161 q 419 83 344 83 m 497 965 l 497 832 l 360 832 l 360 978 q 397 1064 360 1032 q 485 1096 433 1096 l 497 1096 l 497 1042 l 482 1042 q 433 1025 451 1042 q 415 981 415 1008 l 415 965 l 497 965 z "},"ġ":{"ha":858,"x_min":86,"x_max":738,"o":"m 411 -303 q 211 -251 293 -303 q 114 -83 129 -199 l 235 -83 q 414 -206 260 -206 q 572 -145 524 -206 q 619 61 619 -85 l 619 103 q 531 7 588 39 q 403 -25 475 -25 q 225 26 296 -25 q 120 167 154 78 q 86 367 86 256 q 121 560 86 474 q 226 699 156 647 q 399 750 296 750 q 622 638 547 750 l 622 728 l 738 728 l 738 118 q 713 -112 738 -33 q 606 -255 682 -207 q 411 -303 529 -303 m 419 83 q 538 124 493 83 q 602 228 582 165 q 622 358 622 292 q 601 497 622 432 q 536 601 581 561 q 418 642 492 642 q 303 605 350 642 q 231 505 256 568 q 207 363 207 442 q 229 225 207 289 q 298 122 251 161 q 419 83 344 83 m 357 994 l 501 994 l 501 850 l 357 850 l 357 994 z "},"h":{"ha":858,"x_min":140,"x_max":719,"o":"m 140 0 l 140 1013 l 256 1013 l 256 619 q 349 713 294 676 q 489 749 403 749 q 605 727 553 749 q 688 662 657 706 q 719 550 719 618 l 719 0 l 604 0 l 604 504 q 560 613 604 578 q 454 647 515 647 q 344 614 389 647 q 278 526 300 581 q 256 410 256 472 l 256 0 l 140 0 z "},"ħ":{"ha":858,"x_min":19,"x_max":719,"o":"m 140 0 l 140 824 l 19 824 l 19 918 l 140 918 l 140 1013 l 256 1013 l 256 918 l 451 918 l 451 824 l 256 824 l 256 619 q 349 713 294 676 q 489 749 403 749 q 605 727 553 749 q 688 662 657 706 q 719 550 719 618 l 719 0 l 604 0 l 604 504 q 560 613 604 578 q 454 647 515 647 q 344 614 389 647 q 278 526 300 581 q 256 410 256 472 l 256 0 l 140 0 z "},"i":{"ha":858,"x_min":135,"x_max":722,"o":"m 372 832 l 372 971 l 511 971 l 511 832 l 372 832 m 499 728 l 499 94 l 722 94 l 722 0 l 135 0 l 135 94 l 385 94 l 385 633 l 135 633 l 135 728 l 499 728 z "},"ı":{"ha":858,"x_min":135,"x_max":722,"o":"m 499 728 l 499 94 l 722 94 l 722 0 l 135 0 l 135 94 l 385 94 l 385 633 l 135 633 l 135 728 l 499 728 z "},"í":{"ha":858,"x_min":135,"x_max":722,"o":"m 499 728 l 499 94 l 722 94 l 722 0 l 135 0 l 135 94 l 385 94 l 385 633 l 135 633 l 135 728 l 499 728 m 361 822 l 494 1028 l 651 1028 l 444 822 l 361 822 z "},"î":{"ha":858,"x_min":135,"x_max":722,"o":"m 499 728 l 499 94 l 722 94 l 722 0 l 135 0 l 135 94 l 385 94 l 385 633 l 135 633 l 135 728 l 499 728 m 229 821 l 363 1029 l 493 1029 l 628 821 l 540 821 l 428 954 l 318 821 l 229 821 z "},"ï":{"ha":858,"x_min":135,"x_max":722,"o":"m 499 728 l 499 94 l 722 94 l 722 0 l 135 0 l 135 94 l 385 94 l 385 633 l 135 633 l 135 728 l 499 728 m 244 993 l 389 993 l 389 850 l 244 850 l 244 993 m 469 993 l 614 993 l 614 850 l 469 850 l 469 993 z "},"ì":{"ha":858,"x_min":135,"x_max":722,"o":"m 499 728 l 499 94 l 722 94 l 722 0 l 135 0 l 135 94 l 385 94 l 385 633 l 135 633 l 135 728 l 499 728 m 497 822 l 414 822 l 207 1028 l 364 1028 l 497 822 z "},"ĳ":{"ha":858,"x_min":172,"x_max":686,"o":"m 172 832 l 172 971 l 311 971 l 311 832 l 172 832 m 547 832 l 547 971 l 686 971 l 686 832 l 547 832 m 299 728 l 299 0 l 185 0 l 185 728 l 299 728 m 558 -49 l 558 728 l 674 728 l 674 -76 q 610 -243 674 -183 q 426 -303 546 -303 q 367 -300 396 -303 q 313 -292 338 -297 l 314 -192 q 368 -199 339 -197 q 421 -200 397 -200 q 527 -165 496 -200 q 558 -49 558 -129 z "},"ī":{"ha":858,"x_min":135,"x_max":722,"o":"m 499 728 l 499 94 l 722 94 l 722 0 l 135 0 l 135 94 l 385 94 l 385 633 l 135 633 l 135 728 l 499 728 m 239 974 l 619 974 l 619 876 l 239 876 l 239 974 z "},"į":{"ha":858,"x_min":135,"x_max":722,"o":"m 499 728 l 499 94 l 722 94 l 722 0 l 135 0 l 135 94 l 385 94 l 385 633 l 135 633 l 135 728 l 499 728 m 357 994 l 501 994 l 501 850 l 357 850 l 357 994 m 488 28 l 540 0 q 429 -58 460 -28 q 399 -128 399 -87 q 423 -181 399 -161 q 482 -200 447 -200 q 540 -192 515 -200 l 540 -272 q 500 -282 521 -279 q 460 -285 479 -285 q 349 -248 392 -285 q 306 -156 306 -211 q 345 -51 306 -103 q 488 28 385 0 z "},"j":{"ha":858,"x_min":142,"x_max":589,"o":"m 450 832 l 450 971 l 589 971 l 589 832 l 450 832 m 461 -49 l 461 633 l 169 633 l 169 728 l 576 728 l 576 -76 q 510 -243 576 -183 q 315 -303 443 -303 q 224 -299 268 -303 q 142 -286 179 -296 l 142 -185 q 228 -197 185 -193 q 310 -200 272 -200 q 426 -165 392 -200 q 461 -49 461 -129 z "},"ȷ":{"ha":858,"x_min":142,"x_max":576,"o":"m 461 -49 l 461 633 l 169 633 l 169 728 l 576 728 l 576 -76 q 510 -243 576 -183 q 315 -303 443 -303 q 224 -299 268 -303 q 142 -286 179 -296 l 142 -185 q 228 -197 185 -193 q 310 -200 272 -200 q 426 -165 392 -200 q 461 -49 461 -129 z "},"k":{"ha":858,"x_min":190,"x_max":807,"o":"m 304 0 l 190 0 l 190 1013 l 304 1013 l 304 424 l 617 728 l 764 728 l 501 468 l 807 0 l 669 0 l 415 392 l 304 283 l 304 0 z "},"ķ":{"ha":858,"x_min":190,"x_max":807,"o":"m 304 0 l 190 0 l 190 1013 l 304 1013 l 304 424 l 617 728 l 764 728 l 501 468 l 807 0 l 669 0 l 415 392 l 304 283 l 304 0 m 424 -237 l 424 -104 l 561 -104 l 561 -250 q 525 -336 561 -304 q 436 -368 489 -368 l 424 -368 l 424 -314 l 439 -314 q 488 -297 469 -314 q 506 -253 506 -281 l 506 -237 l 424 -237 z "},"l":{"ha":858,"x_min":163,"x_max":750,"o":"m 526 1013 l 526 94 l 750 94 l 750 0 l 163 0 l 163 94 l 414 94 l 414 918 l 163 918 l 163 1013 l 526 1013 z "},"ĺ":{"ha":858,"x_min":163,"x_max":750,"o":"m 526 1013 l 526 94 l 750 94 l 750 0 l 163 0 l 163 94 l 414 94 l 414 918 l 163 918 l 163 1013 l 526 1013 m 403 1107 l 536 1313 l 693 1313 l 486 1107 l 403 1107 z "},"ľ":{"ha":858,"x_min":163,"x_max":789,"o":"m 526 1013 l 526 94 l 750 94 l 750 0 l 163 0 l 163 94 l 414 94 l 414 918 l 163 918 l 163 1013 l 526 1013 m 651 886 l 651 1013 l 789 1013 l 789 874 q 753 792 789 824 q 664 761 717 761 l 651 761 l 651 815 l 667 815 q 715 831 697 815 q 733 871 733 847 l 733 886 l 651 886 z "},"ļ":{"ha":858,"x_min":163,"x_max":750,"o":"m 526 1013 l 526 94 l 750 94 l 750 0 l 163 0 l 163 94 l 414 94 l 414 918 l 163 918 l 163 1013 l 526 1013 m 388 -237 l 388 -104 l 525 -104 l 525 -250 q 489 -336 525 -304 q 400 -368 453 -368 l 388 -368 l 388 -314 l 403 -314 q 451 -297 433 -314 q 469 -253 469 -281 l 469 -237 l 388 -237 z "},"ł":{"ha":858,"x_min":163,"x_max":750,"o":"m 163 376 l 414 542 l 414 918 l 163 918 l 163 1013 l 526 1013 l 526 617 l 750 764 l 750 669 l 526 522 l 526 94 l 750 94 l 750 0 l 163 0 l 163 94 l 414 94 l 414 447 l 163 282 l 163 376 z "},"m":{"ha":858,"x_min":54,"x_max":804,"o":"m 54 0 l 54 728 l 163 728 l 163 653 q 228 716 186 688 q 329 744 271 744 q 422 719 382 744 q 478 647 461 693 q 543 714 500 683 q 647 744 586 744 q 760 703 715 744 q 804 593 804 663 l 804 0 l 690 0 l 690 569 q 668 628 690 608 q 610 647 646 647 q 519 615 551 647 q 486 525 486 582 l 486 0 l 372 0 l 372 569 q 350 628 372 608 q 292 647 328 647 q 201 615 233 647 q 168 525 168 582 l 168 0 l 54 0 z "},"n":{"ha":858,"x_min":140,"x_max":719,"o":"m 140 0 l 140 728 l 247 728 l 247 607 q 347 711 290 674 q 489 749 403 749 q 605 727 553 749 q 688 662 657 706 q 719 550 719 618 l 719 0 l 604 0 l 604 504 q 560 613 604 578 q 454 647 515 647 q 344 614 389 647 q 278 526 300 581 q 256 410 256 472 l 256 0 l 140 0 z "},"ń":{"ha":858,"x_min":140,"x_max":719,"o":"m 140 0 l 140 728 l 247 728 l 247 607 q 347 711 290 674 q 489 749 403 749 q 605 727 553 749 q 688 662 657 706 q 719 550 719 618 l 719 0 l 604 0 l 604 504 q 560 613 604 578 q 454 647 515 647 q 344 614 389 647 q 278 526 300 581 q 256 410 256 472 l 256 0 l 140 0 m 379 822 l 513 1028 l 669 1028 l 463 822 l 379 822 z "},"ň":{"ha":858,"x_min":140,"x_max":719,"o":"m 140 0 l 140 728 l 247 728 l 247 607 q 347 711 290 674 q 489 749 403 749 q 605 727 553 749 q 688 662 657 706 q 719 550 719 618 l 719 0 l 604 0 l 604 504 q 560 613 604 578 q 454 647 515 647 q 344 614 389 647 q 278 526 300 581 q 256 410 256 472 l 256 0 l 140 0 m 646 1029 l 513 821 l 382 821 l 247 1029 l 335 1029 l 447 896 l 557 1029 l 646 1029 z "},"ņ":{"ha":858,"x_min":140,"x_max":719,"o":"m 140 0 l 140 728 l 247 728 l 247 607 q 347 711 290 674 q 489 749 403 749 q 605 727 553 749 q 688 662 657 706 q 719 550 719 618 l 719 0 l 604 0 l 604 504 q 560 613 604 578 q 454 647 515 647 q 344 614 389 647 q 278 526 300 581 q 256 410 256 472 l 256 0 l 140 0 m 372 -237 l 372 -104 l 510 -104 l 510 -250 q 474 -336 510 -304 q 385 -368 438 -368 l 372 -368 l 372 -314 l 388 -314 q 436 -297 418 -314 q 454 -253 454 -281 l 454 -237 l 372 -237 z "},"ñ":{"ha":858,"x_min":140,"x_max":719,"o":"m 140 0 l 140 728 l 247 728 l 247 607 q 347 711 290 674 q 489 749 403 749 q 605 727 553 749 q 688 662 657 706 q 719 550 719 618 l 719 0 l 604 0 l 604 504 q 560 613 604 578 q 454 647 515 647 q 344 614 389 647 q 278 526 300 581 q 256 410 256 472 l 256 0 l 140 0 m 585 996 l 665 996 q 540 851 644 851 q 481 866 517 851 q 412 894 446 881 q 356 908 378 908 q 310 853 324 908 l 229 853 q 349 996 253 996 q 409 983 375 996 q 476 956 443 969 q 533 942 510 942 q 585 996 571 942 z "},"ŋ":{"ha":858,"x_min":140,"x_max":719,"o":"m 140 0 l 140 728 l 247 728 l 247 607 q 347 711 290 674 q 489 749 403 749 q 605 727 553 749 q 688 662 657 706 q 719 550 719 618 l 719 -82 q 656 -247 719 -190 q 469 -303 592 -303 l 432 -303 l 432 -200 l 465 -200 q 574 -164 543 -200 q 604 -49 604 -128 l 604 504 q 560 613 604 578 q 454 647 515 647 q 344 614 389 647 q 278 526 300 581 q 256 410 256 472 l 256 0 l 140 0 z "},"o":{"ha":858,"x_min":100,"x_max":758,"o":"m 429 750 q 615 699 542 750 q 723 561 688 649 q 758 363 758 474 q 723 165 758 253 q 615 26 688 76 q 429 -25 542 -25 q 244 26 318 -25 q 135 165 171 76 q 100 363 100 253 q 135 561 100 474 q 244 699 171 649 q 429 750 318 750 m 429 643 q 310 604 356 643 q 242 501 264 565 q 221 363 221 438 q 242 224 221 289 q 310 121 264 160 q 429 82 356 82 q 549 121 503 82 q 616 224 594 160 q 638 363 638 289 q 616 501 638 438 q 549 604 594 565 q 429 643 503 643 z "},"ó":{"ha":858,"x_min":100,"x_max":758,"o":"m 429 750 q 615 699 542 750 q 723 561 688 649 q 758 363 758 474 q 723 165 758 253 q 615 26 688 76 q 429 -25 542 -25 q 244 26 318 -25 q 135 165 171 76 q 100 363 100 253 q 135 561 100 474 q 244 699 171 649 q 429 750 318 750 m 429 643 q 310 604 356 643 q 242 501 264 565 q 221 363 221 438 q 242 224 221 289 q 310 121 264 160 q 429 82 356 82 q 549 121 503 82 q 616 224 594 160 q 638 363 638 289 q 616 501 638 438 q 549 604 594 565 q 429 643 503 643 m 361 822 l 494 1028 l 651 1028 l 444 822 l 361 822 z "},"ô":{"ha":858,"x_min":100,"x_max":758,"o":"m 429 750 q 615 699 542 750 q 723 561 688 649 q 758 363 758 474 q 723 165 758 253 q 615 26 688 76 q 429 -25 542 -25 q 244 26 318 -25 q 135 165 171 76 q 100 363 100 253 q 135 561 100 474 q 244 699 171 649 q 429 750 318 750 m 429 643 q 310 604 356 643 q 242 501 264 565 q 221 363 221 438 q 242 224 221 289 q 310 121 264 160 q 429 82 356 82 q 549 121 503 82 q 616 224 594 160 q 638 363 638 289 q 616 501 638 438 q 549 604 594 565 q 429 643 503 643 m 229 821 l 363 1029 l 493 1029 l 628 821 l 540 821 l 428 954 l 318 821 l 229 821 z "},"ö":{"ha":858,"x_min":100,"x_max":758,"o":"m 429 750 q 615 699 542 750 q 723 561 688 649 q 758 363 758 474 q 723 165 758 253 q 615 26 688 76 q 429 -25 542 -25 q 244 26 318 -25 q 135 165 171 76 q 100 363 100 253 q 135 561 100 474 q 244 699 171 649 q 429 750 318 750 m 429 643 q 310 604 356 643 q 242 501 264 565 q 221 363 221 438 q 242 224 221 289 q 310 121 264 160 q 429 82 356 82 q 549 121 503 82 q 616 224 594 160 q 638 363 638 289 q 616 501 638 438 q 549 604 594 565 q 429 643 503 643 m 244 993 l 389 993 l 389 850 l 244 850 l 244 993 m 469 993 l 614 993 l 614 850 l 469 850 l 469 993 z "},"ò":{"ha":858,"x_min":100,"x_max":758,"o":"m 429 750 q 615 699 542 750 q 723 561 688 649 q 758 363 758 474 q 723 165 758 253 q 615 26 688 76 q 429 -25 542 -25 q 244 26 318 -25 q 135 165 171 76 q 100 363 100 253 q 135 561 100 474 q 244 699 171 649 q 429 750 318 750 m 429 643 q 310 604 356 643 q 242 501 264 565 q 221 363 221 438 q 242 224 221 289 q 310 121 264 160 q 429 82 356 82 q 549 121 503 82 q 616 224 594 160 q 638 363 638 289 q 616 501 638 438 q 549 604 594 565 q 429 643 503 643 m 497 822 l 414 822 l 207 1028 l 364 1028 l 497 822 z "},"ő":{"ha":858,"x_min":100,"x_max":781,"o":"m 429 750 q 615 699 542 750 q 723 561 688 649 q 758 363 758 474 q 723 165 758 253 q 615 26 688 76 q 429 -25 542 -25 q 244 26 318 -25 q 135 165 171 76 q 100 363 100 253 q 135 561 100 474 q 244 699 171 649 q 429 750 318 750 m 429 643 q 310 604 356 643 q 242 501 264 565 q 221 363 221 438 q 242 224 221 289 q 310 121 264 160 q 429 82 356 82 q 549 121 503 82 q 616 224 594 160 q 638 363 638 289 q 616 501 638 438 q 549 604 594 565 q 429 643 503 643 m 250 825 l 383 1031 l 540 1031 l 333 825 l 250 825 m 490 822 l 624 1028 l 781 1028 l 574 822 l 490 822 z "},"ō":{"ha":858,"x_min":100,"x_max":758,"o":"m 429 750 q 615 699 542 750 q 723 561 688 649 q 758 363 758 474 q 723 165 758 253 q 615 26 688 76 q 429 -25 542 -25 q 244 26 318 -25 q 135 165 171 76 q 100 363 100 253 q 135 561 100 474 q 244 699 171 649 q 429 750 318 750 m 429 643 q 310 604 356 643 q 242 501 264 565 q 221 363 221 438 q 242 224 221 289 q 310 121 264 160 q 429 82 356 82 q 549 121 503 82 q 616 224 594 160 q 638 363 638 289 q 616 501 638 438 q 549 604 594 565 q 429 643 503 643 m 239 974 l 619 974 l 619 876 l 239 876 l 239 974 z "},"ø":{"ha":858,"x_min":100,"x_max":758,"o":"m 158 -26 l 103 18 l 169 100 q 117 218 135 151 q 100 363 100 285 q 135 561 100 474 q 244 699 171 649 q 429 750 318 750 q 549 731 496 750 q 640 678 601 713 l 701 753 l 757 708 l 689 625 q 741 507 724 574 q 758 363 758 440 q 723 165 758 253 q 615 26 688 76 q 429 -25 542 -25 q 310 -6 363 -25 q 218 47 257 13 l 158 -26 m 429 643 q 310 604 356 643 q 242 501 264 565 q 221 363 221 438 q 228 276 221 318 q 251 200 236 235 l 567 586 q 508 628 542 613 q 429 643 474 643 m 638 363 q 630 448 638 407 q 607 525 622 489 l 292 138 q 351 97 317 113 q 429 82 385 82 q 549 121 503 82 q 616 224 594 160 q 638 363 638 289 z "},"õ":{"ha":858,"x_min":100,"x_max":758,"o":"m 429 750 q 615 699 542 750 q 723 561 688 649 q 758 363 758 474 q 723 165 758 253 q 615 26 688 76 q 429 -25 542 -25 q 244 26 318 -25 q 135 165 171 76 q 100 363 100 253 q 135 561 100 474 q 244 699 171 649 q 429 750 318 750 m 429 643 q 310 604 356 643 q 242 501 264 565 q 221 363 221 438 q 242 224 221 289 q 310 121 264 160 q 429 82 356 82 q 549 121 503 82 q 616 224 594 160 q 638 363 638 289 q 616 501 638 438 q 549 604 594 565 q 429 643 503 643 m 567 996 l 647 996 q 522 851 626 851 q 463 866 499 851 q 394 894 428 881 q 338 908 360 908 q 292 853 306 908 l 211 853 q 331 996 235 996 q 391 983 357 996 q 458 956 425 969 q 515 942 492 942 q 567 996 553 942 z "},"œ":{"ha":858,"x_min":15,"x_max":860,"o":"m 251 750 q 366 706 317 750 q 431 589 415 661 q 501 705 449 660 q 622 750 553 750 q 799 642 738 750 q 844 335 860 533 l 485 335 q 519 143 483 213 q 625 74 556 74 q 733 211 718 74 l 838 211 q 767 35 826 94 q 622 -25 708 -25 q 498 22 553 -25 q 426 140 443 69 q 360 22 411 69 q 243 -25 308 -25 q 75 74 135 -25 q 15 363 15 172 q 78 651 15 553 q 251 750 142 750 m 618 650 q 525 590 560 650 q 486 426 490 531 l 738 426 q 706 591 736 532 q 618 650 675 650 m 125 363 q 156 147 125 221 q 250 74 188 74 q 344 147 313 74 q 375 363 375 221 q 250 650 375 650 q 125 363 125 650 z "},"p":{"ha":858,"x_min":121,"x_max":772,"o":"m 238 -303 l 121 -303 l 121 728 l 228 728 l 228 619 q 460 750 308 750 q 637 695 568 750 q 739 551 706 640 q 772 356 772 461 q 738 165 772 251 q 635 26 704 78 q 461 -25 565 -25 q 337 1 390 -25 q 238 83 283 26 l 238 -303 m 440 642 q 324 601 368 642 q 258 497 279 561 q 238 363 238 433 q 258 228 238 292 q 324 124 279 164 q 440 83 368 83 q 560 123 514 83 q 629 226 607 163 q 651 358 651 289 q 629 497 651 432 q 560 601 607 561 q 440 642 514 642 z "},"þ":{"ha":858,"x_min":121,"x_max":772,"o":"m 238 -303 l 121 -303 l 121 1013 l 236 1013 l 236 632 q 460 750 315 750 q 637 695 568 750 q 739 551 706 640 q 772 356 772 461 q 738 165 772 251 q 635 26 704 78 q 461 -25 565 -25 q 337 1 390 -25 q 238 83 283 26 l 238 -303 m 440 642 q 324 601 368 642 q 258 497 279 561 q 238 363 238 433 q 258 228 238 292 q 324 124 279 164 q 440 83 368 83 q 560 123 514 83 q 629 226 607 163 q 651 358 651 289 q 629 497 651 432 q 560 601 607 561 q 440 642 514 642 z "},"q":{"ha":858,"x_min":86,"x_max":738,"o":"m 738 728 l 738 -303 l 622 -303 l 622 92 q 527 2 582 29 q 397 -25 472 -25 q 230 22 300 -25 q 123 155 160 69 q 86 354 86 240 q 122 555 86 465 q 228 697 157 644 q 403 750 299 750 q 635 632 551 750 l 635 728 l 738 728 m 419 642 q 303 605 351 642 q 231 505 256 568 q 207 363 207 442 q 230 225 207 289 q 300 122 253 161 q 419 83 347 83 q 538 124 493 83 q 602 228 582 165 q 622 358 622 292 q 601 495 622 431 q 536 601 581 560 q 419 642 492 642 z "},"r":{"ha":858,"x_min":172,"x_max":807,"o":"m 172 0 l 172 728 l 279 728 l 279 571 q 383 699 315 649 q 540 749 451 749 q 731 685 665 749 q 807 513 797 621 l 692 513 q 641 613 679 578 q 529 647 603 647 q 403 609 457 647 q 319 505 349 571 q 289 353 289 439 l 289 0 l 172 0 z "},"ŕ":{"ha":858,"x_min":172,"x_max":807,"o":"m 172 0 l 172 728 l 279 728 l 279 571 q 383 699 315 649 q 540 749 451 749 q 731 685 665 749 q 807 513 797 621 l 692 513 q 641 613 679 578 q 529 647 603 647 q 403 609 457 647 q 319 505 349 571 q 289 353 289 439 l 289 0 l 172 0 m 417 822 l 550 1028 l 707 1028 l 500 822 l 417 822 z "},"ř":{"ha":858,"x_min":172,"x_max":807,"o":"m 172 0 l 172 728 l 279 728 l 279 571 q 383 699 315 649 q 540 749 451 749 q 731 685 665 749 q 807 513 797 621 l 692 513 q 641 613 679 578 q 529 647 603 647 q 403 609 457 647 q 319 505 349 571 q 289 353 289 439 l 289 0 l 172 0 m 683 1029 l 550 821 l 419 821 l 285 1029 l 372 1029 l 485 896 l 594 1029 l 683 1029 z "},"ŗ":{"ha":858,"x_min":161,"x_max":807,"o":"m 172 0 l 172 728 l 279 728 l 279 571 q 383 699 315 649 q 540 749 451 749 q 731 685 665 749 q 807 513 797 621 l 692 513 q 641 613 679 578 q 529 647 603 647 q 403 609 457 647 q 319 505 349 571 q 289 353 289 439 l 289 0 l 172 0 m 161 -237 l 161 -104 l 299 -104 l 299 -250 q 263 -336 299 -304 q 174 -368 226 -368 l 161 -368 l 161 -314 l 176 -314 q 225 -297 207 -314 q 243 -253 243 -281 l 243 -237 l 161 -237 z "},"s":{"ha":858,"x_min":135,"x_max":725,"o":"m 696 529 l 575 529 q 534 615 574 583 q 429 647 494 647 q 315 618 358 647 q 271 540 271 589 q 297 478 271 501 q 375 440 324 454 l 540 397 q 678 327 632 374 q 725 203 725 281 q 647 36 725 97 q 433 -25 569 -25 q 135 221 147 -25 l 257 221 q 310 113 265 147 q 436 78 356 78 q 560 106 514 78 q 607 185 607 133 q 582 256 607 232 q 497 294 557 279 l 344 335 q 199 406 246 361 q 153 535 153 451 q 228 692 153 633 q 432 750 304 750 q 627 691 560 750 q 696 529 694 632 z "},"ś":{"ha":858,"x_min":135,"x_max":725,"o":"m 696 529 l 575 529 q 534 615 574 583 q 429 647 494 647 q 315 618 358 647 q 271 540 271 589 q 297 478 271 501 q 375 440 324 454 l 540 397 q 678 327 632 374 q 725 203 725 281 q 647 36 725 97 q 433 -25 569 -25 q 135 221 147 -25 l 257 221 q 310 113 265 147 q 436 78 356 78 q 560 106 514 78 q 607 185 607 133 q 582 256 607 232 q 497 294 557 279 l 344 335 q 199 406 246 361 q 153 535 153 451 q 228 692 153 633 q 432 750 304 750 q 627 691 560 750 q 696 529 694 632 m 364 822 l 497 1028 l 654 1028 l 447 822 l 364 822 z "},"š":{"ha":858,"x_min":135,"x_max":725,"o":"m 696 529 l 575 529 q 534 615 574 583 q 429 647 494 647 q 315 618 358 647 q 271 540 271 589 q 297 478 271 501 q 375 440 324 454 l 540 397 q 678 327 632 374 q 725 203 725 281 q 647 36 725 97 q 433 -25 569 -25 q 135 221 147 -25 l 257 221 q 310 113 265 147 q 436 78 356 78 q 560 106 514 78 q 607 185 607 133 q 582 256 607 232 q 497 294 557 279 l 344 335 q 199 406 246 361 q 153 535 153 451 q 228 692 153 633 q 432 750 304 750 q 627 691 560 750 q 696 529 694 632 m 631 1029 l 497 821 l 367 821 l 232 1029 l 319 1029 l 432 896 l 542 1029 l 631 1029 z "},"ş":{"ha":858,"x_min":135,"x_max":725,"o":"m 696 529 l 575 529 q 534 615 574 583 q 429 647 494 647 q 315 618 358 647 q 271 540 271 589 q 297 478 271 501 q 375 440 324 454 l 540 397 q 678 327 632 374 q 725 203 725 281 q 647 36 725 97 q 433 -25 569 -25 q 135 221 147 -25 l 257 221 q 310 113 265 147 q 436 78 356 78 q 560 106 514 78 q 607 185 607 133 q 582 256 607 232 q 497 294 557 279 l 344 335 q 199 406 246 361 q 153 535 153 451 q 228 692 153 633 q 432 750 304 750 q 627 691 560 750 q 696 529 694 632 m 372 -117 l 438 17 l 496 17 l 444 -87 q 482 -83 463 -83 q 553 -106 522 -83 q 583 -178 583 -129 q 541 -265 583 -233 q 428 -297 499 -297 q 366 -288 397 -297 q 311 -265 335 -279 l 336 -204 q 383 -221 357 -214 q 433 -228 408 -228 q 479 -217 458 -228 q 500 -179 500 -207 q 485 -150 500 -160 q 450 -140 471 -140 q 400 -156 424 -140 l 372 -117 z "},"ș":{"ha":858,"x_min":135,"x_max":725,"o":"m 696 529 l 575 529 q 534 615 574 583 q 429 647 494 647 q 315 618 358 647 q 271 540 271 589 q 297 478 271 501 q 375 440 324 454 l 540 397 q 678 327 632 374 q 725 203 725 281 q 647 36 725 97 q 433 -25 569 -25 q 135 221 147 -25 l 257 221 q 310 113 265 147 q 436 78 356 78 q 560 106 514 78 q 607 185 607 133 q 582 256 607 232 q 497 294 557 279 l 344 335 q 199 406 246 361 q 153 535 153 451 q 228 692 153 633 q 432 750 304 750 q 627 691 560 750 q 696 529 694 632 m 364 -237 l 364 -104 l 501 -104 l 501 -250 q 465 -336 501 -304 q 376 -368 429 -368 l 364 -368 l 364 -314 l 379 -314 q 428 -297 410 -314 q 446 -253 446 -281 l 446 -237 l 364 -237 z "},"ß":{"ha":858,"x_min":128,"x_max":801,"o":"m 407 475 l 407 583 q 577 617 517 572 q 638 756 638 663 q 586 869 638 822 q 450 917 535 917 q 301 865 360 917 q 242 706 242 813 l 242 0 l 128 0 l 128 706 q 156 860 128 799 q 233 956 185 921 q 338 1006 281 992 q 453 1021 396 1021 q 604 987 536 1021 q 713 893 672 953 q 754 757 754 833 q 728 648 754 693 q 661 576 701 603 q 576 543 621 550 q 687 501 636 536 q 769 411 738 467 q 801 283 801 356 q 711 60 801 135 q 457 -14 621 -14 q 422 -12 439 -14 q 390 -8 406 -11 l 390 92 q 424 90 410 90 q 447 90 438 90 q 628 140 571 90 q 685 283 685 189 q 658 390 685 350 q 588 450 631 431 q 497 474 544 469 q 407 475 449 479 z "},"t":{"ha":858,"x_min":110,"x_max":721,"o":"m 435 728 l 721 728 l 721 633 l 435 633 l 435 228 q 476 116 435 147 q 597 85 518 85 q 664 88 633 85 q 721 99 694 92 l 721 -3 q 653 -16 686 -12 q 590 -19 619 -19 q 389 35 458 -19 q 319 207 319 89 l 319 633 l 110 633 l 110 728 l 319 728 l 319 928 l 435 928 l 435 728 z "},"ť":{"ha":858,"x_min":110,"x_max":721,"o":"m 435 728 l 721 728 l 721 633 l 435 633 l 435 228 q 476 116 435 147 q 597 85 518 85 q 664 88 633 85 q 721 99 694 92 l 721 -3 q 653 -16 686 -12 q 590 -19 619 -19 q 389 35 458 -19 q 319 207 319 89 l 319 633 l 110 633 l 110 728 l 319 728 l 319 928 l 435 928 l 435 728 m 579 886 l 579 1013 l 717 1013 l 717 874 q 681 792 717 824 q 592 761 644 761 l 579 761 l 579 815 l 594 815 q 643 831 625 815 q 661 871 661 847 l 661 886 l 579 886 z "},"ț":{"ha":858,"x_min":110,"x_max":721,"o":"m 435 728 l 721 728 l 721 633 l 435 633 l 435 228 q 476 116 435 147 q 597 85 518 85 q 664 88 633 85 q 721 99 694 92 l 721 -3 q 653 -16 686 -12 q 590 -19 619 -19 q 389 35 458 -19 q 319 207 319 89 l 319 633 l 110 633 l 110 728 l 319 728 l 319 928 l 435 928 l 435 728 m 481 -237 l 481 -104 l 618 -104 l 618 -250 q 582 -336 618 -304 q 493 -368 546 -368 l 481 -368 l 481 -314 l 496 -314 q 544 -297 526 -314 q 563 -253 563 -281 l 563 -237 l 481 -237 z "},"u":{"ha":858,"x_min":140,"x_max":719,"o":"m 719 728 l 719 0 l 615 0 l 615 108 q 509 6 565 36 q 372 -25 453 -25 q 215 18 276 -25 q 140 174 140 72 l 140 728 l 256 728 l 256 219 q 304 108 256 146 q 406 76 344 76 q 543 136 488 76 q 604 324 604 201 l 604 728 l 719 728 z "},"ú":{"ha":858,"x_min":140,"x_max":719,"o":"m 719 728 l 719 0 l 615 0 l 615 108 q 509 6 565 36 q 372 -25 453 -25 q 215 18 276 -25 q 140 174 140 72 l 140 728 l 256 728 l 256 219 q 304 108 256 146 q 406 76 344 76 q 543 136 488 76 q 604 324 604 201 l 604 728 l 719 728 m 361 822 l 494 1028 l 651 1028 l 444 822 l 361 822 z "},"ŭ":{"ha":858,"x_min":140,"x_max":719,"o":"m 719 728 l 719 0 l 615 0 l 615 108 q 509 6 565 36 q 372 -25 453 -25 q 215 18 276 -25 q 140 174 140 72 l 140 728 l 256 728 l 256 219 q 304 108 256 146 q 406 76 344 76 q 543 136 488 76 q 604 324 604 201 l 604 728 l 719 728 m 221 1017 l 303 1017 q 429 925 314 925 q 556 1017 544 925 l 638 1017 q 576 874 632 919 q 429 829 519 829 q 284 874 340 829 q 221 1017 228 919 z "},"û":{"ha":858,"x_min":140,"x_max":719,"o":"m 719 728 l 719 0 l 615 0 l 615 108 q 509 6 565 36 q 372 -25 453 -25 q 215 18 276 -25 q 140 174 140 72 l 140 728 l 256 728 l 256 219 q 304 108 256 146 q 406 76 344 76 q 543 136 488 76 q 604 324 604 201 l 604 728 l 719 728 m 229 821 l 363 1029 l 493 1029 l 628 821 l 540 821 l 428 954 l 318 821 l 229 821 z "},"ü":{"ha":858,"x_min":140,"x_max":719,"o":"m 719 728 l 719 0 l 615 0 l 615 108 q 509 6 565 36 q 372 -25 453 -25 q 215 18 276 -25 q 140 174 140 72 l 140 728 l 256 728 l 256 219 q 304 108 256 146 q 406 76 344 76 q 543 136 488 76 q 604 324 604 201 l 604 728 l 719 728 m 244 993 l 389 993 l 389 850 l 244 850 l 244 993 m 469 993 l 614 993 l 614 850 l 469 850 l 469 993 z "},"ù":{"ha":858,"x_min":140,"x_max":719,"o":"m 719 728 l 719 0 l 615 0 l 615 108 q 509 6 565 36 q 372 -25 453 -25 q 215 18 276 -25 q 140 174 140 72 l 140 728 l 256 728 l 256 219 q 304 108 256 146 q 406 76 344 76 q 543 136 488 76 q 604 324 604 201 l 604 728 l 719 728 m 497 822 l 414 822 l 207 1028 l 364 1028 l 497 822 z "},"ű":{"ha":858,"x_min":140,"x_max":781,"o":"m 719 728 l 719 0 l 615 0 l 615 108 q 509 6 565 36 q 372 -25 453 -25 q 215 18 276 -25 q 140 174 140 72 l 140 728 l 256 728 l 256 219 q 304 108 256 146 q 406 76 344 76 q 543 136 488 76 q 604 324 604 201 l 604 728 l 719 728 m 250 825 l 383 1031 l 540 1031 l 333 825 l 250 825 m 490 822 l 624 1028 l 781 1028 l 574 822 l 490 822 z "},"ū":{"ha":858,"x_min":140,"x_max":719,"o":"m 719 728 l 719 0 l 615 0 l 615 108 q 509 6 565 36 q 372 -25 453 -25 q 215 18 276 -25 q 140 174 140 72 l 140 728 l 256 728 l 256 219 q 304 108 256 146 q 406 76 344 76 q 543 136 488 76 q 604 324 604 201 l 604 728 l 719 728 m 239 974 l 619 974 l 619 876 l 239 876 l 239 974 z "},"ų":{"ha":858,"x_min":140,"x_max":719,"o":"m 719 728 l 719 0 l 615 0 l 615 108 q 509 6 565 36 q 372 -25 453 -25 q 215 18 276 -25 q 140 174 140 72 l 140 728 l 256 728 l 256 219 q 304 108 256 146 q 406 76 344 76 q 543 136 488 76 q 604 324 604 201 l 604 728 l 719 728 m 667 28 l 719 0 q 608 -58 639 -28 q 578 -128 578 -87 q 602 -181 578 -161 q 661 -200 626 -200 q 719 -192 694 -200 l 719 -272 q 679 -282 700 -279 q 639 -285 658 -285 q 528 -248 571 -285 q 485 -156 485 -211 q 524 -51 485 -103 q 667 28 564 0 z "},"ů":{"ha":858,"x_min":140,"x_max":719,"o":"m 719 728 l 719 0 l 615 0 l 615 108 q 509 6 565 36 q 372 -25 453 -25 q 215 18 276 -25 q 140 174 140 72 l 140 728 l 256 728 l 256 219 q 304 108 256 146 q 406 76 344 76 q 543 136 488 76 q 604 324 604 201 l 604 728 l 719 728 m 429 1047 q 516 1012 481 1047 q 551 925 551 976 q 516 838 551 874 q 429 803 481 803 q 342 838 378 803 q 307 925 307 874 q 342 1012 307 976 q 429 1047 378 1047 m 429 988 q 385 969 401 988 q 369 925 369 951 q 385 881 369 899 q 429 863 401 863 q 473 881 457 863 q 489 925 489 899 q 473 969 489 951 q 429 988 457 988 z "},"v":{"ha":858,"x_min":99,"x_max":760,"o":"m 760 728 l 493 0 l 365 0 l 99 728 l 222 728 l 432 139 l 640 728 l 760 728 z "},"w":{"ha":858,"x_min":31,"x_max":828,"o":"m 182 0 l 31 728 l 147 728 l 251 118 l 253 118 l 354 728 l 501 728 l 607 117 l 608 117 l 713 728 l 828 728 l 674 0 l 535 0 l 428 626 l 426 626 l 321 0 l 182 0 z "},"ẃ":{"ha":858,"x_min":31,"x_max":828,"o":"m 182 0 l 31 728 l 147 728 l 251 118 l 253 118 l 354 728 l 501 728 l 607 117 l 608 117 l 713 728 l 828 728 l 674 0 l 535 0 l 428 626 l 426 626 l 321 0 l 182 0 m 363 822 l 496 1028 l 653 1028 l 446 822 l 363 822 z "},"ŵ":{"ha":858,"x_min":31,"x_max":828,"o":"m 182 0 l 31 728 l 147 728 l 251 118 l 253 118 l 354 728 l 501 728 l 607 117 l 608 117 l 713 728 l 828 728 l 674 0 l 535 0 l 428 626 l 426 626 l 321 0 l 182 0 m 229 821 l 363 1029 l 493 1029 l 628 821 l 540 821 l 428 954 l 318 821 l 229 821 z "},"ẅ":{"ha":858,"x_min":31,"x_max":828,"o":"m 182 0 l 31 728 l 147 728 l 251 118 l 253 118 l 354 728 l 501 728 l 607 117 l 608 117 l 713 728 l 828 728 l 674 0 l 535 0 l 428 626 l 426 626 l 321 0 l 182 0 m 244 993 l 389 993 l 389 850 l 244 850 l 244 993 m 469 993 l 614 993 l 614 850 l 469 850 l 469 993 z "},"ẁ":{"ha":858,"x_min":31,"x_max":828,"o":"m 182 0 l 31 728 l 147 728 l 251 118 l 253 118 l 354 728 l 501 728 l 607 117 l 608 117 l 713 728 l 828 728 l 674 0 l 535 0 l 428 626 l 426 626 l 321 0 l 182 0 m 499 822 l 415 822 l 208 1028 l 365 1028 l 499 822 z "},"x":{"ha":858,"x_min":113,"x_max":746,"o":"m 739 728 l 494 376 l 746 0 l 608 0 l 429 276 l 247 0 l 113 0 l 369 371 l 126 728 l 263 728 l 433 467 l 607 728 l 739 728 z "},"y":{"ha":858,"x_min":99,"x_max":763,"o":"m 435 -153 q 356 -265 407 -228 q 236 -303 304 -303 q 142 -289 183 -303 l 142 -181 q 184 -187 165 -186 q 221 -189 203 -189 q 285 -173 261 -189 q 324 -118 308 -157 l 368 -11 l 99 728 l 221 728 l 433 138 l 643 728 l 763 728 l 435 -153 z "},"ý":{"ha":858,"x_min":99,"x_max":763,"o":"m 435 -153 q 356 -265 407 -228 q 236 -303 304 -303 q 142 -289 183 -303 l 142 -181 q 184 -187 165 -186 q 221 -189 203 -189 q 285 -173 261 -189 q 324 -118 308 -157 l 368 -11 l 99 728 l 221 728 l 433 138 l 643 728 l 763 728 l 435 -153 m 361 822 l 494 1028 l 651 1028 l 444 822 l 361 822 z "},"ŷ":{"ha":858,"x_min":99,"x_max":763,"o":"m 435 -153 q 356 -265 407 -228 q 236 -303 304 -303 q 142 -289 183 -303 l 142 -181 q 184 -187 165 -186 q 221 -189 203 -189 q 285 -173 261 -189 q 324 -118 308 -157 l 368 -11 l 99 728 l 221 728 l 433 138 l 643 728 l 763 728 l 435 -153 m 229 821 l 363 1029 l 493 1029 l 628 821 l 540 821 l 428 954 l 318 821 l 229 821 z "},"ÿ":{"ha":858,"x_min":99,"x_max":763,"o":"m 435 -153 q 356 -265 407 -228 q 236 -303 304 -303 q 142 -289 183 -303 l 142 -181 q 184 -187 165 -186 q 221 -189 203 -189 q 285 -173 261 -189 q 324 -118 308 -157 l 368 -11 l 99 728 l 221 728 l 433 138 l 643 728 l 763 728 l 435 -153 m 244 993 l 389 993 l 389 850 l 244 850 l 244 993 m 469 993 l 614 993 l 614 850 l 469 850 l 469 993 z "},"ỳ":{"ha":858,"x_min":99,"x_max":763,"o":"m 435 -153 q 356 -265 407 -228 q 236 -303 304 -303 q 142 -289 183 -303 l 142 -181 q 184 -187 165 -186 q 221 -189 203 -189 q 285 -173 261 -189 q 324 -118 308 -157 l 368 -11 l 99 728 l 221 728 l 433 138 l 643 728 l 763 728 l 435 -153 m 497 822 l 414 822 l 207 1028 l 364 1028 l 497 822 z "},"z":{"ha":858,"x_min":133,"x_max":725,"o":"m 163 728 l 706 728 l 706 625 l 272 101 l 725 101 l 725 0 l 133 0 l 133 104 l 568 626 l 163 626 l 163 728 z "},"ź":{"ha":858,"x_min":133,"x_max":725,"o":"m 163 728 l 706 728 l 706 625 l 272 101 l 725 101 l 725 0 l 133 0 l 133 104 l 568 626 l 163 626 l 163 728 m 367 822 l 500 1028 l 657 1028 l 450 822 l 367 822 z "},"ž":{"ha":858,"x_min":133,"x_max":725,"o":"m 163 728 l 706 728 l 706 625 l 272 101 l 725 101 l 725 0 l 133 0 l 133 104 l 568 626 l 163 626 l 163 728 m 633 1029 l 500 821 l 369 821 l 235 1029 l 322 1029 l 435 896 l 544 1029 l 633 1029 z "},"ż":{"ha":858,"x_min":133,"x_max":725,"o":"m 163 728 l 706 728 l 706 625 l 272 101 l 725 101 l 725 0 l 133 0 l 133 104 l 568 626 l 163 626 l 163 728 m 363 994 l 507 994 l 507 850 l 363 850 l 363 994 z "},"ª":{"ha":858,"x_min":231,"x_max":642,"o":"m 642 574 l 642 515 q 597 507 619 507 q 545 520 563 507 q 521 567 528 533 q 375 507 456 507 q 268 543 308 507 q 231 640 231 579 q 310 761 231 728 q 449 786 349 778 q 503 799 489 790 q 517 831 517 808 l 517 850 q 424 911 517 911 q 358 894 378 911 q 329 833 338 878 l 247 833 q 426 983 254 983 q 596 851 596 983 l 596 604 q 628 572 596 572 q 635 572 631 572 q 642 574 639 572 m 517 669 l 517 742 q 411 719 496 732 q 334 694 357 711 q 311 644 311 676 q 332 597 311 614 q 390 579 353 579 q 479 606 442 579 q 517 669 517 633 m 239 444 l 624 444 l 624 374 l 239 374 l 239 444 z "},"º":{"ha":858,"x_min":232,"x_max":626,"o":"m 429 983 q 576 921 525 983 q 626 742 626 858 q 579 573 626 639 q 429 507 532 507 q 283 569 335 507 q 232 744 232 631 q 252 866 232 813 q 316 951 272 919 q 429 983 360 983 m 429 911 q 344 867 375 911 q 313 746 313 824 q 323 669 313 707 q 359 605 333 631 q 429 579 385 579 q 515 623 483 579 q 546 743 546 667 q 536 822 546 783 q 501 886 526 861 q 429 911 475 911 m 247 444 l 613 444 l 613 374 l 247 374 l 247 444 z "},"Ξ":{"ha":858,"x_min":118,"x_max":740,"o":"m 131 971 l 728 971 l 728 857 l 131 857 l 131 971 m 200 554 l 658 554 l 658 440 l 200 440 l 200 554 m 118 114 l 740 114 l 740 0 l 118 0 l 118 114 z "},"Ω":{"ha":858,"x_min":65,"x_max":793,"o":"m 74 0 l 74 108 l 242 108 q 140 216 179 151 q 83 356 101 281 q 65 504 65 432 q 163 869 65 746 q 429 993 261 993 q 696 869 599 993 q 793 504 793 746 q 775 356 793 432 q 719 216 757 281 q 617 108 681 151 l 785 108 l 785 0 l 503 0 l 503 108 q 601 199 563 138 q 657 341 639 260 q 675 508 675 422 q 606 793 675 697 q 429 889 538 889 q 251 792 321 889 q 182 507 182 696 q 200 340 182 421 q 257 199 218 260 q 356 108 296 138 l 356 0 l 74 0 z "},"π":{"ha":858,"x_min":51,"x_max":807,"o":"m 51 728 l 807 728 l 807 633 l 682 633 l 682 0 l 567 0 l 567 633 l 292 633 l 292 0 l 176 0 l 176 633 l 51 633 l 51 728 z "},"⁄":{"ha":858,"x_min":25,"x_max":835,"o":"m 25 0 l 729 971 l 835 971 l 129 0 l 25 0 z "},"½":{"ha":858,"x_min":17,"x_max":835,"o":"m 147 499 l 147 824 l 17 824 l 17 885 q 109 895 78 886 q 154 922 140 904 q 176 971 168 940 l 239 971 l 239 499 l 147 499 m 25 0 l 729 971 l 835 971 l 129 0 l 25 0 m 479 0 q 493 81 482 49 q 531 140 504 114 q 604 196 558 167 l 664 233 q 719 281 706 260 q 733 331 733 303 q 713 385 733 365 q 657 406 693 406 q 594 378 614 406 q 576 304 575 350 l 488 304 q 525 430 483 381 q 660 479 567 479 q 781 441 738 479 q 824 335 824 403 q 799 252 824 286 q 714 179 775 218 l 646 136 q 617 113 628 126 q 594 81 606 100 l 821 81 l 821 0 l 479 0 z "},"⅓":{"ha":858,"x_min":17,"x_max":835,"o":"m 147 499 l 147 824 l 17 824 l 17 885 q 109 895 78 886 q 154 922 140 904 q 176 971 168 940 l 239 971 l 239 499 l 147 499 m 25 0 l 729 971 l 835 971 l 129 0 l 25 0 m 654 -17 q 529 25 574 -17 q 485 143 485 67 l 574 143 q 657 58 578 58 q 717 79 694 58 q 739 135 739 100 q 708 195 739 179 q 617 208 676 211 l 617 272 q 699 288 675 272 q 724 339 724 304 q 705 388 724 369 q 654 407 686 407 q 597 385 614 407 q 581 317 581 364 l 493 317 q 656 479 500 479 q 772 443 729 479 q 814 346 814 407 q 754 249 814 283 q 831 136 831 215 q 783 25 831 67 q 654 -17 735 -17 z "},"⅔":{"ha":858,"x_min":7,"x_max":835,"o":"m 7 499 q 21 580 10 547 q 59 639 32 613 q 132 694 86 665 l 192 732 q 247 780 233 758 q 261 829 261 801 q 241 884 261 864 q 185 904 221 904 q 122 876 142 904 q 104 803 103 849 l 15 803 q 53 928 11 879 q 188 978 94 978 q 308 940 265 978 q 351 833 351 901 q 327 751 351 785 q 242 678 303 717 l 174 635 q 144 612 156 625 q 122 579 133 599 l 349 579 l 349 499 l 7 499 m 25 0 l 729 971 l 835 971 l 129 0 l 25 0 m 654 -17 q 529 25 574 -17 q 485 143 485 67 l 574 143 q 657 58 578 58 q 717 79 694 58 q 739 135 739 100 q 708 195 739 179 q 617 208 676 211 l 617 272 q 699 288 675 272 q 724 339 724 304 q 705 388 724 369 q 654 407 686 407 q 597 385 614 407 q 581 317 581 364 l 493 317 q 656 479 500 479 q 772 443 729 479 q 814 346 814 407 q 754 249 814 283 q 831 136 831 215 q 783 25 831 67 q 654 -17 735 -17 z "},"¼":{"ha":858,"x_min":17,"x_max":835,"o":"m 147 499 l 147 824 l 17 824 l 17 885 q 109 895 78 886 q 154 922 140 904 q 176 971 168 940 l 239 971 l 239 499 l 147 499 m 25 0 l 729 971 l 835 971 l 129 0 l 25 0 m 667 0 l 667 107 l 464 107 l 464 182 l 665 472 l 758 472 l 758 181 l 818 181 l 818 107 l 758 107 l 758 0 l 667 0 m 539 181 l 667 181 l 667 365 l 539 181 z "},"¾":{"ha":858,"x_min":10,"x_max":835,"o":"m 179 492 q 54 533 99 492 q 10 651 10 575 l 99 651 q 182 567 103 567 q 242 588 219 567 q 264 643 264 608 q 233 703 264 688 q 142 717 201 719 l 142 781 q 224 797 200 781 q 249 847 249 813 q 230 897 249 878 q 179 915 211 915 q 122 894 139 915 q 106 825 106 872 l 18 825 q 181 988 25 988 q 297 951 254 988 q 339 854 339 915 q 279 757 339 792 q 356 644 356 724 q 308 533 356 575 q 179 492 260 492 m 25 0 l 729 971 l 835 971 l 129 0 l 25 0 m 667 0 l 667 107 l 464 107 l 464 182 l 665 472 l 758 472 l 758 181 l 818 181 l 818 107 l 758 107 l 758 0 l 667 0 m 539 181 l 667 181 l 667 365 l 539 181 z "},"⅛":{"ha":858,"x_min":17,"x_max":844,"o":"m 147 499 l 147 824 l 17 824 l 17 885 q 109 895 78 886 q 154 922 140 904 q 176 971 168 940 l 239 971 l 239 499 l 147 499 m 25 0 l 729 971 l 835 971 l 129 0 l 25 0 m 669 -17 q 542 25 590 -17 q 493 135 493 67 q 571 253 493 210 q 523 297 536 275 q 510 349 510 318 q 555 442 510 406 q 669 478 600 478 q 783 442 738 478 q 828 349 828 406 q 815 297 828 318 q 767 253 801 276 q 844 135 844 211 q 796 25 844 67 q 669 -17 747 -17 m 669 281 q 724 298 703 281 q 744 342 744 315 q 724 387 744 369 q 669 404 704 404 q 614 387 635 404 q 593 342 593 369 q 614 297 593 314 q 669 281 635 281 m 668 58 q 730 80 707 58 q 753 136 753 101 q 731 194 753 172 q 668 215 708 215 q 608 194 631 215 q 585 136 585 172 q 608 80 585 101 q 668 58 631 58 z "},"⅜":{"ha":858,"x_min":10,"x_max":844,"o":"m 179 482 q 54 524 99 482 q 10 642 10 565 l 99 642 q 182 557 103 557 q 242 578 219 557 q 264 633 264 599 q 233 694 264 678 q 142 707 201 710 l 142 771 q 224 787 200 771 q 249 838 249 803 q 230 887 249 868 q 179 906 211 906 q 122 884 139 906 q 106 815 106 863 l 18 815 q 181 978 25 978 q 297 942 254 978 q 339 844 339 906 q 279 747 339 782 q 356 635 356 714 q 308 524 356 565 q 179 482 260 482 m 25 0 l 729 971 l 835 971 l 129 0 l 25 0 m 669 -17 q 542 25 590 -17 q 493 135 493 67 q 571 253 493 210 q 523 297 536 275 q 510 349 510 318 q 555 442 510 406 q 669 478 600 478 q 783 442 738 478 q 828 349 828 406 q 815 297 828 318 q 767 253 801 276 q 844 135 844 211 q 796 25 844 67 q 669 -17 747 -17 m 669 281 q 724 298 703 281 q 744 342 744 315 q 724 387 744 369 q 669 404 704 404 q 614 387 635 404 q 593 342 593 369 q 614 297 593 314 q 669 281 635 281 m 668 58 q 730 80 707 58 q 753 136 753 101 q 731 194 753 172 q 668 215 708 215 q 608 194 631 215 q 585 136 585 172 q 608 80 585 101 q 668 58 631 58 z "},"⅝":{"ha":858,"x_min":17,"x_max":844,"o":"m 183 482 q 65 520 110 482 q 17 625 21 558 l 106 625 q 185 557 117 557 q 249 583 225 557 q 272 651 272 608 q 249 721 272 696 q 183 746 225 746 q 113 707 136 746 l 29 707 l 72 971 l 340 971 l 340 892 l 135 892 l 119 793 q 161 813 143 807 q 203 818 179 818 q 319 773 274 818 q 364 656 364 728 q 314 531 364 579 q 183 482 264 482 m 25 0 l 729 971 l 835 971 l 129 0 l 25 0 m 669 -17 q 542 25 590 -17 q 493 135 493 67 q 571 253 493 210 q 523 297 536 275 q 510 349 510 318 q 555 442 510 406 q 669 478 600 478 q 783 442 738 478 q 828 349 828 406 q 815 297 828 318 q 767 253 801 276 q 844 135 844 211 q 796 25 844 67 q 669 -17 747 -17 m 669 281 q 724 298 703 281 q 744 342 744 315 q 724 387 744 369 q 669 404 704 404 q 614 387 635 404 q 593 342 593 369 q 614 297 593 314 q 669 281 635 281 m 668 58 q 730 80 707 58 q 753 136 753 101 q 731 194 753 172 q 668 215 708 215 q 608 194 631 215 q 585 136 585 172 q 608 80 585 101 q 668 58 631 58 z "},"⅞":{"ha":858,"x_min":25,"x_max":844,"o":"m 108 499 q 144 642 122 579 q 200 763 165 704 q 290 892 235 822 l 39 892 l 39 971 l 389 971 l 389 904 q 257 706 301 801 q 201 499 213 611 l 108 499 m 25 0 l 729 971 l 835 971 l 129 0 l 25 0 m 669 -17 q 542 25 590 -17 q 493 135 493 67 q 571 253 493 210 q 523 297 536 275 q 510 349 510 318 q 555 442 510 406 q 669 478 600 478 q 783 442 738 478 q 828 349 828 406 q 815 297 828 318 q 767 253 801 276 q 844 135 844 211 q 796 25 844 67 q 669 -17 747 -17 m 669 281 q 724 298 703 281 q 744 342 744 315 q 724 387 744 369 q 669 404 704 404 q 614 387 635 404 q 593 342 593 369 q 614 297 593 314 q 669 281 635 281 m 668 58 q 730 80 707 58 q 753 136 753 101 q 731 194 753 172 q 668 215 708 215 q 608 194 631 215 q 585 136 585 172 q 608 80 585 101 q 668 58 631 58 z "},"₀":{"ha":858,"x_min":199,"x_max":661,"o":"m 431 -15 q 260 65 322 -15 q 199 292 199 146 q 260 517 199 436 q 429 599 321 599 q 601 517 540 599 q 661 286 661 435 q 599 65 661 144 q 431 -15 538 -15 m 299 290 q 307 196 299 236 q 331 128 315 156 l 489 500 q 429 517 463 517 q 335 463 372 517 q 299 290 299 408 m 428 67 q 524 120 486 67 q 561 293 561 174 q 554 379 561 342 q 533 444 547 417 l 379 78 q 428 67 401 67 z "},"₁":{"ha":858,"x_min":244,"x_max":508,"o":"m 408 4 l 408 413 l 244 413 l 244 482 q 358 495 321 485 q 413 529 396 506 q 440 594 429 553 l 508 594 l 508 4 l 408 4 z "},"₂":{"ha":858,"x_min":215,"x_max":644,"o":"m 215 4 q 233 112 218 69 q 284 188 249 154 q 382 257 319 221 l 460 301 q 525 356 506 328 q 544 419 544 385 q 517 490 544 464 q 442 517 490 517 q 325 383 328 517 l 228 383 q 280 542 226 486 q 443 599 333 599 q 590 551 536 599 q 644 422 644 504 q 612 319 644 363 q 508 235 579 275 l 422 185 q 369 147 389 167 q 339 93 350 126 l 640 93 l 640 4 l 215 4 z "},"₃":{"ha":858,"x_min":215,"x_max":643,"o":"m 426 -15 q 270 37 325 -15 q 215 183 215 89 l 313 183 q 344 96 315 124 q 429 68 372 68 q 513 97 482 68 q 543 172 543 125 q 505 250 543 225 q 381 269 467 275 l 381 344 q 493 363 463 344 q 524 428 524 381 q 498 493 524 469 q 428 517 472 517 q 349 488 372 517 q 324 399 325 460 l 226 399 q 428 599 233 599 q 571 554 518 599 q 624 432 624 510 q 547 313 624 351 q 643 172 643 278 q 584 36 643 88 q 426 -15 525 -15 z "},"₄":{"ha":858,"x_min":206,"x_max":646,"o":"m 463 4 l 463 140 l 206 140 l 206 228 l 474 594 l 561 594 l 561 222 l 646 222 l 646 140 l 561 140 l 561 4 l 463 4 m 293 222 l 463 222 l 463 457 l 293 222 z "},"₅":{"ha":858,"x_min":214,"x_max":646,"o":"m 425 -15 q 214 158 238 -15 l 313 158 q 424 68 331 68 q 513 101 481 68 q 546 192 546 135 q 513 283 546 249 q 424 318 481 318 q 367 306 390 318 q 322 267 344 294 l 232 267 l 282 594 l 615 594 l 615 506 l 356 506 l 336 369 q 443 399 385 399 q 590 343 533 399 q 646 199 646 288 q 617 88 646 136 q 540 13 589 40 q 425 -15 490 -15 z "},"₆":{"ha":858,"x_min":217,"x_max":642,"o":"m 433 -15 q 269 61 322 -15 q 217 276 217 138 q 240 440 217 367 q 313 556 263 513 q 446 599 364 599 q 571 558 524 599 q 631 439 618 517 l 535 439 q 440 517 514 517 q 349 465 381 517 q 318 329 318 413 q 380 369 350 357 q 450 381 410 381 q 588 327 535 381 q 642 190 642 274 q 583 43 642 101 q 433 -15 525 -15 m 433 68 q 513 101 482 68 q 544 185 544 133 q 515 269 544 238 q 435 300 486 300 q 352 269 383 300 q 321 186 321 238 q 353 101 321 135 q 433 68 385 68 z "},"₇":{"ha":858,"x_min":226,"x_max":656,"o":"m 308 4 q 358 181 329 103 q 432 336 386 260 q 549 506 478 413 l 226 506 l 226 594 l 656 594 l 656 519 q 491 267 550 390 q 411 4 432 144 l 308 4 z "},"₈":{"ha":858,"x_min":214,"x_max":646,"o":"m 429 -15 q 274 37 333 -15 q 214 172 214 89 q 313 318 214 269 q 252 372 269 344 q 235 438 235 399 q 290 553 235 508 q 429 599 344 599 q 570 553 515 599 q 625 438 625 508 q 607 372 625 399 q 546 318 589 346 q 646 171 646 268 q 586 37 646 89 q 429 -15 526 -15 m 431 351 q 502 374 475 351 q 529 433 529 396 q 502 494 529 471 q 429 517 475 517 q 358 494 385 517 q 331 433 331 471 q 358 374 331 396 q 431 351 385 351 m 428 68 q 513 97 481 68 q 546 172 546 125 q 514 248 546 219 q 429 276 482 276 q 346 248 378 276 q 314 172 314 219 q 345 97 314 125 q 428 68 376 68 z "},"₉":{"ha":858,"x_min":217,"x_max":642,"o":"m 425 599 q 589 523 536 599 q 642 307 642 447 q 619 144 642 217 q 546 28 596 71 q 413 -15 496 -15 q 288 26 336 -15 q 228 144 240 67 l 324 144 q 418 67 344 67 q 509 119 478 67 q 540 254 540 171 q 479 215 510 226 q 408 203 449 203 q 270 256 324 203 q 217 393 217 310 q 275 541 217 483 q 425 599 333 599 m 425 515 q 346 483 378 515 q 314 399 314 450 q 343 315 314 346 q 424 283 372 283 q 506 315 475 283 q 538 397 538 346 q 506 482 538 449 q 425 515 474 515 z "},"⁰":{"ha":858,"x_min":199,"x_max":661,"o":"m 431 361 q 260 442 322 361 q 199 668 199 522 q 260 894 199 813 q 429 975 321 975 q 601 893 540 975 q 661 663 661 811 q 599 441 661 521 q 431 361 538 361 m 299 667 q 307 572 299 613 q 331 504 315 532 l 489 876 q 429 893 463 893 q 335 839 372 893 q 299 667 299 785 m 428 443 q 524 497 486 443 q 561 669 561 550 q 554 756 561 718 q 533 821 547 793 l 379 454 q 428 443 401 443 z "},"¹":{"ha":858,"x_min":244,"x_max":508,"o":"m 408 381 l 408 789 l 244 789 l 244 858 q 358 872 321 861 q 413 906 396 882 q 440 971 429 929 l 508 971 l 508 381 l 408 381 z "},"²":{"ha":858,"x_min":215,"x_max":644,"o":"m 215 381 q 233 488 218 446 q 284 564 249 531 q 382 633 319 597 l 460 678 q 525 733 506 704 q 544 796 544 761 q 517 867 544 840 q 442 893 490 893 q 325 760 328 893 l 228 760 q 280 919 226 863 q 443 975 333 975 q 590 928 536 975 q 644 799 644 881 q 612 695 644 739 q 508 611 579 651 l 422 561 q 369 523 389 543 q 339 469 350 503 l 640 469 l 640 381 l 215 381 z "},"³":{"ha":858,"x_min":215,"x_max":643,"o":"m 426 361 q 270 413 325 361 q 215 560 215 465 l 313 560 q 344 472 315 500 q 429 444 372 444 q 513 473 482 444 q 543 549 543 501 q 505 626 543 601 q 381 646 467 651 l 381 721 q 493 739 463 721 q 524 804 524 757 q 498 869 524 846 q 428 893 472 893 q 349 865 372 893 q 324 775 325 836 l 226 775 q 428 975 233 975 q 571 931 518 975 q 624 808 624 886 q 547 689 624 728 q 643 549 643 654 q 584 413 643 464 q 426 361 525 361 z "},"⁴":{"ha":858,"x_min":206,"x_max":646,"o":"m 463 381 l 463 517 l 206 517 l 206 604 l 474 971 l 561 971 l 561 599 l 646 599 l 646 517 l 561 517 l 561 381 l 463 381 m 293 599 l 463 599 l 463 833 l 293 599 z "},"⁵":{"ha":858,"x_min":214,"x_max":646,"o":"m 425 361 q 214 535 238 361 l 313 535 q 424 444 331 444 q 513 478 481 444 q 546 568 546 511 q 513 660 546 625 q 424 694 481 694 q 367 683 390 694 q 322 643 344 671 l 232 643 l 282 971 l 615 971 l 615 882 l 356 882 l 336 746 q 443 775 385 775 q 590 719 533 775 q 646 575 646 664 q 617 465 646 513 q 540 389 589 417 q 425 361 490 361 z "},"⁶":{"ha":858,"x_min":217,"x_max":642,"o":"m 433 361 q 269 438 322 361 q 217 653 217 514 q 240 816 217 743 q 313 932 263 889 q 446 975 364 975 q 571 934 524 975 q 631 815 618 893 l 535 815 q 440 893 514 893 q 349 841 381 893 q 318 706 318 789 q 380 745 350 733 q 450 757 410 757 q 588 703 535 757 q 642 567 642 650 q 583 419 642 478 q 433 361 525 361 m 433 444 q 513 477 482 444 q 544 561 544 510 q 515 645 544 614 q 435 676 486 676 q 352 645 383 676 q 321 563 321 614 q 353 478 321 511 q 433 444 385 444 z "},"⁷":{"ha":858,"x_min":226,"x_max":656,"o":"m 308 381 q 358 558 329 479 q 432 713 386 636 q 549 882 478 789 l 226 882 l 226 971 l 656 971 l 656 896 q 491 644 550 767 q 411 381 432 521 l 308 381 z "},"⁸":{"ha":858,"x_min":214,"x_max":646,"o":"m 429 361 q 274 413 333 361 q 214 549 214 465 q 313 694 214 646 q 252 748 269 721 q 235 814 235 775 q 290 930 235 885 q 429 975 344 975 q 570 930 515 975 q 625 814 625 885 q 607 749 625 775 q 546 694 589 722 q 646 547 646 644 q 586 413 646 465 q 429 361 526 361 m 431 728 q 502 750 475 728 q 529 810 529 772 q 502 870 529 847 q 429 893 475 893 q 358 870 385 893 q 331 810 331 847 q 358 750 331 772 q 431 728 385 728 m 428 444 q 513 473 481 444 q 546 549 546 501 q 514 624 546 596 q 429 653 482 653 q 346 624 378 653 q 314 549 314 596 q 345 473 314 501 q 428 444 376 444 z "},"⁹":{"ha":858,"x_min":217,"x_max":642,"o":"m 425 975 q 589 899 536 975 q 642 683 642 824 q 619 520 642 593 q 546 404 596 447 q 413 361 496 361 q 288 402 336 361 q 228 521 240 443 l 324 521 q 418 443 344 443 q 509 495 478 443 q 540 631 540 547 q 479 591 510 603 q 408 579 449 579 q 270 633 324 579 q 217 769 217 686 q 275 917 217 860 q 425 975 333 975 m 425 892 q 346 859 378 892 q 314 775 314 826 q 343 691 314 722 q 424 660 372 660 q 506 691 475 660 q 538 774 538 722 q 506 858 538 825 q 425 892 474 892 z "}," ":{"ha":858,"x_min":0,"x_max":0,"o":""}," ":{"ha":858,"x_min":0,"x_max":0,"o":""},"⟨":{"ha":858,"x_min":285,"x_max":629,"o":"m 524 1083 l 629 1083 l 396 486 l 629 -111 l 524 -111 l 285 486 l 524 1083 z "},"⟩":{"ha":858,"x_min":229,"x_max":574,"o":"m 335 -111 l 229 -111 l 463 486 l 229 1083 l 335 1083 l 574 486 l 335 -111 z "},".":{"ha":858,"x_min":335,"x_max":524,"o":"m 335 189 l 524 189 l 524 0 l 335 0 l 335 189 z "},",":{"ha":858,"x_min":314,"x_max":524,"o":"m 335 0 l 335 189 l 524 189 l 524 -49 q 477 -181 524 -132 q 339 -229 431 -229 l 314 -229 l 314 -158 l 336 -158 q 446 -53 446 -158 l 446 0 l 335 0 z "},":":{"ha":858,"x_min":335,"x_max":524,"o":"m 524 539 l 335 539 l 335 728 l 524 728 l 524 539 m 335 189 l 524 189 l 524 0 l 335 0 l 335 189 z "},";":{"ha":858,"x_min":314,"x_max":524,"o":"m 524 539 l 335 539 l 335 728 l 524 728 l 524 539 m 335 0 l 335 189 l 524 189 l 524 -49 q 477 -181 524 -132 q 339 -229 431 -229 l 314 -229 l 314 -158 l 336 -158 q 446 -53 446 -158 l 446 0 l 335 0 z "},"…":{"ha":858,"x_min":63,"x_max":796,"o":"m 63 163 l 224 163 l 224 0 l 63 0 l 63 163 m 349 163 l 510 163 l 510 0 l 349 0 l 349 163 m 635 163 l 796 163 l 796 0 l 635 0 l 635 163 z "},"!":{"ha":858,"x_min":353,"x_max":506,"o":"m 367 971 l 493 971 l 493 529 l 457 275 l 401 275 l 367 529 l 367 971 m 353 154 l 506 154 l 506 0 l 353 0 l 353 154 z "},"¡":{"ha":858,"x_min":353,"x_max":506,"o":"m 492 -243 l 365 -243 l 365 199 l 401 453 l 457 453 l 492 199 l 492 -243 m 506 574 l 353 574 l 353 728 l 506 728 l 506 574 z "},"?":{"ha":858,"x_min":129,"x_max":729,"o":"m 481 328 l 481 276 l 356 276 l 356 339 q 365 410 356 381 q 406 476 375 440 q 500 565 438 511 q 581 651 557 614 q 604 746 604 689 q 562 844 604 808 q 440 879 519 879 q 299 832 351 879 q 247 676 247 785 l 129 676 q 216 909 129 831 q 442 988 303 988 q 651 926 574 988 q 729 749 729 865 q 717 658 729 696 q 674 583 704 619 q 590 500 643 547 q 514 424 547 461 q 481 328 481 386 m 340 154 l 493 154 l 493 0 l 340 0 l 340 154 z "},"¿":{"ha":858,"x_min":129,"x_max":729,"o":"m 378 400 l 378 451 l 503 451 l 503 389 q 493 318 503 349 q 453 253 483 288 q 358 163 422 218 q 278 76 303 114 q 254 -18 254 39 q 297 -116 254 -81 q 418 -151 339 -151 q 559 -104 507 -151 q 611 51 611 -57 l 729 51 q 643 -181 729 -103 q 417 -260 557 -260 q 207 -199 285 -260 q 129 -21 129 -137 q 142 70 129 32 q 185 144 154 108 q 268 228 215 181 q 345 304 313 267 q 378 400 378 342 m 518 574 l 365 574 l 365 728 l 518 728 l 518 574 z "},"·":{"ha":858,"x_min":335,"x_max":524,"o":"m 335 554 l 524 554 l 524 365 l 335 365 l 335 554 z "},"•":{"ha":858,"x_min":257,"x_max":601,"o":"m 429 631 q 515 608 476 631 q 578 546 554 585 q 601 458 601 507 q 578 371 601 410 q 515 309 554 332 q 429 286 476 286 q 343 309 382 286 q 281 371 304 332 q 257 458 257 410 q 281 546 257 507 q 343 608 304 585 q 429 631 382 631 z "},"*":{"ha":858,"x_min":57,"x_max":801,"o":"m 697 232 l 599 160 l 429 411 l 260 160 l 161 232 l 347 471 l 57 554 l 94 669 l 378 567 l 368 869 l 490 869 l 481 567 l 764 669 l 801 554 l 511 471 l 697 232 z "},"‖":{"ha":858,"x_min":213,"x_max":646,"o":"m 213 -111 l 213 1082 l 326 1082 l 326 -111 l 213 -111 m 532 -111 l 532 1082 l 646 1082 l 646 -111 l 532 -111 z "},"‼":{"ha":858,"x_min":174,"x_max":685,"o":"m 188 971 l 314 971 l 314 529 l 278 275 l 222 275 l 188 529 l 188 971 m 174 154 l 326 154 l 326 0 l 174 0 l 174 154 m 546 971 l 672 971 l 672 529 l 636 275 l 581 275 l 546 529 l 546 971 m 532 154 l 685 154 l 685 0 l 532 0 l 532 154 z "},"#":{"ha":858,"x_min":44,"x_max":814,"o":"m 136 0 l 183 271 l 44 271 l 44 368 l 200 368 l 242 606 l 83 606 l 83 703 l 258 703 l 306 971 l 407 971 l 360 703 l 574 703 l 621 971 l 722 971 l 675 703 l 814 703 l 814 606 l 658 606 l 617 368 l 775 368 l 775 271 l 600 271 l 553 0 l 451 0 l 499 271 l 285 271 l 238 0 l 136 0 m 301 368 l 515 368 l 557 606 l 343 606 l 301 368 z "},"‾":{"ha":858,"x_min":0,"x_max":858,"o":"m 858 1174 l 0 1174 l 0 1274 l 858 1274 l 858 1174 z "},"/":{"ha":858,"x_min":136,"x_max":722,"o":"m 136 -111 l 604 1103 l 722 1103 l 254 -111 l 136 -111 z "},"\\":{"ha":858,"x_min":136,"x_max":722,"o":"m 722 -111 l 604 -111 l 136 1103 l 254 1103 l 722 -111 z "},"-":{"ha":858,"x_min":167,"x_max":692,"o":"m 167 497 l 692 497 l 692 397 l 167 397 l 167 497 z "},"–":{"ha":858,"x_min":78,"x_max":781,"o":"m 78 497 l 781 497 l 781 397 l 78 397 l 78 497 z "},"—":{"ha":858,"x_min":0,"x_max":858,"o":"m 0 497 l 858 497 l 858 397 l 0 397 l 0 497 z "},"―":{"ha":858,"x_min":0,"x_max":858,"o":"m 0 497 l 858 497 l 858 397 l 0 397 l 0 497 z "},"‑":{"ha":858,"x_min":167,"x_max":692,"o":"m 167 497 l 692 497 l 692 397 l 167 397 l 167 497 z "},"_":{"ha":858,"x_min":0,"x_max":858,"o":"m 0 -203 l 858 -203 l 858 -303 l 0 -303 l 0 -203 z "},"‗":{"ha":858,"x_min":0,"x_max":858,"o":"m 0 -203 l 858 -203 l 858 -303 l 0 -303 l 0 -203 m 0 0 l 858 0 l 858 -100 l 0 -100 l 0 0 z "},"(":{"ha":858,"x_min":304,"x_max":649,"o":"m 524 1083 l 649 1083 q 417 486 417 818 q 649 -111 417 154 l 524 -111 q 364 158 424 1 q 304 486 304 314 q 364 815 304 658 q 524 1083 424 971 z "},")":{"ha":858,"x_min":210,"x_max":554,"o":"m 335 -112 l 210 -112 q 442 485 442 153 q 210 1082 442 817 l 335 1082 q 494 813 435 969 q 554 485 554 657 q 494 156 554 313 q 335 -112 435 0 z "},"{":{"ha":858,"x_min":199,"x_max":639,"o":"m 238 532 q 332 564 304 532 q 360 671 360 596 l 360 900 q 401 1033 360 985 q 511 1082 442 1082 l 639 1082 l 639 990 l 551 990 q 482 972 500 990 q 464 899 464 953 l 464 676 q 438 551 464 592 q 339 486 413 511 q 438 421 413 463 q 464 294 464 379 l 464 72 q 482 -1 464 18 q 551 -19 500 -19 l 639 -19 l 639 -111 l 511 -111 q 401 -62 442 -111 q 360 71 360 -14 l 360 300 q 332 408 360 375 q 238 440 304 440 l 199 440 l 199 532 l 238 532 z "},"}":{"ha":858,"x_min":219,"x_max":660,"o":"m 621 439 q 526 407 554 439 q 499 300 499 375 l 499 71 q 458 -62 499 -14 q 347 -111 417 -111 l 219 -111 l 219 -19 l 307 -19 q 376 -1 358 -19 q 394 72 394 18 l 394 294 q 421 419 394 379 q 519 485 447 460 q 421 550 447 508 q 394 676 394 592 l 394 899 q 376 972 394 953 q 307 990 358 990 l 219 990 l 219 1082 l 347 1082 q 458 1033 417 1082 q 499 900 499 985 l 499 671 q 526 563 499 596 q 621 531 554 531 l 660 531 l 660 439 l 621 439 z "},"[":{"ha":858,"x_min":342,"x_max":628,"o":"m 342 1082 l 628 1082 l 628 990 l 442 990 l 442 -19 l 628 -19 l 628 -111 l 342 -111 l 342 1082 z "},"]":{"ha":858,"x_min":231,"x_max":517,"o":"m 517 -111 l 231 -111 l 231 -19 l 417 -19 l 417 990 l 231 990 l 231 1082 l 517 1082 l 517 -111 z "},"〈":{"ha":858,"x_min":285,"x_max":629,"o":"m 524 1083 l 629 1083 l 396 486 l 629 -111 l 524 -111 l 285 486 l 524 1083 z "},"〉":{"ha":858,"x_min":229,"x_max":574,"o":"m 335 -111 l 229 -111 l 463 486 l 229 1083 l 335 1083 l 574 486 l 335 -111 z "},"〚":{"ha":858,"x_min":258,"x_max":697,"o":"m 258 -111 l 258 1082 l 697 1082 l 697 990 l 553 990 l 553 -19 l 697 -19 l 697 -111 l 258 -111 m 358 -19 l 453 -19 l 453 990 l 358 990 l 358 -19 z "},"〛":{"ha":858,"x_min":161,"x_max":600,"o":"m 600 1082 l 600 -111 l 161 -111 l 161 -19 l 306 -19 l 306 990 l 161 990 l 161 1082 l 600 1082 m 500 990 l 406 990 l 406 -19 l 500 -19 l 500 990 z "},"‚":{"ha":858,"x_min":314,"x_max":524,"o":"m 335 0 l 335 189 l 524 189 l 524 -49 q 477 -181 524 -132 q 339 -229 431 -229 l 314 -229 l 314 -158 l 336 -158 q 446 -53 446 -158 l 446 0 l 335 0 z "},"„":{"ha":858,"x_min":154,"x_max":683,"o":"m 175 0 l 175 189 l 364 189 l 364 -49 q 317 -181 364 -132 q 179 -229 271 -229 l 154 -229 l 154 -158 l 176 -158 q 286 -53 286 -158 l 286 0 l 175 0 m 494 0 l 494 189 l 683 189 l 683 -49 q 637 -181 683 -132 q 499 -229 590 -229 l 474 -229 l 474 -158 l 496 -158 q 606 -53 606 -158 l 606 0 l 494 0 z "},"“":{"ha":858,"x_min":175,"x_max":704,"o":"m 683 742 l 683 553 l 494 553 l 494 790 q 541 922 494 874 q 679 971 588 971 l 704 971 l 704 900 l 682 900 q 572 794 572 900 l 572 742 l 683 742 m 364 742 l 364 553 l 175 553 l 175 790 q 222 922 175 874 q 360 971 268 971 l 385 971 l 385 900 l 363 900 q 253 794 253 900 l 253 742 l 364 742 z "},"”":{"ha":858,"x_min":154,"x_max":683,"o":"m 175 782 l 175 971 l 364 971 l 364 733 q 317 601 364 650 q 179 553 271 553 l 154 553 l 154 624 l 176 624 q 286 729 286 624 l 286 782 l 175 782 m 494 782 l 494 971 l 683 971 l 683 733 q 637 601 683 650 q 499 553 590 553 l 474 553 l 474 624 l 496 624 q 606 729 606 624 l 606 782 l 494 782 z "},"‘":{"ha":858,"x_min":335,"x_max":544,"o":"m 524 742 l 524 553 l 335 553 l 335 790 q 381 922 335 874 q 519 971 428 971 l 544 971 l 544 900 l 522 900 q 413 794 413 900 l 413 742 l 524 742 z "},"’":{"ha":858,"x_min":314,"x_max":524,"o":"m 335 782 l 335 971 l 524 971 l 524 733 q 477 601 524 650 q 339 553 431 553 l 314 553 l 314 624 l 336 624 q 446 729 446 624 l 446 782 l 335 782 z "},"‛":{"ha":858,"x_min":335,"x_max":544,"o":"m 524 782 l 413 782 l 413 729 q 522 624 413 624 l 544 624 l 544 553 l 519 553 q 381 601 428 553 q 335 733 335 650 l 335 971 l 524 971 l 524 782 z "},"«":{"ha":858,"x_min":100,"x_max":758,"o":"m 396 103 l 100 332 l 100 465 l 396 694 l 396 565 l 179 401 l 396 236 l 396 103 m 758 103 l 463 332 l 463 465 l 758 694 l 758 565 l 542 401 l 758 236 l 758 103 z "},"»":{"ha":858,"x_min":100,"x_max":758,"o":"m 463 694 l 758 465 l 758 332 l 463 103 l 463 232 l 679 396 l 463 561 l 463 694 m 100 694 l 396 465 l 396 332 l 100 103 l 100 232 l 317 396 l 100 561 l 100 694 z "},"‹":{"ha":858,"x_min":239,"x_max":619,"o":"m 619 103 l 239 329 l 239 468 l 619 694 l 619 571 l 318 400 l 619 229 l 619 103 z "},"›":{"ha":858,"x_min":239,"x_max":619,"o":"m 239 694 l 619 468 l 619 329 l 239 103 l 239 226 l 540 397 l 239 568 l 239 694 z "},"\"":{"ha":858,"x_min":219,"x_max":639,"o":"m 219 761 l 219 971 l 361 971 l 361 761 l 324 542 l 257 542 l 219 761 m 497 761 l 497 971 l 639 971 l 639 761 l 601 542 l 535 542 l 497 761 z "},"'":{"ha":858,"x_min":358,"x_max":500,"o":"m 358 761 l 358 971 l 500 971 l 500 761 l 463 542 l 396 542 l 358 761 z "},"ƒ":{"ha":858,"x_min":61,"x_max":799,"o":"m 538 642 l 694 642 l 694 544 l 519 544 l 417 -7 q 325 -215 390 -149 q 240 -274 290 -253 q 138 -294 190 -294 q 61 -281 88 -294 l 85 -162 q 156 -186 117 -186 q 289 -29 257 -186 l 397 544 l 240 544 l 240 642 l 414 642 l 444 786 q 531 958 467 899 q 689 1025 600 1025 q 799 999 742 1025 l 758 889 q 685 914 713 914 q 556 739 583 914 l 538 642 z "},"฿":{"ha":858,"x_min":128,"x_max":799,"o":"m 389 -135 l 389 6 l 128 6 l 128 965 l 389 965 l 389 1103 l 468 1103 l 468 965 l 474 965 q 685 901 604 965 q 767 721 767 836 q 736 592 767 649 q 640 510 706 536 q 753 426 708 485 q 799 276 799 367 q 765 141 799 203 q 667 42 732 79 q 506 6 601 6 l 468 6 l 468 -135 l 389 -135 m 242 861 l 242 550 l 389 550 l 389 861 l 242 861 m 469 861 l 468 861 l 468 550 l 469 550 q 599 583 547 550 q 650 706 650 615 q 599 828 650 796 q 469 861 547 861 m 242 446 l 242 110 l 389 110 l 389 446 l 242 446 m 506 446 l 468 446 l 468 110 l 506 110 q 640 157 597 110 q 682 278 682 204 q 640 399 682 351 q 506 446 597 446 z "},"☰":{"ha":858,"x_min":158,"x_max":700,"o":"m 158 764 l 158 869 l 700 869 l 700 764 l 158 764 m 158 436 l 158 542 l 700 542 l 700 436 l 158 436 m 158 108 l 158 214 l 700 214 l 700 108 l 158 108 z "},"✓":{"ha":858,"x_min":51,"x_max":844,"o":"m 767 819 l 844 753 l 331 163 l 51 481 l 132 550 l 333 322 l 767 819 z "},"✗":{"ha":858,"x_min":101,"x_max":758,"o":"m 176 163 l 101 238 l 354 492 l 101 744 l 176 819 l 431 567 l 683 819 l 758 744 l 506 492 l 758 238 l 683 163 l 431 415 l 176 163 z "},"":{"ha":858,"x_min":201,"x_max":6794,"o":"m 201 0 l 201 810 l 792 810 l 792 704 l 324 704 l 324 468 l 736 468 l 736 363 l 324 363 l 324 0 l 201 0 m 968 0 l 968 810 l 1350 810 q 1537 753 1469 810 q 1604 593 1604 696 q 1572 476 1604 522 q 1467 397 1540 429 q 1538 358 1514 379 q 1572 299 1563 338 q 1582 190 1581 261 q 1583 161 1582 182 q 1588 117 1585 140 q 1593 82 1590 94 q 1605 53 1596 67 q 1632 26 1614 39 l 1632 0 l 1489 0 q 1469 58 1475 28 q 1463 135 1463 88 q 1463 173 1463 158 q 1464 211 1464 188 q 1434 308 1464 276 q 1331 340 1404 340 l 1090 340 l 1090 0 l 968 0 m 1090 446 l 1319 446 q 1437 475 1396 446 q 1478 575 1478 504 q 1438 675 1478 646 q 1319 704 1397 704 l 1090 704 l 1090 446 m 1739 0 l 2042 810 l 2193 810 l 2490 0 l 2357 0 l 2278 219 l 1950 219 l 1868 0 l 1739 0 m 1982 322 l 2243 322 l 2115 675 l 1982 322 m 2965 -14 q 2758 40 2846 -14 q 2622 188 2669 94 q 2575 397 2575 282 q 2624 617 2575 521 q 2763 768 2672 713 q 2978 824 2853 824 q 3139 794 3065 824 q 3262 706 3213 764 q 3326 561 3311 647 l 3204 561 q 3122 678 3185 639 q 2976 717 3058 717 q 2823 675 2885 717 q 2729 562 2761 633 q 2697 401 2697 490 q 2732 242 2697 313 q 2830 132 2767 172 q 2981 92 2893 92 q 3161 152 3093 92 q 3229 310 3229 213 l 3229 325 l 2993 325 l 2993 431 l 3335 431 l 3335 -4 l 3244 -4 l 3233 115 q 3108 17 3172 47 q 2965 -14 3044 -14 m 3529 0 l 3529 810 l 3703 810 l 3935 122 l 4161 810 l 4335 810 l 4335 0 l 4218 0 l 4218 665 l 3997 0 l 3871 0 l 3647 665 l 3647 0 l 3529 0 m 4540 0 l 4540 810 l 5135 810 l 5135 704 l 4663 704 l 4663 468 l 5114 468 l 5114 363 l 4663 363 l 4663 106 l 5156 106 l 5156 0 l 4540 0 m 5324 0 l 5324 810 l 5454 810 l 5876 181 l 5876 810 l 5994 810 l 5994 0 l 5861 0 l 5442 628 l 5442 0 l 5324 0 m 6399 0 l 6399 704 l 6124 704 l 6124 810 l 6794 810 l 6794 704 l 6521 704 l 6521 0 l 6399 0 z "},"@":{"ha":858,"x_min":32,"x_max":836,"o":"m 558 603 l 575 681 l 658 681 l 575 232 q 581 174 569 197 q 622 151 593 151 q 685 197 657 151 q 729 317 713 242 q 746 483 746 393 q 675 794 746 686 q 468 901 604 901 q 284 835 361 901 q 166 648 207 768 q 125 369 125 528 q 160 161 125 251 q 252 10 196 71 q 375 -82 308 -51 q 504 -112 442 -112 q 599 -103 561 -112 q 675 -76 636 -94 l 703 -154 q 617 -185 663 -174 q 503 -197 571 -197 q 326 -159 411 -197 q 175 -49 242 -121 q 70 128 108 24 q 32 365 32 232 q 85 698 32 558 q 238 913 139 838 q 471 988 336 988 q 741 856 646 988 q 836 485 836 724 q 807 269 836 363 q 728 123 778 175 q 615 71 679 71 q 542 95 572 71 q 504 171 513 119 q 445 96 481 121 q 376 71 410 71 q 263 139 306 71 q 219 325 219 207 q 253 524 219 439 q 340 657 286 610 q 451 704 393 704 q 524 674 497 704 q 558 603 550 643 m 447 614 q 381 577 411 614 q 331 475 350 540 q 313 324 313 410 q 332 203 313 244 q 396 163 351 163 q 447 185 428 163 q 486 251 467 207 q 505 317 496 276 q 519 403 514 358 q 525 486 525 449 q 504 581 525 547 q 447 614 483 614 z "},"&":{"ha":858,"x_min":72,"x_max":853,"o":"m 711 0 l 631 107 q 506 15 575 49 q 361 -18 436 -18 q 150 57 228 -18 q 72 263 72 132 q 235 532 72 432 l 286 564 l 285 567 q 206 682 232 638 q 179 779 179 726 q 212 889 179 842 q 298 963 244 936 q 413 990 351 990 q 570 937 508 990 q 632 786 632 883 q 598 673 632 725 q 500 579 564 621 l 440 540 l 632 288 q 678 467 669 369 l 781 467 q 756 325 776 393 q 700 200 735 257 l 853 0 l 711 0 m 338 674 l 382 617 l 457 664 q 507 717 489 683 q 525 790 525 751 q 494 866 525 839 q 411 893 464 893 q 326 864 360 893 q 292 789 292 835 q 301 734 292 761 q 338 674 311 707 m 185 263 q 236 139 185 188 q 364 90 288 90 q 476 116 424 90 q 569 189 528 142 l 344 486 l 297 456 q 210 371 235 415 q 185 263 185 326 z "},"¶":{"ha":858,"x_min":86,"x_max":772,"o":"m 424 971 l 772 971 l 772 882 l 693 882 l 693 -111 l 604 -111 l 604 882 l 490 882 l 490 -111 l 401 -111 l 401 318 q 228 369 299 324 q 122 486 157 415 q 86 638 86 557 q 129 806 86 731 q 249 926 172 882 q 424 971 325 971 z "},"§":{"ha":858,"x_min":108,"x_max":750,"o":"m 672 -78 q 637 -205 672 -151 q 543 -287 601 -258 q 414 -315 485 -315 q 293 -290 353 -315 q 194 -205 233 -265 q 156 -39 156 -144 l 274 -39 q 310 -164 274 -119 q 415 -208 347 -208 q 510 -177 472 -208 q 547 -89 547 -146 q 472 33 547 -18 l 236 196 q 141 289 174 240 q 108 414 108 338 q 142 533 108 483 q 254 622 176 582 q 209 689 225 650 q 193 763 193 728 q 228 883 193 832 q 323 964 264 935 q 450 993 382 993 q 623 928 554 993 q 692 747 692 863 l 692 708 l 576 708 l 576 744 q 540 847 576 807 q 442 886 504 886 q 351 851 385 886 q 318 768 318 817 q 335 714 318 738 q 397 661 353 690 l 600 531 q 717 425 683 478 q 750 299 750 372 q 599 82 750 138 q 651 10 631 53 q 672 -78 672 -33 m 308 299 l 538 128 q 615 190 589 153 q 640 269 640 228 q 539 424 640 356 l 317 576 q 240 510 263 542 q 218 436 218 478 q 236 367 218 394 q 308 299 254 339 z "},"©":{"ha":858,"x_min":58,"x_max":800,"o":"m 429 233 q 240 283 324 233 q 107 417 156 332 q 58 608 58 503 q 107 800 58 715 q 240 934 156 885 q 429 983 324 983 q 619 934 536 983 q 751 800 703 885 q 800 608 800 715 q 751 417 800 503 q 619 283 703 332 q 429 233 536 233 m 429 293 q 588 335 518 293 q 699 448 658 376 q 740 608 740 519 q 699 769 740 697 q 588 882 658 840 q 429 924 518 924 q 270 882 340 924 q 159 769 200 840 q 118 608 118 697 q 159 448 118 519 q 270 335 200 376 q 429 293 340 293 m 428 407 q 298 465 342 407 q 254 608 254 524 q 301 756 254 700 q 431 811 347 811 q 539 776 493 811 q 590 665 585 740 l 508 665 q 483 724 501 706 q 433 742 464 742 q 358 701 381 742 q 336 607 336 661 q 357 515 336 556 q 431 475 378 475 q 508 557 500 475 l 592 557 q 542 446 589 485 q 428 407 496 407 z "},"®":{"ha":858,"x_min":58,"x_max":800,"o":"m 429 233 q 240 283 324 233 q 107 417 156 332 q 58 608 58 503 q 107 800 58 715 q 240 934 156 885 q 429 983 324 983 q 619 934 536 983 q 751 800 703 885 q 800 608 800 715 q 751 417 800 503 q 619 283 703 332 q 429 233 536 233 m 429 293 q 588 335 518 293 q 699 448 658 376 q 740 608 740 519 q 699 769 740 697 q 588 882 658 840 q 429 924 518 924 q 270 882 340 924 q 159 769 200 840 q 118 608 118 697 q 159 448 118 519 q 270 335 200 376 q 429 293 340 293 m 289 417 l 289 801 l 490 801 q 570 772 544 801 q 596 697 596 742 q 532 603 596 629 q 568 581 557 593 q 582 543 579 568 q 586 461 583 521 q 603 431 588 440 l 603 417 l 524 417 q 515 443 517 431 q 513 482 513 456 l 513 510 q 512 533 513 521 q 504 554 511 546 q 461 572 492 572 l 363 572 l 363 417 l 289 417 m 363 633 l 463 633 q 509 645 494 633 q 524 688 524 657 q 509 728 524 717 q 463 740 494 740 l 363 740 l 363 633 z "},"℗":{"ha":858,"x_min":58,"x_max":800,"o":"m 429 233 q 240 283 324 233 q 107 417 156 332 q 58 608 58 503 q 107 800 58 715 q 240 934 156 885 q 429 983 324 983 q 619 934 536 983 q 751 800 703 885 q 800 608 800 715 q 751 417 800 503 q 619 283 703 332 q 429 233 536 233 m 429 293 q 588 335 518 293 q 699 448 658 376 q 740 608 740 519 q 699 769 740 697 q 588 882 658 840 q 429 924 518 924 q 270 882 340 924 q 159 769 200 840 q 118 608 118 697 q 159 448 118 519 q 270 335 200 376 q 429 293 340 293 m 382 419 l 303 419 l 303 804 l 472 804 q 596 685 596 804 q 565 592 596 626 q 481 557 533 557 l 382 557 l 382 419 m 456 622 q 517 681 517 622 q 456 739 517 739 l 382 739 l 382 622 l 456 622 z "},"™":{"ha":858,"x_min":46,"x_max":786,"o":"m 163 461 l 163 907 l 46 907 l 46 971 l 353 971 l 353 907 l 239 907 l 239 461 l 163 461 m 413 461 l 413 971 l 526 971 l 603 533 l 678 971 l 786 971 l 786 461 l 717 461 l 717 888 l 642 461 l 560 461 l 483 888 l 483 461 l 413 461 z "},"°":{"ha":858,"x_min":186,"x_max":674,"o":"m 431 499 q 306 531 361 499 q 218 619 250 564 q 186 744 186 675 q 218 869 186 814 q 306 956 250 924 q 431 989 361 989 q 556 956 501 989 q 642 869 611 924 q 674 744 674 814 q 642 619 674 675 q 556 531 611 564 q 431 499 501 499 m 431 585 q 540 631 497 585 q 582 744 582 676 q 540 857 582 811 q 431 903 497 903 q 321 857 364 903 q 278 744 278 811 q 321 631 278 676 q 431 585 364 585 z "},"′":{"ha":858,"x_min":325,"x_max":533,"o":"m 404 971 l 533 971 l 418 553 l 325 553 l 404 971 z "},"″":{"ha":858,"x_min":200,"x_max":658,"o":"m 279 971 l 408 971 l 293 553 l 200 553 l 279 971 m 529 971 l 658 971 l 543 553 l 450 553 l 529 971 z "},"|":{"ha":858,"x_min":372,"x_max":486,"o":"m 372 -111 l 372 1082 l 486 1082 l 486 -111 l 372 -111 z "},"¦":{"ha":858,"x_min":372,"x_max":486,"o":"m 372 607 l 372 1082 l 486 1082 l 486 607 l 372 607 m 486 364 l 486 -111 l 372 -111 l 372 364 l 486 364 z "},"†":{"ha":858,"x_min":140,"x_max":719,"o":"m 486 728 l 719 728 l 719 622 l 486 622 l 486 -111 l 374 -111 l 374 622 l 140 622 l 140 728 l 374 728 l 374 971 l 486 971 l 486 728 z "},"ℓ":{"ha":858,"x_min":225,"x_max":644,"o":"m 522 -15 q 379 27 433 -15 q 325 161 325 69 l 325 324 q 225 282 278 299 l 225 378 q 325 422 279 396 l 325 808 q 370 944 325 894 q 496 993 415 993 q 606 957 568 993 q 644 829 644 921 q 590 597 644 715 q 429 392 536 479 l 429 185 q 455 106 429 135 q 529 78 481 78 q 635 93 589 78 l 635 1 q 580 -12 608 -8 q 522 -15 551 -15 m 429 824 l 429 507 q 519 656 489 572 q 549 831 549 739 q 533 890 549 872 q 492 907 518 907 q 429 824 429 907 z "},"‡":{"ha":858,"x_min":140,"x_max":719,"o":"m 374 -111 l 374 132 l 140 132 l 140 238 l 374 238 l 374 622 l 140 622 l 140 728 l 374 728 l 374 971 l 486 971 l 486 728 l 719 728 l 719 622 l 486 622 l 486 238 l 719 238 l 719 132 l 486 132 l 486 -111 l 374 -111 z "},"℮":{"ha":858,"x_min":101,"x_max":758,"o":"m 758 349 l 758 339 l 240 339 l 239 203 q 290 108 260 135 q 435 61 342 61 q 640 167 574 61 q 661 207 646 172 l 740 207 l 738 197 q 432 -18 668 -18 q 188 85 275 -18 q 101 354 101 183 q 196 636 101 533 q 435 735 288 735 q 642 668 557 735 q 756 413 746 588 q 757 391 757 407 q 758 349 757 375 m 243 406 l 639 406 l 639 524 q 626 552 633 539 q 608 576 618 565 q 433 656 543 656 q 292 601 344 656 q 243 524 268 575 l 243 406 z "},"№":{"ha":858,"x_min":60,"x_max":843,"o":"m 667 494 q 537 558 585 494 q 489 735 489 621 q 536 912 489 849 q 665 975 583 975 q 797 910 750 975 q 843 731 843 846 q 796 558 843 621 q 667 494 749 494 m 347 971 l 429 971 l 429 0 l 306 0 l 142 800 l 142 0 l 60 0 l 60 971 l 179 971 l 347 164 l 347 971 m 664 567 q 735 607 708 567 q 763 735 763 647 q 735 862 763 821 q 665 903 708 903 q 596 862 622 903 q 569 733 569 821 q 596 608 569 649 q 664 567 622 567 m 513 444 l 819 444 l 819 374 l 513 374 l 513 444 z "},"⎘":{"ha":858,"x_min":97,"x_max":761,"o":"m 97 75 l 97 714 l 289 714 l 289 904 l 761 904 l 761 265 l 569 265 l 569 75 l 97 75 m 569 349 l 678 349 l 678 821 l 372 821 l 372 714 l 569 714 l 569 349 m 181 158 l 486 158 l 486 631 l 181 631 l 181 158 z "},"₳":{"ha":858,"x_min":22,"x_max":838,"o":"m 22 363 l 167 363 l 197 463 l 22 463 l 22 554 l 225 554 l 353 971 l 506 971 l 633 554 l 838 554 l 838 463 l 661 463 l 692 363 l 838 363 l 838 271 l 719 271 l 803 0 l 686 0 l 604 271 l 250 271 l 169 0 l 56 0 l 139 271 l 22 271 l 22 363 m 335 554 l 519 554 l 426 864 l 335 554 m 278 363 l 576 363 l 547 463 l 307 463 l 278 363 z "},"₿":{"ha":858,"x_min":128,"x_max":799,"o":"m 278 -135 l 278 6 l 128 6 l 128 965 l 278 965 l 278 1103 l 371 1103 l 371 965 l 471 965 l 471 1103 l 564 1103 l 564 956 q 712 875 657 936 q 767 721 767 814 q 736 592 767 649 q 640 510 706 536 q 753 426 708 485 q 799 276 799 367 q 739 101 799 176 q 564 10 679 26 l 564 -135 l 471 -135 l 471 6 l 371 6 l 371 -135 l 278 -135 m 242 861 l 242 550 l 469 550 q 599 583 547 550 q 650 706 650 615 q 599 828 650 796 q 469 861 547 861 l 242 861 m 242 446 l 242 110 l 506 110 q 640 157 597 110 q 682 278 682 204 q 640 399 682 351 q 506 446 597 446 l 242 446 z "},"₵":{"ha":858,"x_min":103,"x_max":782,"o":"m 422 -135 l 422 -22 q 183 128 264 -7 q 103 482 103 263 q 134 722 103 613 q 235 903 165 832 q 422 990 306 975 l 422 1103 l 501 1103 l 501 992 q 683 915 607 985 q 779 714 760 846 l 656 714 q 602 834 644 790 q 501 886 560 878 l 501 82 q 598 140 557 93 q 658 274 639 186 l 782 274 q 685 68 761 147 q 501 -22 608 -11 l 501 -135 l 422 -135 m 224 483 q 276 201 224 301 q 422 83 329 101 l 422 883 q 271 753 318 861 q 224 483 224 644 z "},"¢":{"ha":858,"x_min":124,"x_max":743,"o":"m 401 -135 l 401 -22 q 250 41 313 -11 q 156 175 188 93 q 124 356 124 257 q 154 542 124 457 q 247 681 185 626 q 401 747 308 736 l 401 860 l 481 860 l 481 749 q 665 667 597 739 q 735 488 732 596 l 628 488 q 581 594 619 554 q 481 643 543 635 l 481 81 q 635 254 610 97 l 743 254 q 665 65 732 142 q 481 -24 597 -12 l 481 -135 l 401 -135 m 236 356 q 253 233 236 290 q 306 135 269 175 q 401 83 343 96 l 401 642 q 304 586 340 629 q 252 483 268 543 q 236 356 236 422 z "},"₡":{"ha":858,"x_min":103,"x_max":842,"o":"m 118 -135 l 204 97 q 103 482 103 231 q 123 679 103 586 q 187 842 143 772 q 302 953 231 913 q 476 993 374 993 q 535 988 507 993 l 578 1103 l 661 1103 l 610 965 q 688 911 653 944 l 758 1103 l 842 1103 l 742 835 q 779 714 769 782 l 697 714 l 461 79 l 465 79 q 585 126 533 79 q 658 274 636 172 l 782 274 q 722 115 767 182 q 611 12 678 49 q 464 -25 544 -25 q 424 -24 443 -25 l 382 -135 l 299 -135 l 346 -7 q 265 38 301 10 l 201 -135 l 118 -135 m 224 483 q 258 243 224 339 l 497 888 q 472 889 485 889 q 331 838 386 889 q 249 694 275 786 q 224 483 224 603 m 308 153 q 383 94 340 113 l 638 779 q 571 860 615 832 l 308 153 z "},"¤":{"ha":858,"x_min":136,"x_max":722,"o":"m 642 339 l 717 264 l 636 189 l 563 263 q 424 221 507 221 q 293 256 350 221 l 221 185 l 144 264 l 211 332 q 167 474 167 393 q 211 615 167 551 l 136 692 l 215 765 l 290 689 q 424 725 351 725 q 563 686 506 725 l 643 760 l 722 679 l 646 603 q 682 474 682 546 q 642 339 682 404 m 424 618 q 319 575 363 618 q 276 472 276 533 q 319 371 276 413 q 424 328 363 328 q 529 371 486 328 q 572 471 572 413 q 529 575 572 533 q 424 618 486 618 z "},"$":{"ha":858,"x_min":100,"x_max":758,"o":"m 389 -135 l 389 -8 q 237 42 301 0 q 137 149 172 83 q 100 297 101 215 l 206 297 q 255 156 208 213 q 389 88 301 99 l 389 447 l 326 464 q 176 556 232 489 q 119 714 119 622 q 190 894 119 822 q 389 976 261 965 l 389 1103 l 468 1103 l 468 976 q 656 894 588 965 q 729 708 725 824 l 624 708 q 581 822 619 775 q 468 881 543 869 l 468 538 l 558 513 q 706 422 653 486 q 758 271 758 358 q 680 78 758 153 q 468 -8 601 3 l 468 -135 l 389 -135 m 346 571 l 389 558 l 389 882 q 272 835 317 874 q 226 725 226 796 q 257 628 226 669 q 346 571 288 586 m 522 411 l 468 426 l 468 86 q 603 140 556 94 q 651 256 651 185 q 621 353 651 314 q 522 411 590 393 z "},"₫":{"ha":858,"x_min":88,"x_max":804,"o":"m 382 879 l 382 971 l 579 971 l 579 1103 l 688 1103 l 688 971 l 804 971 l 804 879 l 688 879 l 688 154 l 592 154 l 592 271 q 497 173 551 204 q 375 142 442 142 q 219 185 283 142 q 121 306 154 229 q 88 479 88 382 q 122 641 88 568 q 219 757 156 714 q 371 800 283 800 q 491 773 438 800 q 579 685 544 746 l 579 879 l 382 879 m 390 699 q 290 669 333 699 q 224 588 247 639 q 200 471 200 536 q 222 359 200 411 q 286 275 243 307 q 392 243 329 243 q 500 276 458 243 q 560 361 542 310 q 579 467 579 413 q 560 581 579 528 q 499 666 540 633 q 390 699 457 699 m 107 -42 l 107 50 l 751 50 l 751 -42 l 107 -42 z "},"€":{"ha":858,"x_min":32,"x_max":828,"o":"m 32 432 l 150 432 q 149 482 149 457 q 150 532 149 507 l 32 532 l 32 624 l 158 624 q 217 813 174 729 q 335 945 260 897 q 522 993 410 993 q 720 924 636 993 q 825 714 804 854 l 701 714 q 638 844 689 800 q 518 889 586 889 q 357 817 415 889 q 279 624 299 744 l 528 624 l 528 532 l 271 532 q 269 483 269 508 q 271 432 269 457 l 528 432 l 528 340 l 279 340 q 361 144 301 210 q 511 79 421 79 q 631 126 579 79 q 704 274 682 172 l 828 274 q 768 115 813 182 q 657 11 724 47 q 510 -25 590 -25 q 272 72 361 -25 q 158 340 183 169 l 32 340 l 32 432 z "},"₣":{"ha":858,"x_min":93,"x_max":822,"o":"m 93 208 l 93 301 l 210 301 l 210 971 l 822 971 l 822 867 l 326 867 l 326 586 l 756 586 l 756 482 l 326 482 l 326 301 l 572 301 l 572 208 l 326 208 l 326 0 l 210 0 l 210 208 l 93 208 z "},"₲":{"ha":858,"x_min":103,"x_max":779,"o":"m 422 -135 l 422 -22 q 183 128 264 -7 q 103 482 103 263 q 134 722 103 613 q 235 903 165 832 q 422 990 306 975 l 422 1103 l 501 1103 l 501 992 q 683 915 607 985 q 779 714 760 846 l 656 714 q 602 834 644 790 q 501 886 560 878 l 501 514 l 778 514 l 778 0 l 696 0 l 689 107 q 608 21 660 54 q 501 -22 556 -12 l 501 -135 l 422 -135 m 224 483 q 275 206 224 306 q 422 85 326 107 l 422 883 q 271 753 318 861 q 224 483 224 644 m 678 414 l 501 414 l 501 81 q 585 109 544 85 q 652 187 626 133 q 678 329 678 240 l 678 414 z "},"₴":{"ha":858,"x_min":39,"x_max":819,"o":"m 39 624 l 585 624 q 610 725 610 663 q 563 848 610 801 q 433 894 515 894 q 287 852 342 894 q 226 736 232 810 l 115 736 q 206 924 121 856 q 433 993 292 993 q 642 922 563 993 q 721 726 721 850 q 701 624 721 674 l 819 624 l 819 532 l 39 532 l 39 624 m 39 432 l 819 432 l 819 340 l 247 340 q 233 256 233 304 q 291 123 233 172 q 449 74 349 74 q 603 119 546 74 q 661 243 660 164 l 772 243 q 728 103 771 164 q 614 9 686 43 q 449 -25 542 -25 q 208 51 294 -25 q 122 253 122 126 q 125 298 122 276 q 136 340 128 319 l 39 340 l 39 432 z "},"₭":{"ha":858,"x_min":36,"x_max":844,"o":"m 281 0 l 167 0 l 167 439 l 36 439 l 36 532 l 167 532 l 167 971 l 281 971 l 281 515 l 689 971 l 831 971 l 432 532 l 785 532 l 785 439 l 432 439 l 844 0 l 694 0 l 281 447 l 281 0 z "},"₾":{"ha":858,"x_min":68,"x_max":818,"o":"m 110 0 l 110 100 l 328 100 q 241 160 286 119 q 156 257 196 200 q 92 385 117 314 q 68 539 68 457 q 128 801 68 693 q 300 953 189 910 l 300 1103 l 393 1103 l 393 976 q 447 979 419 979 q 493 978 471 979 l 493 1103 l 586 1103 l 586 960 q 756 828 694 924 q 818 572 818 732 l 710 572 q 676 751 710 685 q 586 847 643 818 l 586 572 l 493 572 l 493 874 q 447 876 471 876 q 393 872 419 876 l 393 572 l 300 572 l 300 840 q 208 732 242 804 q 174 544 174 660 q 208 377 174 457 q 303 235 242 297 q 447 136 364 172 q 631 100 531 100 l 776 100 l 776 0 l 110 0 z "},"₤":{"ha":858,"x_min":131,"x_max":779,"o":"m 131 357 l 299 357 q 279 406 292 381 q 253 457 267 431 l 131 457 l 131 549 l 203 549 q 174 622 186 583 q 163 701 163 660 q 202 853 163 788 q 313 956 242 918 q 476 993 383 993 q 691 920 608 993 q 779 719 774 847 l 663 719 q 606 845 653 801 q 478 889 558 889 q 335 840 390 889 q 279 708 279 790 q 294 628 279 668 q 329 549 308 589 l 625 549 l 625 457 l 372 457 q 390 408 382 433 q 401 357 397 383 l 625 357 l 625 265 l 399 265 q 356 173 388 214 q 278 100 324 132 l 779 100 l 779 0 l 131 0 l 131 93 q 240 175 197 132 q 296 265 282 218 l 131 265 l 131 357 z "},"₺":{"ha":858,"x_min":32,"x_max":810,"o":"m 172 0 l 172 297 l 32 214 l 32 321 l 172 404 l 172 521 l 32 438 l 32 544 l 172 628 l 172 971 l 283 971 l 283 693 l 514 829 l 514 722 l 283 586 l 283 469 l 514 606 l 514 499 l 283 363 l 283 108 l 364 108 q 607 208 522 108 q 696 476 692 308 l 810 476 q 753 220 810 326 q 591 57 697 114 q 335 0 485 0 l 172 0 z "},"₼":{"ha":858,"x_min":74,"x_max":785,"o":"m 74 0 l 74 567 q 113 747 74 669 q 221 873 153 825 q 375 932 289 921 l 375 1103 l 483 1103 l 483 932 q 638 873 569 921 q 745 747 706 825 q 785 567 785 669 l 785 0 l 671 0 l 671 550 q 622 737 671 664 q 483 826 572 810 l 483 150 l 375 150 l 375 826 q 237 737 286 810 q 188 550 188 664 l 188 0 l 74 0 z "},"₦":{"ha":858,"x_min":22,"x_max":811,"o":"m 139 0 l 139 439 l 22 439 l 22 532 l 139 532 l 139 971 l 276 971 l 446 532 l 601 532 l 601 971 l 694 971 l 694 532 l 811 532 l 811 439 l 694 439 l 694 0 l 557 0 l 388 439 l 232 439 l 232 0 l 139 0 m 232 532 l 351 532 l 232 840 l 232 532 m 482 439 l 601 128 l 601 439 l 482 439 z "},"₧":{"ha":858,"x_min":8,"x_max":849,"o":"m 139 0 l 139 607 l 8 607 l 8 700 l 139 700 l 139 971 l 406 971 q 553 940 486 971 q 663 849 619 910 q 715 700 706 789 l 849 700 l 849 607 l 715 607 q 663 456 707 517 q 553 365 619 396 q 406 335 486 335 l 253 335 l 253 0 l 139 0 m 253 867 l 253 700 l 594 700 q 535 821 583 775 q 407 867 488 867 l 253 867 m 253 439 l 407 439 q 536 485 488 439 q 596 607 585 532 l 253 607 l 253 439 z "},"₱":{"ha":858,"x_min":8,"x_max":850,"o":"m 139 0 l 139 522 l 8 522 l 8 608 l 139 608 l 139 697 l 8 697 l 8 783 l 139 783 l 139 971 l 406 971 q 584 924 506 971 q 697 783 663 876 l 850 783 l 850 697 l 715 697 q 718 653 718 675 q 715 608 718 629 l 850 608 l 850 522 l 696 522 q 584 382 663 429 q 406 335 506 335 l 243 335 l 243 0 l 139 0 m 243 872 l 243 783 l 578 783 q 513 848 554 824 q 415 872 471 872 l 243 872 m 611 653 q 608 697 611 676 l 243 697 l 243 608 l 608 608 q 611 653 611 629 m 243 433 l 415 433 q 513 458 471 433 q 578 522 554 482 l 243 522 l 243 433 z "},"₽":{"ha":858,"x_min":65,"x_max":825,"o":"m 65 210 l 65 304 l 196 304 l 196 418 l 65 418 l 65 522 l 196 522 l 196 971 l 526 971 q 677 940 610 971 q 785 847 744 908 q 825 694 825 786 q 785 542 825 604 q 677 449 744 481 q 526 418 610 418 l 310 418 l 310 304 l 519 304 l 519 210 l 310 210 l 310 0 l 196 0 l 196 210 l 65 210 m 525 867 l 310 867 l 310 522 l 525 522 q 660 569 611 522 q 708 694 708 617 q 660 819 708 772 q 525 867 611 867 z "},"₨":{"ha":858,"x_min":58,"x_max":861,"o":"m 239 413 l 165 413 l 165 0 l 58 0 l 58 971 l 247 971 q 413 897 354 971 q 472 708 472 822 q 440 561 472 629 q 351 468 408 493 q 417 419 393 454 q 443 319 440 385 l 450 164 q 456 92 453 129 q 482 32 460 54 l 482 0 l 372 0 q 351 66 360 28 q 342 163 342 104 l 342 293 q 319 383 342 353 q 239 413 296 413 m 165 867 l 165 517 l 226 517 q 328 564 296 517 q 360 699 360 611 q 330 825 360 783 q 226 867 300 867 l 165 867 m 856 543 l 750 543 q 734 611 749 586 q 688 636 719 636 q 636 613 653 636 q 619 557 619 590 q 681 436 619 483 l 751 381 q 837 286 813 333 q 861 171 861 239 q 816 38 861 86 q 688 -11 771 -11 q 553 40 599 -11 q 511 182 507 90 l 617 182 q 634 114 618 139 q 689 89 650 89 q 740 112 724 89 q 757 168 757 135 q 690 289 757 238 l 619 344 q 538 439 560 392 q 515 551 515 486 q 561 687 515 638 q 688 736 607 736 q 813 685 771 736 q 856 543 856 635 z "},"₹":{"ha":858,"x_min":108,"x_max":750,"o":"m 589 0 l 108 403 l 108 496 l 322 496 q 453 531 401 496 q 518 642 506 567 l 108 642 l 108 733 l 518 733 q 453 844 506 810 q 322 879 401 879 l 108 879 l 108 971 l 750 971 l 750 879 l 549 879 q 621 733 608 825 l 750 733 l 750 642 l 621 642 q 531 470 607 533 q 336 407 454 407 l 264 407 l 750 0 l 589 0 z "},"₪":{"ha":858,"x_min":63,"x_max":796,"o":"m 272 0 l 272 771 l 375 771 l 375 97 l 575 97 q 665 126 636 97 q 693 218 693 154 l 693 971 l 796 971 l 796 218 q 738 58 796 115 q 575 0 679 0 l 272 0 m 63 0 l 63 971 l 365 971 q 528 913 469 971 q 586 753 586 856 l 586 200 l 483 200 l 483 753 q 455 845 483 817 q 365 874 426 874 l 165 874 l 165 0 l 63 0 z "},"£":{"ha":858,"x_min":131,"x_max":779,"o":"m 131 497 l 229 497 q 183 594 204 543 q 163 701 163 644 q 202 853 163 788 q 313 956 242 918 q 476 993 383 993 q 691 920 608 993 q 779 719 774 847 l 663 719 q 606 845 653 801 q 478 889 558 889 q 335 840 390 889 q 279 708 279 790 q 303 603 279 656 q 354 497 328 551 l 586 497 l 586 404 l 390 404 q 401 362 397 383 q 404 318 404 340 q 369 194 404 249 q 278 100 335 140 l 779 100 l 779 0 l 131 0 l 131 93 q 260 198 215 143 q 304 317 304 253 q 297 360 304 338 q 281 404 290 382 l 131 404 l 131 497 z "},"₸":{"ha":858,"x_min":74,"x_max":785,"o":"m 74 867 l 74 971 l 785 971 l 785 867 l 74 867 m 372 0 l 372 651 l 74 651 l 74 756 l 785 756 l 785 651 l 488 651 l 488 0 l 372 0 z "},"₮":{"ha":858,"x_min":74,"x_max":785,"o":"m 189 194 l 189 297 l 372 389 l 372 500 l 189 408 l 189 511 l 372 603 l 372 867 l 74 867 l 74 971 l 785 971 l 785 867 l 488 867 l 488 660 l 671 751 l 671 649 l 488 557 l 488 446 l 671 538 l 671 435 l 488 343 l 488 0 l 372 0 l 372 286 l 189 194 z "},"₩":{"ha":858,"x_min":17,"x_max":842,"o":"m 208 0 l 158 439 l 17 439 l 17 532 l 149 532 l 99 971 l 190 971 l 276 129 l 372 971 l 486 971 l 583 129 l 668 971 l 760 971 l 710 532 l 842 532 l 842 439 l 700 439 l 650 0 l 521 0 l 429 804 l 338 0 l 208 0 z "},"¥":{"ha":858,"x_min":29,"x_max":829,"o":"m 136 269 l 382 269 l 382 369 l 136 369 l 136 461 l 349 461 l 29 971 l 160 971 l 435 514 l 708 971 l 829 971 l 517 461 l 721 461 l 721 369 l 485 369 l 485 269 l 721 269 l 721 178 l 485 178 l 485 0 l 382 0 l 382 178 l 136 178 l 136 269 z "},"∙":{"ha":858,"x_min":335,"x_max":524,"o":"m 335 554 l 524 554 l 524 365 l 335 365 l 335 554 z "},"∕":{"ha":858,"x_min":136,"x_max":722,"o":"m 136 -111 l 604 1103 l 722 1103 l 254 -111 l 136 -111 z "},"+":{"ha":858,"x_min":93,"x_max":765,"o":"m 478 496 l 765 496 l 765 399 l 478 399 l 478 111 l 381 111 l 381 399 l 93 399 l 93 496 l 381 496 l 381 783 l 478 783 l 478 496 z "},"−":{"ha":858,"x_min":79,"x_max":779,"o":"m 79 496 l 779 496 l 779 399 l 79 399 l 79 496 z "},"×":{"ha":858,"x_min":126,"x_max":731,"o":"m 194 144 l 126 214 l 360 447 l 126 681 l 196 750 l 429 517 l 661 749 l 731 681 l 497 447 l 731 214 l 663 146 l 429 379 l 194 144 z "},"÷":{"ha":858,"x_min":93,"x_max":765,"o":"m 357 775 l 501 775 l 501 631 l 357 631 l 357 775 m 93 496 l 765 496 l 765 399 l 93 399 l 93 496 m 357 264 l 501 264 l 501 119 l 357 119 l 357 264 z "},"=":{"ha":858,"x_min":107,"x_max":751,"o":"m 107 672 l 751 672 l 751 575 l 107 575 l 107 672 m 107 322 l 751 322 l 751 225 l 107 225 l 107 322 z "},"≠":{"ha":858,"x_min":107,"x_max":751,"o":"m 254 92 l 183 132 l 236 225 l 107 225 l 107 322 l 290 322 l 432 575 l 107 575 l 107 672 l 488 672 l 560 801 l 629 763 l 579 672 l 751 672 l 751 575 l 525 575 l 383 322 l 751 322 l 751 225 l 329 225 l 254 92 z "},">":{"ha":858,"x_min":125,"x_max":733,"o":"m 125 839 l 733 510 l 733 386 l 125 57 l 125 178 l 633 444 l 125 718 l 125 839 z "},"<":{"ha":858,"x_min":125,"x_max":733,"o":"m 733 57 l 125 386 l 125 510 l 733 839 l 733 718 l 225 451 l 733 178 l 733 57 z "},"≥":{"ha":858,"x_min":90,"x_max":769,"o":"m 90 888 l 769 600 l 769 504 l 90 217 l 90 326 l 638 550 l 90 778 l 90 888 m 90 93 l 769 93 l 769 0 l 90 0 l 90 93 z "},"≤":{"ha":858,"x_min":89,"x_max":769,"o":"m 768 217 l 89 504 l 89 600 l 768 888 l 768 778 l 221 554 l 768 326 l 768 217 m 90 93 l 769 93 l 769 0 l 90 0 l 90 93 z "},"±":{"ha":858,"x_min":69,"x_max":742,"o":"m 454 578 l 742 578 l 742 481 l 454 481 l 454 193 l 357 193 l 357 481 l 69 481 l 69 578 l 357 578 l 357 865 l 454 865 l 454 578 m 69 97 l 742 97 l 742 0 l 69 0 l 69 97 z "},"≈":{"ha":858,"x_min":125,"x_max":733,"o":"m 561 489 q 474 506 510 489 q 410 547 439 524 q 356 588 382 571 q 297 606 329 606 q 242 580 264 606 q 221 506 221 554 l 125 506 q 150 615 125 571 q 215 681 175 658 q 297 703 254 703 q 384 685 349 703 q 448 644 419 668 q 503 603 476 621 q 561 586 529 586 q 616 613 594 586 q 638 686 638 639 l 733 686 q 708 578 733 622 q 644 511 683 533 q 561 489 606 489 m 561 183 q 474 201 510 183 q 410 242 439 218 q 356 283 382 265 q 297 300 329 300 q 242 274 264 300 q 221 200 221 249 l 125 200 q 150 309 125 265 q 215 375 175 353 q 297 397 254 397 q 384 380 349 397 q 448 339 419 363 q 503 298 476 315 q 561 281 529 281 q 616 307 594 281 q 638 381 638 333 l 733 381 q 708 272 733 317 q 644 206 683 228 q 561 183 606 183 z "},"~":{"ha":858,"x_min":125,"x_max":733,"o":"m 561 350 q 474 367 510 350 q 410 408 439 385 q 356 449 382 432 q 297 467 329 467 q 242 441 264 467 q 221 367 221 415 l 125 367 q 150 476 125 432 q 215 542 175 519 q 297 564 254 564 q 384 547 349 564 q 448 506 419 529 q 503 465 476 482 q 561 447 529 447 q 616 474 594 447 q 638 547 638 500 l 733 547 q 708 439 733 483 q 644 372 683 394 q 561 350 606 350 z "},"¬":{"ha":858,"x_min":79,"x_max":779,"o":"m 79 399 l 79 496 l 779 496 l 779 94 l 682 94 l 682 399 l 79 399 z "},"^":{"ha":858,"x_min":103,"x_max":757,"o":"m 103 443 l 356 971 l 504 971 l 757 443 l 632 443 l 428 872 l 226 443 l 103 443 z "},"∞":{"ha":858,"x_min":25,"x_max":835,"o":"m 203 218 q 116 247 157 218 q 50 328 75 276 q 25 450 25 381 q 51 572 25 519 q 119 653 76 624 q 213 682 163 682 q 281 669 249 682 q 349 624 313 657 q 432 528 385 590 q 510 622 475 589 q 579 669 544 656 q 656 682 614 682 q 743 653 703 682 q 809 572 783 624 q 835 450 835 519 q 808 328 835 381 q 740 247 782 276 q 646 218 697 218 q 578 231 610 218 q 510 276 546 243 q 426 372 474 310 q 349 278 383 311 q 279 231 314 244 q 203 218 244 218 m 646 589 q 599 580 621 589 q 551 543 578 571 q 483 457 524 515 q 553 366 526 397 q 600 323 579 335 q 646 311 621 311 q 710 349 681 311 q 739 450 739 388 q 710 551 739 513 q 646 589 681 589 m 119 450 q 149 349 119 388 q 213 311 178 311 q 259 320 238 311 q 308 357 281 329 q 375 443 335 385 q 306 534 333 503 q 258 577 279 565 q 214 589 238 589 q 149 551 179 589 q 119 450 119 513 z "},"∅":{"ha":858,"x_min":21,"x_max":838,"o":"m 90 78 l 21 147 l 115 242 q 56 354 76 292 q 35 486 35 417 q 87 689 35 599 q 228 832 139 779 q 429 885 318 885 q 562 863 499 885 q 675 801 625 842 l 768 894 l 838 825 l 743 731 q 803 618 782 681 q 824 486 824 556 q 772 284 824 375 q 630 140 719 193 q 429 88 540 88 q 297 110 360 88 q 183 171 233 132 l 90 78 m 182 308 l 607 733 q 429 788 533 788 q 275 749 342 788 q 170 643 208 711 q 132 486 132 575 q 182 308 132 385 m 429 185 q 584 223 517 185 q 689 329 651 261 q 726 486 726 397 q 676 664 726 588 l 251 239 q 429 185 325 185 z "},"∫":{"ha":858,"x_min":146,"x_max":713,"o":"m 374 750 q 438 927 374 863 q 611 992 501 992 q 669 988 646 992 q 713 976 692 983 l 713 869 q 668 883 690 879 q 624 886 646 886 q 522 851 558 886 q 485 758 485 815 l 485 119 q 422 -58 485 7 q 247 -122 358 -122 q 190 -118 213 -122 q 146 -107 167 -114 l 146 0 q 190 -13 168 -10 q 235 -17 213 -17 q 337 19 300 -17 q 374 111 374 54 l 374 750 z "},"Ω":{"ha":858,"x_min":65,"x_max":793,"o":"m 74 0 l 74 108 l 242 108 q 140 216 179 151 q 83 356 101 281 q 65 504 65 432 q 163 869 65 746 q 429 993 261 993 q 696 869 599 993 q 793 504 793 746 q 775 356 793 432 q 719 216 757 281 q 617 108 681 151 l 785 108 l 785 0 l 503 0 l 503 108 q 601 199 563 138 q 657 341 639 260 q 675 508 675 422 q 606 793 675 697 q 429 889 538 889 q 251 792 321 889 q 182 507 182 696 q 200 340 182 421 q 257 199 218 260 q 356 108 296 138 l 356 0 l 74 0 z "},"∆":{"ha":858,"x_min":72,"x_max":783,"o":"m 72 0 l 72 108 l 349 971 l 501 971 l 783 113 l 783 0 l 72 0 m 193 104 l 665 104 l 425 861 l 193 104 z "},"∏":{"ha":858,"x_min":110,"x_max":750,"o":"m 639 -111 l 639 865 l 221 865 l 221 -111 l 110 -111 l 110 971 l 750 971 l 750 -111 l 639 -111 z "},"∑":{"ha":858,"x_min":85,"x_max":746,"o":"m 739 972 l 739 861 l 239 861 l 632 439 l 632 422 l 231 0 l 746 0 l 746 -111 l 85 -111 l 85 1 l 490 429 l 92 858 l 92 972 l 739 972 z "},"√":{"ha":858,"x_min":26,"x_max":928,"o":"m 26 343 l 26 451 l 222 451 l 397 -21 l 811 1175 l 928 1175 l 463 -156 l 332 -156 l 146 343 l 26 343 z "},"µ":{"ha":858,"x_min":135,"x_max":800,"o":"m 800 75 l 800 -12 q 721 -25 753 -25 q 601 92 606 -25 q 375 -25 518 -25 q 250 11 304 -25 l 250 -306 l 135 -306 l 135 728 l 250 728 l 250 219 q 272 135 250 167 q 328 90 293 104 q 399 76 363 76 q 509 110 465 76 q 575 201 553 144 q 597 324 597 257 l 597 728 l 713 728 l 713 129 q 741 78 713 86 q 800 75 769 71 z "},"∂":{"ha":858,"x_min":107,"x_max":758,"o":"m 433 993 q 682 861 606 993 q 758 490 758 729 q 667 110 758 246 q 411 -25 575 -25 q 255 17 324 -25 q 147 135 186 58 q 107 315 107 211 q 148 494 107 418 q 260 613 189 571 q 424 656 332 656 q 558 616 494 656 q 651 493 622 576 l 651 493 q 592 796 651 696 q 433 896 532 896 q 333 867 374 896 q 279 779 292 839 l 158 779 q 247 935 174 878 q 433 993 319 993 m 424 78 q 530 110 485 78 q 600 199 575 143 q 625 325 625 254 q 572 490 625 428 q 422 553 519 553 q 279 493 338 553 q 221 315 221 433 q 249 187 221 240 q 323 106 276 133 q 424 78 369 78 z "},"%":{"ha":858,"x_min":29,"x_max":829,"o":"m 229 982 q 331 956 286 982 q 403 884 376 929 q 429 782 429 839 q 403 681 429 726 q 331 608 376 635 q 229 582 286 582 q 128 608 174 582 q 56 681 82 635 q 29 782 29 726 q 56 884 29 839 q 128 956 82 929 q 229 982 174 982 m 67 0 l 689 971 l 792 971 l 169 0 l 67 0 m 229 896 q 151 863 182 896 q 119 782 119 831 q 151 701 119 733 q 229 668 182 668 q 308 701 278 668 q 339 782 339 733 q 308 863 339 831 q 229 896 278 896 m 629 -11 q 528 15 574 -11 q 456 88 482 42 q 429 189 429 133 q 456 291 429 246 q 528 363 482 336 q 629 389 574 389 q 731 363 686 389 q 803 291 776 336 q 829 189 829 246 q 803 88 829 133 q 731 15 776 42 q 629 -11 686 -11 m 629 75 q 708 108 678 75 q 739 189 739 140 q 708 270 739 238 q 629 303 678 303 q 551 270 582 303 q 519 189 519 238 q 551 108 519 140 q 629 75 582 75 z "},"‰":{"ha":858,"x_min":29,"x_max":857,"o":"m 49 258 l 49 356 l 804 993 l 804 896 l 49 258 m 196 594 q 76 650 124 594 q 29 790 29 706 q 76 930 29 875 q 196 985 124 985 q 317 930 269 985 q 364 790 364 875 q 317 650 364 706 q 196 594 269 594 m 196 672 q 258 706 235 672 q 282 790 282 739 q 258 875 282 843 q 196 907 235 907 q 134 875 157 907 q 111 790 111 843 q 134 705 111 738 q 196 672 157 672 m 315 375 q 435 319 388 375 q 482 179 482 264 q 435 40 482 94 q 315 -15 388 -15 q 195 40 243 -15 q 147 179 147 94 q 195 319 147 264 q 315 375 243 375 m 690 375 q 810 319 763 375 q 857 179 857 264 q 810 40 857 94 q 690 -15 763 -15 q 570 40 618 -15 q 522 179 522 94 q 570 319 522 264 q 690 375 618 375 m 315 297 q 253 265 276 297 q 229 179 229 232 q 253 94 229 126 q 315 63 276 63 q 377 94 354 63 q 400 179 400 126 q 377 265 400 232 q 315 297 354 297 m 690 297 q 628 265 651 297 q 604 179 604 232 q 628 94 604 126 q 690 63 651 63 q 752 94 729 63 q 775 179 775 126 q 752 265 775 232 q 690 297 729 297 z "},"↑":{"ha":858,"x_min":25,"x_max":833,"o":"m 97 449 l 25 521 l 429 925 l 833 521 l 761 449 l 483 732 l 483 75 l 375 75 l 375 732 l 97 449 z "},"↗":{"ha":858,"x_min":90,"x_max":729,"o":"m 158 711 l 158 810 l 729 810 l 729 239 l 631 239 l 631 635 l 167 171 l 90 247 l 554 711 l 158 711 z "},"→":{"ha":858,"x_min":42,"x_max":831,"o":"m 354 832 l 426 904 l 831 500 l 426 96 l 354 168 l 638 446 l 42 446 l 42 554 l 638 554 l 354 832 z "},"↘":{"ha":858,"x_min":90,"x_max":729,"o":"m 631 760 l 729 760 l 729 189 l 158 189 l 158 288 l 554 288 l 90 751 l 167 828 l 631 364 l 631 760 z "},"↓":{"ha":858,"x_min":25,"x_max":833,"o":"m 761 546 l 833 474 l 429 69 l 25 474 l 97 546 l 375 263 l 375 919 l 483 919 l 483 263 l 761 546 z "},"↙":{"ha":858,"x_min":129,"x_max":768,"o":"m 700 288 l 700 189 l 129 189 l 129 760 l 228 760 l 228 364 l 692 828 l 768 751 l 304 288 l 700 288 z "},"←":{"ha":858,"x_min":28,"x_max":817,"o":"m 504 168 l 432 96 l 28 500 l 432 904 l 504 832 l 221 554 l 817 554 l 817 446 l 221 446 l 504 168 z "},"↖":{"ha":858,"x_min":129,"x_max":768,"o":"m 700 711 l 304 711 l 768 247 l 692 171 l 228 635 l 228 239 l 129 239 l 129 810 l 700 810 l 700 711 z "},"↔":{"ha":858,"x_min":-3,"x_max":860,"o":"m 281 188 l -3 500 l 281 813 l 343 749 l 157 546 l 700 546 l 514 749 l 576 813 l 860 500 l 576 188 l 514 251 l 700 454 l 157 454 l 343 251 l 281 188 z "},"↕":{"ha":858,"x_min":85,"x_max":774,"o":"m 429 -104 l 85 240 l 149 306 l 382 67 l 382 904 l 149 665 l 85 731 l 429 1075 l 774 731 l 710 665 l 476 904 l 476 67 l 710 306 l 774 240 l 429 -104 z "},"↩":{"ha":858,"x_min":39,"x_max":803,"o":"m 322 104 l 39 386 l 322 669 l 383 607 l 206 432 l 515 432 q 652 481 601 432 q 703 617 703 531 q 653 749 703 703 q 518 796 603 796 l 504 796 l 504 893 l 529 893 q 665 857 603 893 q 765 759 728 821 q 803 617 803 697 q 765 474 803 536 q 663 376 726 411 q 524 340 600 340 l 206 340 l 383 165 l 322 104 z "},"↪":{"ha":858,"x_min":56,"x_max":819,"o":"m 536 104 l 475 165 l 653 340 l 335 340 q 195 376 258 340 q 94 474 132 411 q 56 617 56 536 q 93 759 56 697 q 193 857 131 821 q 329 893 256 893 l 354 893 l 354 796 l 340 796 q 206 749 256 796 q 156 617 156 703 q 207 481 156 531 q 343 432 258 432 l 653 432 l 475 607 l 536 669 l 819 386 l 536 104 z "},"↰":{"ha":858,"x_min":58,"x_max":742,"o":"m 642 0 l 642 610 l 233 610 l 469 379 l 404 313 l 58 658 l 404 1004 l 469 938 l 233 707 l 742 707 l 742 0 l 642 0 z "},"↱":{"ha":858,"x_min":117,"x_max":800,"o":"m 217 0 l 117 0 l 117 707 l 625 707 l 389 938 l 454 1004 l 800 658 l 454 313 l 389 379 l 625 610 l 217 610 l 217 0 z "},"↲":{"ha":858,"x_min":58,"x_max":742,"o":"m 642 971 l 742 971 l 742 264 l 233 264 l 469 33 l 404 -33 l 58 313 l 404 658 l 469 592 l 233 361 l 642 361 l 642 971 z "},"↳":{"ha":858,"x_min":117,"x_max":800,"o":"m 217 971 l 217 361 l 625 361 l 389 592 l 454 658 l 800 313 l 454 -33 l 389 33 l 625 264 l 117 264 l 117 971 l 217 971 z "},"↺":{"ha":858,"x_min":57,"x_max":801,"o":"m 429 86 q 284 115 351 86 q 165 195 217 144 q 85 314 114 246 q 57 458 57 382 q 72 567 57 518 q 113 654 86 615 l 215 654 q 170 568 186 614 q 154 458 154 522 q 190 315 154 378 q 288 216 226 251 q 429 181 350 181 q 571 215 508 181 q 669 313 633 250 q 704 458 704 375 q 672 602 704 539 q 581 702 640 665 q 442 739 522 739 l 413 739 l 531 619 l 476 567 l 274 782 l 476 997 l 531 944 l 413 825 l 450 825 q 632 776 553 825 q 756 643 711 726 q 801 458 801 560 q 751 269 801 354 q 617 135 701 185 q 429 86 533 86 z "},"↻":{"ha":858,"x_min":57,"x_max":801,"o":"m 429 86 q 242 135 326 86 q 107 269 157 185 q 57 458 57 354 q 102 643 57 560 q 227 776 147 726 q 408 825 307 825 l 446 825 l 328 944 l 382 997 l 585 782 l 382 567 l 328 619 l 446 739 l 417 739 q 277 702 336 739 q 186 602 218 665 q 154 458 154 539 q 190 313 154 375 q 288 215 226 250 q 429 181 350 181 q 571 216 508 181 q 669 315 633 251 q 704 458 704 378 q 688 568 704 522 q 643 654 672 614 l 746 654 q 787 567 772 615 q 801 458 801 518 q 773 314 801 382 q 693 195 744 246 q 574 115 642 144 q 429 86 507 86 z "},"⇆":{"ha":858,"x_min":32,"x_max":826,"o":"m 306 461 l 32 732 l 306 1003 l 368 939 l 206 779 l 786 779 l 786 686 l 204 686 l 368 525 l 306 461 m 72 193 l 72 286 l 653 286 l 490 446 l 553 510 l 826 239 l 553 -32 l 490 32 l 654 193 l 72 193 z "},"●":{"ha":858,"x_min":28,"x_max":832,"o":"m 431 83 q 274 115 347 83 q 146 201 201 146 q 59 330 90 257 q 28 486 28 403 q 59 642 28 569 q 146 769 90 714 q 274 856 201 825 q 431 888 347 888 q 586 856 514 888 q 714 769 658 825 q 801 642 769 714 q 832 486 832 569 q 801 330 832 403 q 714 201 769 257 q 586 115 658 146 q 431 83 514 83 z "},"○":{"ha":858,"x_min":28,"x_max":832,"o":"m 431 83 q 274 115 347 83 q 146 201 201 146 q 59 330 90 257 q 28 486 28 403 q 59 642 28 569 q 146 769 90 714 q 274 856 201 825 q 431 888 347 888 q 586 856 514 888 q 714 769 658 825 q 801 642 769 714 q 832 486 832 569 q 801 330 832 403 q 714 201 769 257 q 586 115 658 146 q 431 83 514 83 m 431 167 q 595 208 524 167 q 708 321 667 249 q 749 486 749 393 q 708 651 749 579 q 595 763 667 722 q 431 804 524 804 q 265 763 338 804 q 152 651 193 722 q 111 486 111 579 q 152 321 111 393 q 265 208 193 249 q 431 167 338 167 z "},"◎":{"ha":858,"x_min":31,"x_max":828,"o":"m 429 82 q 225 135 315 82 q 83 280 135 189 q 31 485 31 371 q 83 690 31 599 q 225 834 135 781 q 429 888 315 888 q 633 834 543 888 q 776 690 724 781 q 828 485 828 599 q 776 280 828 371 q 633 135 724 189 q 429 82 543 82 m 429 165 q 591 207 519 165 q 703 322 663 249 q 744 485 744 394 q 703 649 744 576 q 591 763 663 721 q 429 804 519 804 q 267 763 339 804 q 155 649 196 721 q 114 485 114 576 q 155 322 114 394 q 267 207 196 249 q 429 165 339 165 m 429 257 q 314 287 365 257 q 233 369 263 317 q 203 485 203 421 q 233 601 203 550 q 314 683 263 653 q 429 713 365 713 q 544 683 493 713 q 626 601 596 653 q 656 485 656 550 q 626 369 656 421 q 544 287 596 317 q 429 257 493 257 m 429 340 q 532 381 492 340 q 572 485 572 421 q 532 589 572 549 q 429 629 492 629 q 326 589 367 629 q 286 485 286 549 q 326 381 286 421 q 429 340 367 340 z "},"◦":{"ha":858,"x_min":257,"x_max":601,"o":"m 429 631 q 515 608 476 631 q 578 546 554 585 q 601 458 601 507 q 578 371 601 410 q 515 309 554 332 q 429 286 476 286 q 343 309 382 286 q 281 371 304 332 q 257 458 257 410 q 281 546 257 507 q 343 608 304 585 q 429 631 382 631 m 429 547 q 366 522 392 547 q 340 458 340 496 q 366 395 340 421 q 429 369 392 369 q 492 395 467 369 q 518 458 518 421 q 492 522 518 496 q 429 547 467 547 z "},"◆":{"ha":858,"x_min":3,"x_max":857,"o":"m 3 486 l 431 913 l 857 486 l 431 60 l 3 486 z "},"◇":{"ha":858,"x_min":3,"x_max":857,"o":"m 431 60 l 3 486 l 431 913 l 857 486 l 431 60 m 431 178 l 739 486 l 431 794 l 121 486 l 431 178 z "},"◊":{"ha":858,"x_min":65,"x_max":793,"o":"m 371 0 l 65 486 l 371 971 l 488 971 l 793 486 l 488 0 l 371 0 m 190 489 l 431 106 l 668 483 l 428 865 l 190 489 z "},"■":{"ha":858,"x_min":47,"x_max":813,"o":"m 47 868 l 813 868 l 813 103 l 47 103 l 47 868 z "},"□":{"ha":858,"x_min":47,"x_max":813,"o":"m 47 103 l 47 868 l 813 868 l 813 103 l 47 103 m 131 186 l 729 186 l 729 785 l 131 785 l 131 186 z "},"▪":{"ha":858,"x_min":189,"x_max":671,"o":"m 189 632 l 671 632 l 671 150 l 189 150 l 189 632 z "},"▫":{"ha":858,"x_min":189,"x_max":671,"o":"m 189 150 l 189 632 l 671 632 l 671 150 l 189 150 m 272 233 l 588 233 l 588 549 l 272 549 l 272 233 z "},"▲":{"ha":858,"x_min":-17,"x_max":875,"o":"m 875 103 l -17 103 l 429 876 l 875 103 z "},"▶":{"ha":858,"x_min":47,"x_max":821,"o":"m 47 39 l 47 931 l 821 485 l 47 39 z "},"▼":{"ha":858,"x_min":-17,"x_max":875,"o":"m -17 868 l 875 868 l 429 94 l -17 868 z "},"◀":{"ha":858,"x_min":39,"x_max":813,"o":"m 813 931 l 813 39 l 39 485 l 813 931 z "},"△":{"ha":858,"x_min":-17,"x_max":875,"o":"m -17 103 l 429 876 l 875 103 l -17 103 m 731 186 l 429 710 l 128 186 l 731 186 z "},"▷":{"ha":858,"x_min":47,"x_max":821,"o":"m 47 931 l 821 485 l 47 39 l 47 931 m 131 183 l 654 485 l 131 786 l 131 183 z "},"▽":{"ha":858,"x_min":-17,"x_max":875,"o":"m 875 868 l 429 94 l -17 868 l 875 868 m 128 785 l 429 261 l 731 785 l 128 785 z "},"◁":{"ha":858,"x_min":39,"x_max":813,"o":"m 813 39 l 39 485 l 813 931 l 813 39 m 729 786 l 206 485 l 729 183 l 729 786 z "},"▴":{"ha":858,"x_min":146,"x_max":714,"o":"m 714 150 l 146 150 l 431 643 l 714 150 z "},"▸":{"ha":858,"x_min":231,"x_max":724,"o":"m 231 107 l 231 675 l 724 390 l 231 107 z "},"▾":{"ha":858,"x_min":146,"x_max":714,"o":"m 146 632 l 714 632 l 429 139 l 146 632 z "},"◂":{"ha":858,"x_min":135,"x_max":628,"o":"m 628 675 l 628 107 l 135 392 l 628 675 m 628 675 l 628 107 l 135 392 l 628 675 z "},"▵":{"ha":858,"x_min":146,"x_max":714,"o":"m 146 150 l 431 643 l 714 150 l 146 150 m 290 233 l 569 233 l 431 476 l 290 233 z "},"▹":{"ha":858,"x_min":231,"x_max":724,"o":"m 231 675 l 724 390 l 231 107 l 231 675 m 314 531 l 314 251 l 557 390 l 314 531 z "},"▿":{"ha":858,"x_min":146,"x_max":714,"o":"m 714 632 l 429 139 l 146 632 l 714 632 m 569 549 l 290 549 l 429 306 l 569 549 z "},"◃":{"ha":858,"x_min":135,"x_max":628,"o":"m 628 107 l 135 392 l 628 675 l 628 107 m 544 251 l 544 531 l 301 392 l 544 251 z "},"̈":{"ha":0,"x_min":244,"x_max":614,"o":"m 244 993 l 389 993 l 389 850 l 244 850 l 244 993 m 469 993 l 614 993 l 614 850 l 469 850 l 469 993 z "},"̇":{"ha":0,"x_min":357,"x_max":501,"o":"m 357 994 l 501 994 l 501 850 l 357 850 l 357 994 z "},"̀":{"ha":0,"x_min":208,"x_max":499,"o":"m 499 822 l 415 822 l 208 1028 l 365 1028 l 499 822 z "},"́":{"ha":0,"x_min":363,"x_max":653,"o":"m 363 822 l 496 1028 l 653 1028 l 446 822 l 363 822 z "},"̋":{"ha":0,"x_min":251,"x_max":782,"o":"m 251 825 l 385 1031 l 542 1031 l 335 825 l 251 825 m 492 822 l 625 1028 l 782 1028 l 575 822 l 492 822 z "},"̂":{"ha":0,"x_min":229,"x_max":628,"o":"m 229 821 l 363 1029 l 493 1029 l 628 821 l 540 821 l 428 954 l 318 821 l 229 821 z "},"̌":{"ha":0,"x_min":229,"x_max":628,"o":"m 628 1029 l 494 821 l 364 821 l 229 1029 l 317 1029 l 429 896 l 539 1029 l 628 1029 z "},"̆":{"ha":0,"x_min":221,"x_max":638,"o":"m 221 1017 l 303 1017 q 429 925 314 925 q 556 1017 544 925 l 638 1017 q 576 874 632 919 q 429 829 519 829 q 284 874 340 829 q 221 1017 228 919 z "},"̊":{"ha":0,"x_min":307,"x_max":551,"o":"m 429 1047 q 516 1012 481 1047 q 551 925 551 976 q 516 838 551 874 q 429 803 481 803 q 342 838 378 803 q 307 925 307 874 q 342 1012 307 976 q 429 1047 378 1047 m 429 988 q 385 969 401 988 q 369 925 369 951 q 385 881 369 899 q 429 863 401 863 q 473 881 457 863 q 489 925 489 899 q 473 969 489 951 q 429 988 457 988 z "},"̃":{"ha":0,"x_min":211,"x_max":647,"o":"m 567 996 l 647 996 q 522 851 626 851 q 463 866 499 851 q 394 894 428 881 q 338 908 360 908 q 292 853 306 908 l 211 853 q 331 996 235 996 q 391 983 357 996 q 458 956 425 969 q 515 942 492 942 q 567 996 553 942 z "},"̄":{"ha":0,"x_min":239,"x_max":619,"o":"m 239 974 l 619 974 l 619 876 l 239 876 l 239 974 z "},"̒":{"ha":0,"x_min":360,"x_max":497,"o":"m 497 965 l 497 832 l 360 832 l 360 978 q 397 1064 360 1032 q 485 1096 433 1096 l 497 1096 l 497 1042 l 482 1042 q 433 1025 451 1042 q 415 981 415 1008 l 415 965 l 497 965 z "},"̦":{"ha":0,"x_min":361,"x_max":499,"o":"m 361 -237 l 361 -104 l 499 -104 l 499 -250 q 463 -336 499 -304 q 374 -368 426 -368 l 361 -368 l 361 -314 l 376 -314 q 425 -297 407 -314 q 443 -253 443 -281 l 443 -237 l 361 -237 z "},"̧":{"ha":0,"x_min":329,"x_max":601,"o":"m 390 -117 l 456 17 l 514 17 l 463 -87 q 500 -83 481 -83 q 571 -106 540 -83 q 601 -178 601 -129 q 559 -265 601 -233 q 446 -297 517 -297 q 384 -288 415 -297 q 329 -265 353 -279 l 354 -204 q 401 -221 375 -214 q 451 -228 426 -228 q 497 -217 476 -228 q 518 -179 518 -207 q 503 -150 518 -160 q 468 -140 489 -140 q 418 -156 442 -140 l 390 -117 z "},"̨":{"ha":0,"x_min":282,"x_max":517,"o":"m 464 28 l 517 0 q 406 -58 436 -28 q 375 -128 375 -87 q 399 -181 375 -161 q 458 -200 424 -200 q 517 -192 492 -200 l 517 -272 q 476 -282 497 -279 q 436 -285 456 -285 q 325 -248 368 -285 q 282 -156 282 -211 q 322 -51 282 -103 q 464 28 361 0 z "},"¨":{"ha":858,"x_min":244,"x_max":614,"o":"m 244 993 l 389 993 l 389 850 l 244 850 l 244 993 m 469 993 l 614 993 l 614 850 l 469 850 l 469 993 z "},"˙":{"ha":858,"x_min":357,"x_max":501,"o":"m 357 994 l 501 994 l 501 850 l 357 850 l 357 994 z "},"`":{"ha":858,"x_min":208,"x_max":499,"o":"m 499 822 l 415 822 l 208 1028 l 365 1028 l 499 822 z "},"´":{"ha":858,"x_min":363,"x_max":653,"o":"m 363 822 l 496 1028 l 653 1028 l 446 822 l 363 822 z "},"˝":{"ha":858,"x_min":251,"x_max":782,"o":"m 251 825 l 385 1031 l 542 1031 l 335 825 l 251 825 m 492 822 l 625 1028 l 782 1028 l 575 822 l 492 822 z "},"ˆ":{"ha":858,"x_min":229,"x_max":628,"o":"m 229 821 l 363 1029 l 493 1029 l 628 821 l 540 821 l 428 954 l 318 821 l 229 821 z "},"ˇ":{"ha":858,"x_min":229,"x_max":628,"o":"m 628 1029 l 494 821 l 364 821 l 229 1029 l 317 1029 l 429 896 l 539 1029 l 628 1029 z "},"˘":{"ha":858,"x_min":221,"x_max":638,"o":"m 221 1017 l 303 1017 q 429 925 314 925 q 556 1017 544 925 l 638 1017 q 576 874 632 919 q 429 829 519 829 q 284 874 340 829 q 221 1017 228 919 z "},"˚":{"ha":858,"x_min":307,"x_max":551,"o":"m 429 1047 q 516 1012 481 1047 q 551 925 551 976 q 516 838 551 874 q 429 803 481 803 q 342 838 378 803 q 307 925 307 874 q 342 1012 307 976 q 429 1047 378 1047 m 429 988 q 385 969 401 988 q 369 925 369 951 q 385 881 369 899 q 429 863 401 863 q 473 881 457 863 q 489 925 489 899 q 473 969 489 951 q 429 988 457 988 z "},"˜":{"ha":858,"x_min":211,"x_max":647,"o":"m 567 996 l 647 996 q 522 851 626 851 q 463 866 499 851 q 394 894 428 881 q 338 908 360 908 q 292 853 306 908 l 211 853 q 331 996 235 996 q 391 983 357 996 q 458 956 425 969 q 515 942 492 942 q 567 996 553 942 z "},"¯":{"ha":858,"x_min":239,"x_max":619,"o":"m 239 974 l 619 974 l 619 876 l 239 876 l 239 974 z "},"¸":{"ha":858,"x_min":329,"x_max":601,"o":"m 390 -117 l 456 17 l 514 17 l 463 -87 q 500 -83 481 -83 q 571 -106 540 -83 q 601 -178 601 -129 q 559 -265 601 -233 q 446 -297 517 -297 q 384 -288 415 -297 q 329 -265 353 -279 l 354 -204 q 401 -221 375 -214 q 451 -228 426 -228 q 497 -217 476 -228 q 518 -179 518 -207 q 503 -150 518 -160 q 468 -140 489 -140 q 418 -156 442 -140 l 390 -117 z "},"˛":{"ha":858,"x_min":282,"x_max":517,"o":"m 464 28 l 517 0 q 406 -58 436 -28 q 375 -128 375 -87 q 399 -181 375 -161 q 458 -200 424 -200 q 517 -192 492 -200 l 517 -272 q 476 -282 497 -279 q 436 -285 456 -285 q 325 -248 368 -285 q 282 -156 282 -211 q 322 -51 282 -103 q 464 28 361 0 z "},"":{"ha":858,"x_min":1,"x_max":857,"o":"m 347 113 l 347 18 q 169 102 247 35 q 47 270 92 169 q 1 485 1 371 q 47 700 1 600 q 169 867 92 800 q 347 951 247 935 l 347 857 q 217 790 274 842 q 130 659 161 738 q 99 485 99 581 q 130 310 99 389 q 217 180 161 232 q 347 113 274 128 m 511 857 l 511 951 q 690 868 613 936 q 813 700 768 800 q 857 485 857 600 q 813 270 857 371 q 690 102 768 169 q 511 18 613 35 l 511 113 q 642 181 586 129 q 728 310 697 232 q 760 485 760 389 q 728 659 760 581 q 642 790 697 738 q 511 857 586 842 m 622 386 q 581 285 622 326 q 469 236 539 244 l 469 140 l 389 140 l 389 236 q 274 292 318 247 q 228 400 229 336 l 325 400 q 435 311 332 311 q 504 328 479 311 q 529 375 529 346 q 469 433 529 424 l 360 453 q 277 497 310 463 q 244 586 244 532 q 285 683 244 644 q 389 733 325 722 l 389 829 l 469 829 l 469 733 q 576 685 536 724 q 617 589 615 646 l 522 589 q 491 642 519 626 q 426 658 463 658 q 362 642 386 658 q 338 599 338 625 q 401 535 338 546 l 507 517 q 593 473 564 507 q 622 386 622 439 z "},"":{"ha":858,"x_min":35,"x_max":824,"o":"m 343 0 l 146 0 l 146 344 l 35 344 l 35 436 l 146 436 l 146 536 l 35 536 l 35 628 l 146 628 l 146 971 l 343 971 q 572 879 481 971 q 693 628 664 788 l 824 628 l 824 536 l 704 536 q 706 486 706 511 q 704 436 706 461 l 824 436 l 824 344 l 693 344 q 574 92 665 183 q 343 0 482 0 m 253 869 l 253 628 l 581 628 q 494 806 557 743 q 336 869 432 869 l 253 869 m 594 485 q 593 536 594 511 l 253 536 l 253 436 l 593 436 q 594 485 594 460 m 253 101 l 336 101 q 494 165 431 101 q 582 344 558 229 l 253 344 l 253 101 z "}}}
